solid OpenSCAD_Model
  facet normal 0.994522 0.104523 0
    outer loop
      vertex 21.209 0 11.303
      vertex 20.9773 2.20478 0
      vertex 20.9773 2.20478 11.303
    endloop
  endfacet
  facet normal 0.994522 0.104523 0
    outer loop
      vertex 20.9773 2.20478 0
      vertex 21.209 0 11.303
      vertex 21.209 0 0
    endloop
  endfacet
  facet normal 0.587788 0.809015 -0
    outer loop
      vertex 17.7003 7.88067 0
      vertex 15.9067 9.18377 11.303
      vertex 17.7003 7.88067 11.303
    endloop
  endfacet
  facet normal 0.587788 0.809015 0
    outer loop
      vertex 15.9067 9.18377 11.303
      vertex 17.7003 7.88067 0
      vertex 15.9067 9.18377 0
    endloop
  endfacet
  facet normal 0 0 1
    outer loop
      vertex 5.30224 9.18377 11.303
      vertex 10.6045 18.3675 11.303
      vertex 8.5792 19.2692 11.303
    endloop
  endfacet
  facet normal 0 0 1
    outer loop
      vertex 5.30224 9.18377 11.303
      vertex 8.5792 19.2692 11.303
      vertex 6.4107 19.7302 11.303
    endloop
  endfacet
  facet normal 0 0 1
    outer loop
      vertex 10.6045 18.3675 11.303
      vertex 5.30224 9.18377 11.303
      vertex 10.6045 0 11.303
    endloop
  endfacet
  facet normal -0 0 1
    outer loop
      vertex 4.19376 19.7302 11.303
      vertex 5.30224 9.18377 11.303
      vertex 6.4107 19.7302 11.303
    endloop
  endfacet
  facet normal -0 0 1
    outer loop
      vertex 2.02526 19.2692 11.303
      vertex 5.30224 9.18377 11.303
      vertex 4.19376 19.7302 11.303
    endloop
  endfacet
  facet normal -0 0 1
    outer loop
      vertex 0 18.3675 11.303
      vertex 5.30224 9.18377 11.303
      vertex 2.02526 19.2692 11.303
    endloop
  endfacet
  facet normal 0 0 1
    outer loop
      vertex -5.30224 9.18377 11.303
      vertex 0 18.3675 11.303
      vertex -2.02526 19.2692 11.303
    endloop
  endfacet
  facet normal 0 0 1
    outer loop
      vertex -5.30224 9.18377 11.303
      vertex -2.02526 19.2692 11.303
      vertex -4.19376 19.7302 11.303
    endloop
  endfacet
  facet normal 0 0 1
    outer loop
      vertex 0 18.3675 11.303
      vertex -5.30224 9.18377 11.303
      vertex 5.30224 9.18377 11.303
    endloop
  endfacet
  facet normal -0 0 1
    outer loop
      vertex -6.4107 19.7302 11.303
      vertex -5.30224 9.18377 11.303
      vertex -4.19376 19.7302 11.303
    endloop
  endfacet
  facet normal -0 0 1
    outer loop
      vertex -8.5792 19.2692 11.303
      vertex -5.30224 9.18377 11.303
      vertex -6.4107 19.7302 11.303
    endloop
  endfacet
  facet normal -0 0 1
    outer loop
      vertex -10.6045 18.3675 11.303
      vertex -5.30224 9.18377 11.303
      vertex -8.5792 19.2692 11.303
    endloop
  endfacet
  facet normal -0 0 1
    outer loop
      vertex -12.398 17.0644 11.303
      vertex -5.30224 9.18377 11.303
      vertex -10.6045 18.3675 11.303
    endloop
  endfacet
  facet normal 0 0 1
    outer loop
      vertex -5.30224 9.18377 11.303
      vertex -15.9067 9.18377 11.303
      vertex -10.6045 0 11.303
    endloop
  endfacet
  facet normal -0 0 1
    outer loop
      vertex -13.8815 15.4169 11.303
      vertex -5.30224 9.18377 11.303
      vertex -12.398 17.0644 11.303
    endloop
  endfacet
  facet normal -0 0 1
    outer loop
      vertex -17.7003 7.88067 11.303
      vertex -10.6045 0 11.303
      vertex -15.9067 9.18377 11.303
    endloop
  endfacet
  facet normal -0 0 1
    outer loop
      vertex -14.9899 13.497 11.303
      vertex -5.30224 9.18377 11.303
      vertex -13.8815 15.4169 11.303
    endloop
  endfacet
  facet normal 0 0 1
    outer loop
      vertex -10.6045 0 11.303
      vertex -15.9067 -9.18377 11.303
      vertex -10.6045 -18.3675 11.303
    endloop
  endfacet
  facet normal -0 0 1
    outer loop
      vertex -15.675 11.3885 11.303
      vertex -5.30224 9.18377 11.303
      vertex -14.9899 13.497 11.303
    endloop
  endfacet
  facet normal 0 0 1
    outer loop
      vertex -10.6045 -18.3675 11.303
      vertex -15.9067 -9.18377 11.303
      vertex -12.398 -17.0644 11.303
    endloop
  endfacet
  facet normal 0 0 1
    outer loop
      vertex -5.30224 9.18377 11.303
      vertex -15.675 11.3885 11.303
      vertex -15.9067 9.18377 11.303
    endloop
  endfacet
  facet normal 0 0 1
    outer loop
      vertex -12.398 -17.0644 11.303
      vertex -15.9067 -9.18377 11.303
      vertex -13.8815 -15.4169 11.303
    endloop
  endfacet
  facet normal 0 0 1
    outer loop
      vertex -13.8815 -15.4169 11.303
      vertex -15.9067 -9.18377 11.303
      vertex -14.9899 -13.497 11.303
    endloop
  endfacet
  facet normal 0 0 1
    outer loop
      vertex -14.9899 -13.497 11.303
      vertex -15.9067 -9.18377 11.303
      vertex -15.675 -11.3885 11.303
    endloop
  endfacet
  facet normal -0 0 1
    outer loop
      vertex -19.1837 6.23315 11.303
      vertex -10.6045 0 11.303
      vertex -17.7003 7.88067 11.303
    endloop
  endfacet
  facet normal 0 0 1
    outer loop
      vertex -10.6045 0 11.303
      vertex -17.7003 -7.88067 11.303
      vertex -15.9067 -9.18377 11.303
    endloop
  endfacet
  facet normal -0 0 1
    outer loop
      vertex -20.2922 4.31323 11.303
      vertex -10.6045 0 11.303
      vertex -19.1837 6.23315 11.303
    endloop
  endfacet
  facet normal 0 0 1
    outer loop
      vertex -10.6045 0 11.303
      vertex -19.1837 -6.23315 11.303
      vertex -17.7003 -7.88067 11.303
    endloop
  endfacet
  facet normal -0 0 1
    outer loop
      vertex -20.9773 2.20478 11.303
      vertex -10.6045 0 11.303
      vertex -20.2922 4.31323 11.303
    endloop
  endfacet
  facet normal 0 0 1
    outer loop
      vertex -10.6045 0 11.303
      vertex -20.2922 -4.31323 11.303
      vertex -19.1837 -6.23315 11.303
    endloop
  endfacet
  facet normal 0 0 1
    outer loop
      vertex -21.209 0 11.303
      vertex -10.6045 0 11.303
      vertex -20.9773 2.20478 11.303
    endloop
  endfacet
  facet normal 0 0 1
    outer loop
      vertex -10.6045 0 11.303
      vertex -20.9773 -2.20478 11.303
      vertex -20.2922 -4.31323 11.303
    endloop
  endfacet
  facet normal 0 0 1
    outer loop
      vertex -10.6045 0 11.303
      vertex -21.209 0 11.303
      vertex -20.9773 -2.20478 11.303
    endloop
  endfacet
  facet normal 0 0 1
    outer loop
      vertex 10.6045 0 11.303
      vertex 21.209 0 11.303
      vertex 20.9773 2.20478 11.303
    endloop
  endfacet
  facet normal 0 0 1
    outer loop
      vertex 10.6045 0 11.303
      vertex 20.9773 2.20478 11.303
      vertex 20.2922 4.31323 11.303
    endloop
  endfacet
  facet normal 0 0 1
    outer loop
      vertex 21.209 0 11.303
      vertex 10.6045 0 11.303
      vertex 20.9773 -2.20478 11.303
    endloop
  endfacet
  facet normal 0 0 1
    outer loop
      vertex 10.6045 0 11.303
      vertex 20.2922 4.31323 11.303
      vertex 19.1837 6.23315 11.303
    endloop
  endfacet
  facet normal 0 0 1
    outer loop
      vertex 20.9773 -2.20478 11.303
      vertex 10.6045 0 11.303
      vertex 20.2922 -4.31323 11.303
    endloop
  endfacet
  facet normal 0 0 1
    outer loop
      vertex 10.6045 0 11.303
      vertex 19.1837 6.23315 11.303
      vertex 17.7003 7.88067 11.303
    endloop
  endfacet
  facet normal 0 0 1
    outer loop
      vertex 20.2922 -4.31323 11.303
      vertex 10.6045 0 11.303
      vertex 19.1837 -6.23315 11.303
    endloop
  endfacet
  facet normal 0 0 1
    outer loop
      vertex 10.6045 0 11.303
      vertex 17.7003 7.88067 11.303
      vertex 15.9067 9.18377 11.303
    endloop
  endfacet
  facet normal 0 0 1
    outer loop
      vertex 19.1837 -6.23315 11.303
      vertex 10.6045 0 11.303
      vertex 17.7003 -7.88067 11.303
    endloop
  endfacet
  facet normal 0 0 1
    outer loop
      vertex 10.6045 0 11.303
      vertex 15.9067 9.18377 11.303
      vertex 15.675 11.3885 11.303
    endloop
  endfacet
  facet normal 0 0 1
    outer loop
      vertex 17.7003 -7.88067 11.303
      vertex 10.6045 0 11.303
      vertex 15.9067 -9.18377 11.303
    endloop
  endfacet
  facet normal 0 0 1
    outer loop
      vertex 10.6045 0 11.303
      vertex 15.675 11.3885 11.303
      vertex 14.9899 13.497 11.303
    endloop
  endfacet
  facet normal 0 0 1
    outer loop
      vertex 5.30224 -9.18377 11.303
      vertex 15.9067 -9.18377 11.303
      vertex 10.6045 0 11.303
    endloop
  endfacet
  facet normal 0 0 1
    outer loop
      vertex 10.6045 0 11.303
      vertex 14.9899 13.497 11.303
      vertex 13.8815 15.4169 11.303
    endloop
  endfacet
  facet normal 0 0 1
    outer loop
      vertex 15.9067 -9.18377 11.303
      vertex 5.30224 -9.18377 11.303
      vertex 15.675 -11.3885 11.303
    endloop
  endfacet
  facet normal 0 0 1
    outer loop
      vertex 10.6045 0 11.303
      vertex 13.8815 15.4169 11.303
      vertex 12.398 17.0644 11.303
    endloop
  endfacet
  facet normal 0 0 1
    outer loop
      vertex 15.675 -11.3885 11.303
      vertex 5.30224 -9.18377 11.303
      vertex 14.9899 -13.497 11.303
    endloop
  endfacet
  facet normal 0 0 1
    outer loop
      vertex 10.6045 0 11.303
      vertex 12.398 17.0644 11.303
      vertex 10.6045 18.3675 11.303
    endloop
  endfacet
  facet normal 0 0 1
    outer loop
      vertex 14.9899 -13.497 11.303
      vertex 5.30224 -9.18377 11.303
      vertex 13.8815 -15.4169 11.303
    endloop
  endfacet
  facet normal 0 0 1
    outer loop
      vertex 13.8815 -15.4169 11.303
      vertex 5.30224 -9.18377 11.303
      vertex 12.398 -17.0644 11.303
    endloop
  endfacet
  facet normal 0 0 1
    outer loop
      vertex 12.398 -17.0644 11.303
      vertex 5.30224 -9.18377 11.303
      vertex 10.6045 -18.3675 11.303
    endloop
  endfacet
  facet normal 0 0 1
    outer loop
      vertex 10.6045 -18.3675 11.303
      vertex 5.30224 -9.18377 11.303
      vertex 8.5792 -19.2692 11.303
    endloop
  endfacet
  facet normal 0 0 1
    outer loop
      vertex 8.5792 -19.2692 11.303
      vertex 5.30224 -9.18377 11.303
      vertex 6.4107 -19.7302 11.303
    endloop
  endfacet
  facet normal 0 0 1
    outer loop
      vertex 5.30224 -9.18377 11.303
      vertex 4.19376 -19.7302 11.303
      vertex 6.4107 -19.7302 11.303
    endloop
  endfacet
  facet normal 0 0 1
    outer loop
      vertex 5.30224 -9.18377 11.303
      vertex 2.02526 -19.2692 11.303
      vertex 4.19376 -19.7302 11.303
    endloop
  endfacet
  facet normal 0 0 1
    outer loop
      vertex 5.30224 -9.18377 11.303
      vertex 0 -18.3675 11.303
      vertex 2.02526 -19.2692 11.303
    endloop
  endfacet
  facet normal -0 0 1
    outer loop
      vertex -5.30224 -9.18377 11.303
      vertex 0 -18.3675 11.303
      vertex 5.30224 -9.18377 11.303
    endloop
  endfacet
  facet normal 0 0 1
    outer loop
      vertex 0 -18.3675 11.303
      vertex -5.30224 -9.18377 11.303
      vertex -2.02526 -19.2692 11.303
    endloop
  endfacet
  facet normal 0 0 1
    outer loop
      vertex -2.02526 -19.2692 11.303
      vertex -5.30224 -9.18377 11.303
      vertex -4.19376 -19.7302 11.303
    endloop
  endfacet
  facet normal 0 0 1
    outer loop
      vertex -5.30224 -9.18377 11.303
      vertex -6.4107 -19.7302 11.303
      vertex -4.19376 -19.7302 11.303
    endloop
  endfacet
  facet normal 0 0 1
    outer loop
      vertex -5.30224 -9.18377 11.303
      vertex -8.5792 -19.2692 11.303
      vertex -6.4107 -19.7302 11.303
    endloop
  endfacet
  facet normal 0 0 1
    outer loop
      vertex -10.6045 -18.3675 11.303
      vertex -5.30224 -9.18377 11.303
      vertex -10.6045 0 11.303
    endloop
  endfacet
  facet normal 0 0 1
    outer loop
      vertex -5.30224 -9.18377 11.303
      vertex -10.6045 -18.3675 11.303
      vertex -8.5792 -19.2692 11.303
    endloop
  endfacet
  facet normal 0.866026 -0.499998 0
    outer loop
      vertex 19.1837 -6.23315 11.303
      vertex 20.2922 -4.31323 0
      vertex 20.2922 -4.31323 11.303
    endloop
  endfacet
  facet normal 0.866026 -0.499998 0
    outer loop
      vertex 20.2922 -4.31323 0
      vertex 19.1837 -6.23315 11.303
      vertex 19.1837 -6.23315 0
    endloop
  endfacet
  facet normal 0.866026 0.499998 0
    outer loop
      vertex 20.2922 4.31323 11.303
      vertex 19.1837 6.23315 0
      vertex 19.1837 6.23315 11.303
    endloop
  endfacet
  facet normal 0.866026 0.499998 0
    outer loop
      vertex 19.1837 6.23315 0
      vertex 20.2922 4.31323 11.303
      vertex 20.2922 4.31323 0
    endloop
  endfacet
  facet normal 0.951055 0.309021 0
    outer loop
      vertex 20.9773 2.20478 11.303
      vertex 20.2922 4.31323 0
      vertex 20.2922 4.31323 11.303
    endloop
  endfacet
  facet normal 0.951055 0.309021 0
    outer loop
      vertex 20.2922 4.31323 0
      vertex 20.9773 2.20478 11.303
      vertex 20.9773 2.20478 0
    endloop
  endfacet
  facet normal 0.743145 0.66913 0
    outer loop
      vertex 19.1837 6.23315 11.303
      vertex 17.7003 7.88067 0
      vertex 17.7003 7.88067 11.303
    endloop
  endfacet
  facet normal 0.743145 0.66913 0
    outer loop
      vertex 17.7003 7.88067 0
      vertex 19.1837 6.23315 11.303
      vertex 19.1837 6.23315 0
    endloop
  endfacet
  facet normal 0.994522 -0.104523 0
    outer loop
      vertex 20.9773 -2.20478 11.303
      vertex 21.209 0 0
      vertex 21.209 0 11.303
    endloop
  endfacet
  facet normal 0.994522 -0.104523 0
    outer loop
      vertex 21.209 0 0
      vertex 20.9773 -2.20478 11.303
      vertex 20.9773 -2.20478 0
    endloop
  endfacet
  facet normal 0.743145 -0.66913 0
    outer loop
      vertex 17.7003 -7.88067 11.303
      vertex 19.1837 -6.23315 0
      vertex 19.1837 -6.23315 11.303
    endloop
  endfacet
  facet normal 0.743145 -0.66913 0
    outer loop
      vertex 19.1837 -6.23315 0
      vertex 17.7003 -7.88067 11.303
      vertex 17.7003 -7.88067 0
    endloop
  endfacet
  facet normal 0.951055 -0.309021 0
    outer loop
      vertex 20.2922 -4.31323 11.303
      vertex 20.9773 -2.20478 0
      vertex 20.9773 -2.20478 11.303
    endloop
  endfacet
  facet normal 0.951055 -0.309021 0
    outer loop
      vertex 20.9773 -2.20478 0
      vertex 20.2922 -4.31323 11.303
      vertex 20.2922 -4.31323 0
    endloop
  endfacet
  facet normal 0.587788 -0.809015 0
    outer loop
      vertex 15.9067 -9.18377 0
      vertex 17.7003 -7.88067 11.303
      vertex 15.9067 -9.18377 11.303
    endloop
  endfacet
  facet normal 0.587788 -0.809015 0
    outer loop
      vertex 17.7003 -7.88067 11.303
      vertex 15.9067 -9.18377 0
      vertex 17.7003 -7.88067 0
    endloop
  endfacet
  facet normal 0 0 -1
    outer loop
      vertex 6.35 0 0
      vertex 21.209 0 0
      vertex 20.9773 -2.20478 0
    endloop
  endfacet
  facet normal 0 0 -1
    outer loop
      vertex 6.35 0 0
      vertex 20.9773 -2.20478 0
      vertex 20.2922 -4.31323 0
    endloop
  endfacet
  facet normal 0 0 -1
    outer loop
      vertex 21.209 0 0
      vertex 6.35 0 0
      vertex 20.9773 2.20478 0
    endloop
  endfacet
  facet normal 0 0 -1
    outer loop
      vertex 6.21122 -1.32022 0
      vertex 20.2922 -4.31323 0
      vertex 19.1837 -6.23315 0
    endloop
  endfacet
  facet normal -0 0 -1
    outer loop
      vertex 20.9773 2.20478 0
      vertex 6.35 0 0
      vertex 20.2922 4.31323 0
    endloop
  endfacet
  facet normal 0 0 -1
    outer loop
      vertex 6.21122 -1.32022 0
      vertex 19.1837 -6.23315 0
      vertex 17.7003 -7.88067 0
    endloop
  endfacet
  facet normal 0 0 -1
    outer loop
      vertex 6.21122 1.32022 0
      vertex 20.2922 4.31323 0
      vertex 6.35 0 0
    endloop
  endfacet
  facet normal 0 0 -1
    outer loop
      vertex 6.21122 -1.32022 0
      vertex 17.7003 -7.88067 0
      vertex 15.9067 -9.18377 0
    endloop
  endfacet
  facet normal -0 0 -1
    outer loop
      vertex 20.2922 4.31323 0
      vertex 6.21122 1.32022 0
      vertex 19.1837 6.23315 0
    endloop
  endfacet
  facet normal 0 0 -1
    outer loop
      vertex 4.24897 -4.71895 0
      vertex 15.9067 -9.18377 0
      vertex 15.675 -11.3885 0
    endloop
  endfacet
  facet normal -0 0 -1
    outer loop
      vertex 19.1837 6.23315 0
      vertex 6.21122 1.32022 0
      vertex 17.7003 7.88067 0
    endloop
  endfacet
  facet normal 0 0 -1
    outer loop
      vertex 4.24897 -4.71895 0
      vertex 15.675 -11.3885 0
      vertex 14.9899 -13.497 0
    endloop
  endfacet
  facet normal -0 0 -1
    outer loop
      vertex 17.7003 7.88067 0
      vertex 6.21122 1.32022 0
      vertex 15.9067 9.18377 0
    endloop
  endfacet
  facet normal 0 0 -1
    outer loop
      vertex 4.24897 -4.71895 0
      vertex 14.9899 -13.497 0
      vertex 13.8815 -15.4169 0
    endloop
  endfacet
  facet normal 0 0 -1
    outer loop
      vertex 5.801 2.58276 0
      vertex 15.9067 9.18377 0
      vertex 6.21122 1.32022 0
    endloop
  endfacet
  facet normal 0 0 -1
    outer loop
      vertex 3.175 -5.49925 0
      vertex 13.8815 -15.4169 0
      vertex 12.398 -17.0644 0
    endloop
  endfacet
  facet normal 0 0 -1
    outer loop
      vertex 5.13723 3.73243 0
      vertex 15.9067 9.18377 0
      vertex 5.801 2.58276 0
    endloop
  endfacet
  facet normal 0 0 -1
    outer loop
      vertex 3.175 -5.49925 0
      vertex 12.398 -17.0644 0
      vertex 10.6045 -18.3675 0
    endloop
  endfacet
  facet normal 0 0 -1
    outer loop
      vertex 4.24897 4.71895 0
      vertex 15.9067 9.18377 0
      vertex 5.13723 3.73243 0
    endloop
  endfacet
  facet normal 0 0 -1
    outer loop
      vertex 3.175 -5.49925 0
      vertex 10.6045 -18.3675 0
      vertex 8.5792 -19.2692 0
    endloop
  endfacet
  facet normal -0 0 -1
    outer loop
      vertex 15.9067 9.18377 0
      vertex 4.24897 4.71895 0
      vertex 15.675 11.3885 0
    endloop
  endfacet
  facet normal 0 0 -1
    outer loop
      vertex 3.175 -5.49925 0
      vertex 8.5792 -19.2692 0
      vertex 6.4107 -19.7302 0
    endloop
  endfacet
  facet normal -0 0 -1
    outer loop
      vertex 15.675 11.3885 0
      vertex 4.24897 4.71895 0
      vertex 14.9899 13.497 0
    endloop
  endfacet
  facet normal -0 0 -1
    outer loop
      vertex 14.9899 13.497 0
      vertex 4.24897 4.71895 0
      vertex 13.8815 15.4169 0
    endloop
  endfacet
  facet normal 0 0 -1
    outer loop
      vertex 20.2922 -4.31323 0
      vertex 6.21122 -1.32022 0
      vertex 6.35 0 0
    endloop
  endfacet
  facet normal 0 0 -1
    outer loop
      vertex 15.9067 -9.18377 0
      vertex 5.801 -2.58276 0
      vertex 6.21122 -1.32022 0
    endloop
  endfacet
  facet normal 0 0 -1
    outer loop
      vertex 15.9067 -9.18377 0
      vertex 5.13723 -3.73243 0
      vertex 5.801 -2.58276 0
    endloop
  endfacet
  facet normal 0 0 -1
    outer loop
      vertex 15.9067 -9.18377 0
      vertex 4.24897 -4.71895 0
      vertex 5.13723 -3.73243 0
    endloop
  endfacet
  facet normal 0 0 -1
    outer loop
      vertex 1.96223 -6.03919 0
      vertex 6.4107 -19.7302 0
      vertex 4.19376 -19.7302 0
    endloop
  endfacet
  facet normal 0 0 -1
    outer loop
      vertex 13.8815 -15.4169 0
      vertex 3.175 -5.49925 0
      vertex 4.24897 -4.71895 0
    endloop
  endfacet
  facet normal 0 0 -1
    outer loop
      vertex 1.96223 -6.03919 0
      vertex 4.19376 -19.7302 0
      vertex 2.02526 -19.2692 0
    endloop
  endfacet
  facet normal 0 0 -1
    outer loop
      vertex 6.4107 -19.7302 0
      vertex 1.96223 -6.03919 0
      vertex 3.175 -5.49925 0
    endloop
  endfacet
  facet normal 0 0 -1
    outer loop
      vertex 0 -18.3675 0
      vertex 1.96223 -6.03919 0
      vertex 2.02526 -19.2692 0
    endloop
  endfacet
  facet normal 0 0 -1
    outer loop
      vertex 1.96223 -6.03919 0
      vertex 0 -18.3675 0
      vertex 0.663743 -6.31519 0
    endloop
  endfacet
  facet normal 0 0 -1
    outer loop
      vertex 0 -18.3675 0
      vertex -0.663743 -6.31519 0
      vertex 0.663743 -6.31519 0
    endloop
  endfacet
  facet normal 0 0 -1
    outer loop
      vertex 0 -18.3675 0
      vertex -1.96223 -6.03919 0
      vertex -0.663743 -6.31519 0
    endloop
  endfacet
  facet normal 0 0 -1
    outer loop
      vertex -2.02526 -19.2692 0
      vertex -1.96223 -6.03919 0
      vertex 0 -18.3675 0
    endloop
  endfacet
  facet normal 0 0 -1
    outer loop
      vertex -4.19376 -19.7302 0
      vertex -1.96223 -6.03919 0
      vertex -2.02526 -19.2692 0
    endloop
  endfacet
  facet normal 0 0 -1
    outer loop
      vertex -6.4107 -19.7302 0
      vertex -1.96223 -6.03919 0
      vertex -4.19376 -19.7302 0
    endloop
  endfacet
  facet normal -0 0 -1
    outer loop
      vertex -1.96223 -6.03919 0
      vertex -6.4107 -19.7302 0
      vertex -3.175 -5.49925 0
    endloop
  endfacet
  facet normal 0 0 -1
    outer loop
      vertex -8.5792 -19.2692 0
      vertex -3.175 -5.49925 0
      vertex -6.4107 -19.7302 0
    endloop
  endfacet
  facet normal 0 0 -1
    outer loop
      vertex -10.6045 -18.3675 0
      vertex -3.175 -5.49925 0
      vertex -8.5792 -19.2692 0
    endloop
  endfacet
  facet normal 0 0 -1
    outer loop
      vertex -12.398 -17.0644 0
      vertex -3.175 -5.49925 0
      vertex -10.6045 -18.3675 0
    endloop
  endfacet
  facet normal -0 0 -1
    outer loop
      vertex -3.175 -5.49925 0
      vertex -13.8815 -15.4169 0
      vertex -4.24897 -4.71895 0
    endloop
  endfacet
  facet normal 0 0 -1
    outer loop
      vertex -13.8815 -15.4169 0
      vertex -3.175 -5.49925 0
      vertex -12.398 -17.0644 0
    endloop
  endfacet
  facet normal 0 0 -1
    outer loop
      vertex 3.175 5.49925 0
      vertex 13.8815 15.4169 0
      vertex 4.24897 4.71895 0
    endloop
  endfacet
  facet normal -0 0 -1
    outer loop
      vertex 13.8815 15.4169 0
      vertex 3.175 5.49925 0
      vertex 12.398 17.0644 0
    endloop
  endfacet
  facet normal -0 0 -1
    outer loop
      vertex 12.398 17.0644 0
      vertex 3.175 5.49925 0
      vertex 10.6045 18.3675 0
    endloop
  endfacet
  facet normal -0 0 -1
    outer loop
      vertex 10.6045 18.3675 0
      vertex 3.175 5.49925 0
      vertex 8.5792 19.2692 0
    endloop
  endfacet
  facet normal -0 0 -1
    outer loop
      vertex 8.5792 19.2692 0
      vertex 3.175 5.49925 0
      vertex 6.4107 19.7302 0
    endloop
  endfacet
  facet normal 0 0 -1
    outer loop
      vertex 1.96223 6.03919 0
      vertex 6.4107 19.7302 0
      vertex 3.175 5.49925 0
    endloop
  endfacet
  facet normal -0 0 -1
    outer loop
      vertex 6.4107 19.7302 0
      vertex 1.96223 6.03919 0
      vertex 4.19376 19.7302 0
    endloop
  endfacet
  facet normal 0 0 -1
    outer loop
      vertex 4.19376 19.7302 0
      vertex 1.96223 6.03919 0
      vertex 2.02526 19.2692 0
    endloop
  endfacet
  facet normal 0 0 -1
    outer loop
      vertex 0 18.3675 0
      vertex 1.96223 6.03919 0
      vertex 0.663743 6.31519 0
    endloop
  endfacet
  facet normal 0 0 -1
    outer loop
      vertex 1.96223 6.03919 0
      vertex 0 18.3675 0
      vertex 2.02526 19.2692 0
    endloop
  endfacet
  facet normal 0 0 -1
    outer loop
      vertex -0.663743 6.31519 0
      vertex 0 18.3675 0
      vertex 0.663743 6.31519 0
    endloop
  endfacet
  facet normal 0 0 -1
    outer loop
      vertex -1.96223 6.03919 0
      vertex 0 18.3675 0
      vertex -0.663743 6.31519 0
    endloop
  endfacet
  facet normal 0 0 -1
    outer loop
      vertex -1.96223 6.03919 0
      vertex -2.02526 19.2692 0
      vertex 0 18.3675 0
    endloop
  endfacet
  facet normal 0 0 -1
    outer loop
      vertex -6.4107 19.7302 0
      vertex -1.96223 6.03919 0
      vertex -3.17498 5.49925 0
    endloop
  endfacet
  facet normal 0 0 -1
    outer loop
      vertex -1.96223 6.03919 0
      vertex -4.19376 19.7302 0
      vertex -2.02526 19.2692 0
    endloop
  endfacet
  facet normal 0 0 -1
    outer loop
      vertex -13.8815 15.4169 0
      vertex -3.17498 5.49925 0
      vertex -4.24897 4.71895 0
    endloop
  endfacet
  facet normal 0 0 -1
    outer loop
      vertex -15.9067 9.18377 0
      vertex -4.24897 4.71895 0
      vertex -5.13723 3.73243 0
    endloop
  endfacet
  facet normal 0 0 -1
    outer loop
      vertex -15.9067 9.18377 0
      vertex -5.13723 3.73243 0
      vertex -5.801 2.58276 0
    endloop
  endfacet
  facet normal 0 0 -1
    outer loop
      vertex -15.9067 9.18377 0
      vertex -5.801 2.58276 0
      vertex -6.21122 1.32022 0
    endloop
  endfacet
  facet normal 0 0 -1
    outer loop
      vertex -1.96223 6.03919 0
      vertex -6.4107 19.7302 0
      vertex -4.19376 19.7302 0
    endloop
  endfacet
  facet normal 0 0 -1
    outer loop
      vertex -20.2922 4.31323 0
      vertex -6.21122 1.32022 0
      vertex -6.35 0 0
    endloop
  endfacet
  facet normal 0 0 -1
    outer loop
      vertex -14.9899 -13.497 0
      vertex -4.24897 -4.71895 0
      vertex -13.8815 -15.4169 0
    endloop
  endfacet
  facet normal 0 0 -1
    outer loop
      vertex -15.675 -11.3885 0
      vertex -4.24897 -4.71895 0
      vertex -14.9899 -13.497 0
    endloop
  endfacet
  facet normal 0 0 -1
    outer loop
      vertex -19.1837 -6.23315 0
      vertex -6.21122 -1.32022 0
      vertex -17.7003 -7.88067 0
    endloop
  endfacet
  facet normal 0 0 -1
    outer loop
      vertex -15.9067 -9.18377 0
      vertex -4.24897 -4.71895 0
      vertex -15.675 -11.3885 0
    endloop
  endfacet
  facet normal 0 0 -1
    outer loop
      vertex -4.24897 4.71895 0
      vertex -15.9067 9.18377 0
      vertex -15.675 11.3885 0
    endloop
  endfacet
  facet normal -0 0 -1
    outer loop
      vertex -4.24897 -4.71895 0
      vertex -15.9067 -9.18377 0
      vertex -5.13723 -3.73243 0
    endloop
  endfacet
  facet normal 0 0 -1
    outer loop
      vertex -3.17498 5.49925 0
      vertex -8.5792 19.2692 0
      vertex -6.4107 19.7302 0
    endloop
  endfacet
  facet normal -0 0 -1
    outer loop
      vertex -5.13723 -3.73243 0
      vertex -15.9067 -9.18377 0
      vertex -5.801 -2.58276 0
    endloop
  endfacet
  facet normal 0 0 -1
    outer loop
      vertex -3.17498 5.49925 0
      vertex -10.6045 18.3675 0
      vertex -8.5792 19.2692 0
    endloop
  endfacet
  facet normal -0 0 -1
    outer loop
      vertex -5.801 -2.58276 0
      vertex -15.9067 -9.18377 0
      vertex -6.21122 -1.32022 0
    endloop
  endfacet
  facet normal 0 0 -1
    outer loop
      vertex -3.17498 5.49925 0
      vertex -12.398 17.0644 0
      vertex -10.6045 18.3675 0
    endloop
  endfacet
  facet normal 0 0 -1
    outer loop
      vertex -17.7003 -7.88067 0
      vertex -6.21122 -1.32022 0
      vertex -15.9067 -9.18377 0
    endloop
  endfacet
  facet normal 0 0 -1
    outer loop
      vertex -3.17498 5.49925 0
      vertex -13.8815 15.4169 0
      vertex -12.398 17.0644 0
    endloop
  endfacet
  facet normal 0 0 -1
    outer loop
      vertex -4.24897 4.71895 0
      vertex -14.9899 13.497 0
      vertex -13.8815 15.4169 0
    endloop
  endfacet
  facet normal 0 0 -1
    outer loop
      vertex -4.24897 4.71895 0
      vertex -15.675 11.3885 0
      vertex -14.9899 13.497 0
    endloop
  endfacet
  facet normal 0 0 -1
    outer loop
      vertex -20.2922 -4.31323 0
      vertex -6.21122 -1.32022 0
      vertex -19.1837 -6.23315 0
    endloop
  endfacet
  facet normal 0 0 -1
    outer loop
      vertex -6.21122 1.32022 0
      vertex -17.7003 7.88067 0
      vertex -15.9067 9.18377 0
    endloop
  endfacet
  facet normal -0 0 -1
    outer loop
      vertex -6.21122 -1.32022 0
      vertex -20.2922 -4.31323 0
      vertex -6.35 0 0
    endloop
  endfacet
  facet normal 0 0 -1
    outer loop
      vertex -6.21122 1.32022 0
      vertex -19.1837 6.23315 0
      vertex -17.7003 7.88067 0
    endloop
  endfacet
  facet normal 0 0 -1
    outer loop
      vertex -20.9773 -2.20478 0
      vertex -6.35 0 0
      vertex -20.2922 -4.31323 0
    endloop
  endfacet
  facet normal 0 0 -1
    outer loop
      vertex -6.21122 1.32022 0
      vertex -20.2922 4.31323 0
      vertex -19.1837 6.23315 0
    endloop
  endfacet
  facet normal 0 0 -1
    outer loop
      vertex -21.209 0 0
      vertex -6.35 0 0
      vertex -20.9773 -2.20478 0
    endloop
  endfacet
  facet normal 0 0 -1
    outer loop
      vertex -6.35 0 0
      vertex -20.9773 2.20478 0
      vertex -20.2922 4.31323 0
    endloop
  endfacet
  facet normal 0 0 -1
    outer loop
      vertex -6.35 0 0
      vertex -21.209 0 0
      vertex -20.9773 2.20478 0
    endloop
  endfacet
  facet normal 0.406726 0.91355 -0
    outer loop
      vertex 10.6045 18.3675 0
      vertex 8.5792 19.2692 11.303
      vertex 10.6045 18.3675 11.303
    endloop
  endfacet
  facet normal 0.406726 0.91355 0
    outer loop
      vertex 8.5792 19.2692 11.303
      vertex 10.6045 18.3675 0
      vertex 8.5792 19.2692 0
    endloop
  endfacet
  facet normal -0.40673 0.913548 0
    outer loop
      vertex 2.02526 19.2692 0
      vertex 0 18.3675 11.303
      vertex 2.02526 19.2692 11.303
    endloop
  endfacet
  facet normal -0.40673 0.913548 0
    outer loop
      vertex 0 18.3675 11.303
      vertex 2.02526 19.2692 0
      vertex 0 18.3675 0
    endloop
  endfacet
  facet normal 0 1 -0
    outer loop
      vertex 6.4107 19.7302 0
      vertex 4.19376 19.7302 11.303
      vertex 6.4107 19.7302 11.303
    endloop
  endfacet
  facet normal 0 1 0
    outer loop
      vertex 4.19376 19.7302 11.303
      vertex 6.4107 19.7302 0
      vertex 4.19376 19.7302 0
    endloop
  endfacet
  facet normal 0.20792 0.978146 -0
    outer loop
      vertex 8.5792 19.2692 0
      vertex 6.4107 19.7302 11.303
      vertex 8.5792 19.2692 11.303
    endloop
  endfacet
  facet normal 0.20792 0.978146 0
    outer loop
      vertex 6.4107 19.7302 11.303
      vertex 8.5792 19.2692 0
      vertex 6.4107 19.7302 0
    endloop
  endfacet
  facet normal -0.20792 0.978146 0
    outer loop
      vertex 4.19376 19.7302 0
      vertex 2.02526 19.2692 11.303
      vertex 4.19376 19.7302 11.303
    endloop
  endfacet
  facet normal -0.20792 0.978146 0
    outer loop
      vertex 2.02526 19.2692 11.303
      vertex 4.19376 19.7302 0
      vertex 2.02526 19.2692 0
    endloop
  endfacet
  facet normal 0.587788 0.809015 -0
    outer loop
      vertex 12.398 17.0644 0
      vertex 10.6045 18.3675 11.303
      vertex 12.398 17.0644 11.303
    endloop
  endfacet
  facet normal 0.587788 0.809015 0
    outer loop
      vertex 10.6045 18.3675 11.303
      vertex 12.398 17.0644 0
      vertex 10.6045 18.3675 0
    endloop
  endfacet
  facet normal 0.866026 0.499998 0
    outer loop
      vertex 14.9899 13.497 11.303
      vertex 13.8815 15.4169 0
      vertex 13.8815 15.4169 11.303
    endloop
  endfacet
  facet normal 0.866026 0.499998 0
    outer loop
      vertex 13.8815 15.4169 0
      vertex 14.9899 13.497 11.303
      vertex 14.9899 13.497 0
    endloop
  endfacet
  facet normal 0.994522 0.104523 0
    outer loop
      vertex 15.9067 9.18377 11.303
      vertex 15.675 11.3885 0
      vertex 15.675 11.3885 11.303
    endloop
  endfacet
  facet normal 0.994522 0.104523 0
    outer loop
      vertex 15.675 11.3885 0
      vertex 15.9067 9.18377 11.303
      vertex 15.9067 9.18377 0
    endloop
  endfacet
  facet normal 0.743145 0.66913 0
    outer loop
      vertex 13.8815 15.4169 11.303
      vertex 12.398 17.0644 0
      vertex 12.398 17.0644 11.303
    endloop
  endfacet
  facet normal 0.743145 0.66913 0
    outer loop
      vertex 12.398 17.0644 0
      vertex 13.8815 15.4169 11.303
      vertex 13.8815 15.4169 0
    endloop
  endfacet
  facet normal 0.951055 0.30902 0
    outer loop
      vertex 15.675 11.3885 11.303
      vertex 14.9899 13.497 0
      vertex 14.9899 13.497 11.303
    endloop
  endfacet
  facet normal 0.951055 0.30902 0
    outer loop
      vertex 14.9899 13.497 0
      vertex 15.675 11.3885 11.303
      vertex 15.675 11.3885 0
    endloop
  endfacet
  facet normal -0.587788 0.809015 0
    outer loop
      vertex -10.6045 18.3675 0
      vertex -12.398 17.0644 11.303
      vertex -10.6045 18.3675 11.303
    endloop
  endfacet
  facet normal -0.587788 0.809015 0
    outer loop
      vertex -12.398 17.0644 11.303
      vertex -10.6045 18.3675 0
      vertex -12.398 17.0644 0
    endloop
  endfacet
  facet normal -0.951055 0.30902 0
    outer loop
      vertex -15.675 11.3885 0
      vertex -14.9899 13.497 11.303
      vertex -14.9899 13.497 0
    endloop
  endfacet
  facet normal -0.951055 0.30902 0
    outer loop
      vertex -14.9899 13.497 11.303
      vertex -15.675 11.3885 0
      vertex -15.675 11.3885 11.303
    endloop
  endfacet
  facet normal -0.743145 0.66913 0
    outer loop
      vertex -13.8815 15.4169 0
      vertex -12.398 17.0644 11.303
      vertex -12.398 17.0644 0
    endloop
  endfacet
  facet normal -0.743145 0.66913 0
    outer loop
      vertex -12.398 17.0644 11.303
      vertex -13.8815 15.4169 0
      vertex -13.8815 15.4169 11.303
    endloop
  endfacet
  facet normal -0.20792 0.978146 0
    outer loop
      vertex -6.4107 19.7302 0
      vertex -8.5792 19.2692 11.303
      vertex -6.4107 19.7302 11.303
    endloop
  endfacet
  facet normal -0.20792 0.978146 0
    outer loop
      vertex -8.5792 19.2692 11.303
      vertex -6.4107 19.7302 0
      vertex -8.5792 19.2692 0
    endloop
  endfacet
  facet normal -0.866026 0.499998 0
    outer loop
      vertex -14.9899 13.497 0
      vertex -13.8815 15.4169 11.303
      vertex -13.8815 15.4169 0
    endloop
  endfacet
  facet normal -0.866026 0.499998 0
    outer loop
      vertex -13.8815 15.4169 11.303
      vertex -14.9899 13.497 0
      vertex -14.9899 13.497 11.303
    endloop
  endfacet
  facet normal -0.994522 0.104523 0
    outer loop
      vertex -15.9067 9.18377 0
      vertex -15.675 11.3885 11.303
      vertex -15.675 11.3885 0
    endloop
  endfacet
  facet normal -0.994522 0.104523 0
    outer loop
      vertex -15.675 11.3885 11.303
      vertex -15.9067 9.18377 0
      vertex -15.9067 9.18377 11.303
    endloop
  endfacet
  facet normal -0.406726 0.91355 0
    outer loop
      vertex -8.5792 19.2692 0
      vertex -10.6045 18.3675 11.303
      vertex -8.5792 19.2692 11.303
    endloop
  endfacet
  facet normal -0.406726 0.91355 0
    outer loop
      vertex -10.6045 18.3675 11.303
      vertex -8.5792 19.2692 0
      vertex -10.6045 18.3675 0
    endloop
  endfacet
  facet normal 0.20792 0.978146 -0
    outer loop
      vertex -2.02526 19.2692 0
      vertex -4.19376 19.7302 11.303
      vertex -2.02526 19.2692 11.303
    endloop
  endfacet
  facet normal 0.20792 0.978146 0
    outer loop
      vertex -4.19376 19.7302 11.303
      vertex -2.02526 19.2692 0
      vertex -4.19376 19.7302 0
    endloop
  endfacet
  facet normal 0 1 -0
    outer loop
      vertex -4.19376 19.7302 0
      vertex -6.4107 19.7302 11.303
      vertex -4.19376 19.7302 11.303
    endloop
  endfacet
  facet normal 0 1 0
    outer loop
      vertex -6.4107 19.7302 11.303
      vertex -4.19376 19.7302 0
      vertex -6.4107 19.7302 0
    endloop
  endfacet
  facet normal 0.40673 0.913548 -0
    outer loop
      vertex 0 18.3675 0
      vertex -2.02526 19.2692 11.303
      vertex 0 18.3675 11.303
    endloop
  endfacet
  facet normal 0.40673 0.913548 0
    outer loop
      vertex -2.02526 19.2692 11.303
      vertex 0 18.3675 0
      vertex -2.02526 19.2692 0
    endloop
  endfacet
  facet normal -0.994522 -0.104523 0
    outer loop
      vertex -20.9773 -2.20478 0
      vertex -21.209 0 11.303
      vertex -21.209 0 0
    endloop
  endfacet
  facet normal -0.994522 -0.104523 0
    outer loop
      vertex -21.209 0 11.303
      vertex -20.9773 -2.20478 0
      vertex -20.9773 -2.20478 11.303
    endloop
  endfacet
  facet normal -0.951055 -0.309021 0
    outer loop
      vertex -20.2922 -4.31323 0
      vertex -20.9773 -2.20478 11.303
      vertex -20.9773 -2.20478 0
    endloop
  endfacet
  facet normal -0.951055 -0.309021 0
    outer loop
      vertex -20.9773 -2.20478 11.303
      vertex -20.2922 -4.31323 0
      vertex -20.2922 -4.31323 11.303
    endloop
  endfacet
  facet normal -0.743145 -0.66913 0
    outer loop
      vertex -17.7003 -7.88067 0
      vertex -19.1837 -6.23315 11.303
      vertex -19.1837 -6.23315 0
    endloop
  endfacet
  facet normal -0.743145 -0.66913 0
    outer loop
      vertex -19.1837 -6.23315 11.303
      vertex -17.7003 -7.88067 0
      vertex -17.7003 -7.88067 11.303
    endloop
  endfacet
  facet normal -0.994522 0.104523 0
    outer loop
      vertex -21.209 0 0
      vertex -20.9773 2.20478 11.303
      vertex -20.9773 2.20478 0
    endloop
  endfacet
  facet normal -0.994522 0.104523 0
    outer loop
      vertex -20.9773 2.20478 11.303
      vertex -21.209 0 0
      vertex -21.209 0 11.303
    endloop
  endfacet
  facet normal -0.743145 0.66913 0
    outer loop
      vertex -19.1837 6.23315 0
      vertex -17.7003 7.88067 11.303
      vertex -17.7003 7.88067 0
    endloop
  endfacet
  facet normal -0.743145 0.66913 0
    outer loop
      vertex -17.7003 7.88067 11.303
      vertex -19.1837 6.23315 0
      vertex -19.1837 6.23315 11.303
    endloop
  endfacet
  facet normal -0.866026 -0.499998 0
    outer loop
      vertex -19.1837 -6.23315 0
      vertex -20.2922 -4.31323 11.303
      vertex -20.2922 -4.31323 0
    endloop
  endfacet
  facet normal -0.866026 -0.499998 0
    outer loop
      vertex -20.2922 -4.31323 11.303
      vertex -19.1837 -6.23315 0
      vertex -19.1837 -6.23315 11.303
    endloop
  endfacet
  facet normal -0.587788 -0.809015 0
    outer loop
      vertex -17.7003 -7.88067 0
      vertex -15.9067 -9.18377 11.303
      vertex -17.7003 -7.88067 11.303
    endloop
  endfacet
  facet normal -0.587788 -0.809015 -0
    outer loop
      vertex -15.9067 -9.18377 11.303
      vertex -17.7003 -7.88067 0
      vertex -15.9067 -9.18377 0
    endloop
  endfacet
  facet normal -0.951055 0.309021 0
    outer loop
      vertex -20.9773 2.20478 0
      vertex -20.2922 4.31323 11.303
      vertex -20.2922 4.31323 0
    endloop
  endfacet
  facet normal -0.951055 0.309021 0
    outer loop
      vertex -20.2922 4.31323 11.303
      vertex -20.9773 2.20478 0
      vertex -20.9773 2.20478 11.303
    endloop
  endfacet
  facet normal -0.866026 0.499998 0
    outer loop
      vertex -20.2922 4.31323 0
      vertex -19.1837 6.23315 11.303
      vertex -19.1837 6.23315 0
    endloop
  endfacet
  facet normal -0.866026 0.499998 0
    outer loop
      vertex -19.1837 6.23315 11.303
      vertex -20.2922 4.31323 0
      vertex -20.2922 4.31323 11.303
    endloop
  endfacet
  facet normal -0.587788 0.809015 0
    outer loop
      vertex -15.9067 9.18377 0
      vertex -17.7003 7.88067 11.303
      vertex -15.9067 9.18377 11.303
    endloop
  endfacet
  facet normal -0.587788 0.809015 0
    outer loop
      vertex -17.7003 7.88067 11.303
      vertex -15.9067 9.18377 0
      vertex -17.7003 7.88067 0
    endloop
  endfacet
  facet normal -0.406726 -0.91355 0
    outer loop
      vertex -10.6045 -18.3675 0
      vertex -8.5792 -19.2692 11.303
      vertex -10.6045 -18.3675 11.303
    endloop
  endfacet
  facet normal -0.406726 -0.91355 -0
    outer loop
      vertex -8.5792 -19.2692 11.303
      vertex -10.6045 -18.3675 0
      vertex -8.5792 -19.2692 0
    endloop
  endfacet
  facet normal 0.20792 -0.978146 0
    outer loop
      vertex -4.19376 -19.7302 0
      vertex -2.02526 -19.2692 11.303
      vertex -4.19376 -19.7302 11.303
    endloop
  endfacet
  facet normal 0.20792 -0.978146 0
    outer loop
      vertex -2.02526 -19.2692 11.303
      vertex -4.19376 -19.7302 0
      vertex -2.02526 -19.2692 0
    endloop
  endfacet
  facet normal -0.20792 -0.978146 0
    outer loop
      vertex -8.5792 -19.2692 0
      vertex -6.4107 -19.7302 11.303
      vertex -8.5792 -19.2692 11.303
    endloop
  endfacet
  facet normal -0.20792 -0.978146 -0
    outer loop
      vertex -6.4107 -19.7302 11.303
      vertex -8.5792 -19.2692 0
      vertex -6.4107 -19.7302 0
    endloop
  endfacet
  facet normal 0 -1 0
    outer loop
      vertex -6.4107 -19.7302 0
      vertex -4.19376 -19.7302 11.303
      vertex -6.4107 -19.7302 11.303
    endloop
  endfacet
  facet normal 0 -1 -0
    outer loop
      vertex -4.19376 -19.7302 11.303
      vertex -6.4107 -19.7302 0
      vertex -4.19376 -19.7302 0
    endloop
  endfacet
  facet normal -0.743145 -0.66913 0
    outer loop
      vertex -12.398 -17.0644 0
      vertex -13.8815 -15.4169 11.303
      vertex -13.8815 -15.4169 0
    endloop
  endfacet
  facet normal -0.743145 -0.66913 0
    outer loop
      vertex -13.8815 -15.4169 11.303
      vertex -12.398 -17.0644 0
      vertex -12.398 -17.0644 11.303
    endloop
  endfacet
  facet normal -0.951055 -0.30902 0
    outer loop
      vertex -14.9899 -13.497 0
      vertex -15.675 -11.3885 11.303
      vertex -15.675 -11.3885 0
    endloop
  endfacet
  facet normal -0.951055 -0.30902 0
    outer loop
      vertex -15.675 -11.3885 11.303
      vertex -14.9899 -13.497 0
      vertex -14.9899 -13.497 11.303
    endloop
  endfacet
  facet normal -0.587788 -0.809015 0
    outer loop
      vertex -12.398 -17.0644 0
      vertex -10.6045 -18.3675 11.303
      vertex -12.398 -17.0644 11.303
    endloop
  endfacet
  facet normal -0.587788 -0.809015 -0
    outer loop
      vertex -10.6045 -18.3675 11.303
      vertex -12.398 -17.0644 0
      vertex -10.6045 -18.3675 0
    endloop
  endfacet
  facet normal 0.40673 -0.913548 0
    outer loop
      vertex -2.02526 -19.2692 0
      vertex 0 -18.3675 11.303
      vertex -2.02526 -19.2692 11.303
    endloop
  endfacet
  facet normal 0.40673 -0.913548 0
    outer loop
      vertex 0 -18.3675 11.303
      vertex -2.02526 -19.2692 0
      vertex 0 -18.3675 0
    endloop
  endfacet
  facet normal -0.994522 -0.104523 0
    outer loop
      vertex -15.675 -11.3885 0
      vertex -15.9067 -9.18377 11.303
      vertex -15.9067 -9.18377 0
    endloop
  endfacet
  facet normal -0.994522 -0.104523 0
    outer loop
      vertex -15.9067 -9.18377 11.303
      vertex -15.675 -11.3885 0
      vertex -15.675 -11.3885 11.303
    endloop
  endfacet
  facet normal -0.866026 -0.499998 0
    outer loop
      vertex -13.8815 -15.4169 0
      vertex -14.9899 -13.497 11.303
      vertex -14.9899 -13.497 0
    endloop
  endfacet
  facet normal -0.866026 -0.499998 0
    outer loop
      vertex -14.9899 -13.497 11.303
      vertex -13.8815 -15.4169 0
      vertex -13.8815 -15.4169 11.303
    endloop
  endfacet
  facet normal 0.866026 -0.499998 0
    outer loop
      vertex 13.8815 -15.4169 11.303
      vertex 14.9899 -13.497 0
      vertex 14.9899 -13.497 11.303
    endloop
  endfacet
  facet normal 0.866026 -0.499998 0
    outer loop
      vertex 14.9899 -13.497 0
      vertex 13.8815 -15.4169 11.303
      vertex 13.8815 -15.4169 0
    endloop
  endfacet
  facet normal 0.743145 -0.66913 0
    outer loop
      vertex 12.398 -17.0644 11.303
      vertex 13.8815 -15.4169 0
      vertex 13.8815 -15.4169 11.303
    endloop
  endfacet
  facet normal 0.743145 -0.66913 0
    outer loop
      vertex 13.8815 -15.4169 0
      vertex 12.398 -17.0644 11.303
      vertex 12.398 -17.0644 0
    endloop
  endfacet
  facet normal 0.406726 -0.91355 0
    outer loop
      vertex 8.5792 -19.2692 0
      vertex 10.6045 -18.3675 11.303
      vertex 8.5792 -19.2692 11.303
    endloop
  endfacet
  facet normal 0.406726 -0.91355 0
    outer loop
      vertex 10.6045 -18.3675 11.303
      vertex 8.5792 -19.2692 0
      vertex 10.6045 -18.3675 0
    endloop
  endfacet
  facet normal 0.994522 -0.104523 0
    outer loop
      vertex 15.675 -11.3885 11.303
      vertex 15.9067 -9.18377 0
      vertex 15.9067 -9.18377 11.303
    endloop
  endfacet
  facet normal 0.994522 -0.104523 0
    outer loop
      vertex 15.9067 -9.18377 0
      vertex 15.675 -11.3885 11.303
      vertex 15.675 -11.3885 0
    endloop
  endfacet
  facet normal 0.587788 -0.809015 0
    outer loop
      vertex 10.6045 -18.3675 0
      vertex 12.398 -17.0644 11.303
      vertex 10.6045 -18.3675 11.303
    endloop
  endfacet
  facet normal 0.587788 -0.809015 0
    outer loop
      vertex 12.398 -17.0644 11.303
      vertex 10.6045 -18.3675 0
      vertex 12.398 -17.0644 0
    endloop
  endfacet
  facet normal 0.20792 -0.978146 0
    outer loop
      vertex 6.4107 -19.7302 0
      vertex 8.5792 -19.2692 11.303
      vertex 6.4107 -19.7302 11.303
    endloop
  endfacet
  facet normal 0.20792 -0.978146 0
    outer loop
      vertex 8.5792 -19.2692 11.303
      vertex 6.4107 -19.7302 0
      vertex 8.5792 -19.2692 0
    endloop
  endfacet
  facet normal -0.40673 -0.913548 0
    outer loop
      vertex 0 -18.3675 0
      vertex 2.02526 -19.2692 11.303
      vertex 0 -18.3675 11.303
    endloop
  endfacet
  facet normal -0.40673 -0.913548 -0
    outer loop
      vertex 2.02526 -19.2692 11.303
      vertex 0 -18.3675 0
      vertex 2.02526 -19.2692 0
    endloop
  endfacet
  facet normal 0.951055 -0.30902 0
    outer loop
      vertex 14.9899 -13.497 11.303
      vertex 15.675 -11.3885 0
      vertex 15.675 -11.3885 11.303
    endloop
  endfacet
  facet normal 0.951055 -0.30902 0
    outer loop
      vertex 15.675 -11.3885 0
      vertex 14.9899 -13.497 11.303
      vertex 14.9899 -13.497 0
    endloop
  endfacet
  facet normal 0 -1 0
    outer loop
      vertex 4.19376 -19.7302 0
      vertex 6.4107 -19.7302 11.303
      vertex 4.19376 -19.7302 11.303
    endloop
  endfacet
  facet normal 0 -1 -0
    outer loop
      vertex 6.4107 -19.7302 11.303
      vertex 4.19376 -19.7302 0
      vertex 6.4107 -19.7302 0
    endloop
  endfacet
  facet normal -0.20792 -0.978146 0
    outer loop
      vertex 2.02526 -19.2692 0
      vertex 4.19376 -19.7302 11.303
      vertex 2.02526 -19.2692 11.303
    endloop
  endfacet
  facet normal -0.20792 -0.978146 -0
    outer loop
      vertex 4.19376 -19.7302 11.303
      vertex 2.02526 -19.2692 0
      vertex 4.19376 -19.7302 0
    endloop
  endfacet
  facet normal -0.866026 -0.5 0
    outer loop
      vertex 10.6045 0 3.175
      vertex 5.30224 9.18377 11.303
      vertex 5.30224 9.18377 3.175
    endloop
  endfacet
  facet normal -0.866026 -0.5 0
    outer loop
      vertex 5.30224 9.18377 11.303
      vertex 10.6045 0 3.175
      vertex 10.6045 0 11.303
    endloop
  endfacet
  facet normal 0.866026 -0.5 0
    outer loop
      vertex -10.6045 0 11.303
      vertex -5.30224 9.18377 3.175
      vertex -5.30224 9.18377 11.303
    endloop
  endfacet
  facet normal 0.866026 -0.5 0
    outer loop
      vertex -5.30224 9.18377 3.175
      vertex -10.6045 0 11.303
      vertex -10.6045 0 3.175
    endloop
  endfacet
  facet normal 0 -1 0
    outer loop
      vertex -5.30224 9.18377 3.175
      vertex 5.30224 9.18377 11.303
      vertex -5.30224 9.18377 11.303
    endloop
  endfacet
  facet normal 0 -1 -0
    outer loop
      vertex 5.30224 9.18377 11.303
      vertex -5.30224 9.18377 3.175
      vertex 5.30224 9.18377 3.175
    endloop
  endfacet
  facet normal 0.866026 0.5 0
    outer loop
      vertex -5.30224 -9.18377 11.303
      vertex -10.6045 0 3.175
      vertex -10.6045 0 11.303
    endloop
  endfacet
  facet normal 0.866026 0.5 0
    outer loop
      vertex -10.6045 0 3.175
      vertex -5.30224 -9.18377 11.303
      vertex -5.30224 -9.18377 3.175
    endloop
  endfacet
  facet normal -0.866026 0.5 0
    outer loop
      vertex 5.30224 -9.18377 3.175
      vertex 10.6045 0 11.303
      vertex 10.6045 0 3.175
    endloop
  endfacet
  facet normal -0.866026 0.5 0
    outer loop
      vertex 10.6045 0 11.303
      vertex 5.30224 -9.18377 3.175
      vertex 5.30224 -9.18377 11.303
    endloop
  endfacet
  facet normal 0 0 1
    outer loop
      vertex 10.6045 0 3.175
      vertex 6.21122 1.32022 3.175
      vertex 6.35 0 3.175
    endloop
  endfacet
  facet normal 0 0 1
    outer loop
      vertex 10.6045 0 3.175
      vertex 5.801 2.58276 3.175
      vertex 6.21122 1.32022 3.175
    endloop
  endfacet
  facet normal 0 0 1
    outer loop
      vertex 5.30224 9.18377 3.175
      vertex 5.801 2.58276 3.175
      vertex 10.6045 0 3.175
    endloop
  endfacet
  facet normal 0 0 1
    outer loop
      vertex 5.30224 9.18377 3.175
      vertex 5.13723 3.73243 3.175
      vertex 5.801 2.58276 3.175
    endloop
  endfacet
  facet normal 0 0 1
    outer loop
      vertex 5.30224 9.18377 3.175
      vertex 4.24897 4.71895 3.175
      vertex 5.13723 3.73243 3.175
    endloop
  endfacet
  facet normal 0 0 1
    outer loop
      vertex 5.30224 9.18377 3.175
      vertex 3.175 5.49925 3.175
      vertex 4.24897 4.71895 3.175
    endloop
  endfacet
  facet normal 0 0 1
    outer loop
      vertex 5.30224 9.18377 3.175
      vertex 1.96223 6.03919 3.175
      vertex 3.175 5.49925 3.175
    endloop
  endfacet
  facet normal 0 0 1
    outer loop
      vertex 5.30224 9.18377 3.175
      vertex 0.663743 6.31519 3.175
      vertex 1.96223 6.03919 3.175
    endloop
  endfacet
  facet normal 0 0 1
    outer loop
      vertex 5.30224 9.18377 3.175
      vertex -0.663743 6.31519 3.175
      vertex 0.663743 6.31519 3.175
    endloop
  endfacet
  facet normal -0 0 1
    outer loop
      vertex -5.30224 9.18377 3.175
      vertex -0.663743 6.31519 3.175
      vertex 5.30224 9.18377 3.175
    endloop
  endfacet
  facet normal 0 0 1
    outer loop
      vertex -0.663743 6.31519 3.175
      vertex -5.30224 9.18377 3.175
      vertex -1.96223 6.03919 3.175
    endloop
  endfacet
  facet normal 0 0 1
    outer loop
      vertex -5.30224 9.18377 3.175
      vertex -3.17498 5.49925 3.175
      vertex -1.96223 6.03919 3.175
    endloop
  endfacet
  facet normal 0 0 1
    outer loop
      vertex -5.30224 9.18377 3.175
      vertex -4.24897 4.71895 3.175
      vertex -3.17498 5.49925 3.175
    endloop
  endfacet
  facet normal 0 0 1
    outer loop
      vertex -5.30224 9.18377 3.175
      vertex -5.13723 3.73243 3.175
      vertex -4.24897 4.71895 3.175
    endloop
  endfacet
  facet normal 0 0 1
    outer loop
      vertex -5.30224 9.18377 3.175
      vertex -5.801 2.58276 3.175
      vertex -5.13723 3.73243 3.175
    endloop
  endfacet
  facet normal 0 0 1
    outer loop
      vertex -10.6045 0 3.175
      vertex -5.801 2.58276 3.175
      vertex -5.30224 9.18377 3.175
    endloop
  endfacet
  facet normal 0 0 1
    outer loop
      vertex -6.21122 1.32022 3.175
      vertex -10.6045 0 3.175
      vertex -6.35 0 3.175
    endloop
  endfacet
  facet normal 0 0 1
    outer loop
      vertex -5.801 2.58276 3.175
      vertex -10.6045 0 3.175
      vertex -6.21122 1.32022 3.175
    endloop
  endfacet
  facet normal 0 0 1
    outer loop
      vertex 6.21122 -1.32022 3.175
      vertex 10.6045 0 3.175
      vertex 6.35 0 3.175
    endloop
  endfacet
  facet normal 0 0 1
    outer loop
      vertex 5.801 -2.58276 3.175
      vertex 10.6045 0 3.175
      vertex 6.21122 -1.32022 3.175
    endloop
  endfacet
  facet normal -0 0 1
    outer loop
      vertex 5.801 -2.58276 3.175
      vertex 5.30224 -9.18377 3.175
      vertex 10.6045 0 3.175
    endloop
  endfacet
  facet normal -0 0 1
    outer loop
      vertex 5.13723 -3.73243 3.175
      vertex 5.30224 -9.18377 3.175
      vertex 5.801 -2.58276 3.175
    endloop
  endfacet
  facet normal -0 0 1
    outer loop
      vertex 4.24897 -4.71895 3.175
      vertex 5.30224 -9.18377 3.175
      vertex 5.13723 -3.73243 3.175
    endloop
  endfacet
  facet normal -0 0 1
    outer loop
      vertex 3.175 -5.49925 3.175
      vertex 5.30224 -9.18377 3.175
      vertex 4.24897 -4.71895 3.175
    endloop
  endfacet
  facet normal -0 0 1
    outer loop
      vertex 1.96223 -6.03919 3.175
      vertex 5.30224 -9.18377 3.175
      vertex 3.175 -5.49925 3.175
    endloop
  endfacet
  facet normal -0 0 1
    outer loop
      vertex 0.663743 -6.31519 3.175
      vertex 5.30224 -9.18377 3.175
      vertex 1.96223 -6.03919 3.175
    endloop
  endfacet
  facet normal -0 0 1
    outer loop
      vertex -0.663743 -6.31519 3.175
      vertex 5.30224 -9.18377 3.175
      vertex 0.663743 -6.31519 3.175
    endloop
  endfacet
  facet normal 0 0 1
    outer loop
      vertex -5.30224 -9.18377 3.175
      vertex -0.663743 -6.31519 3.175
      vertex -1.96223 -6.03919 3.175
    endloop
  endfacet
  facet normal 0 0 1
    outer loop
      vertex -0.663743 -6.31519 3.175
      vertex -5.30224 -9.18377 3.175
      vertex 5.30224 -9.18377 3.175
    endloop
  endfacet
  facet normal 0 0 1
    outer loop
      vertex -3.175 -5.49925 3.175
      vertex -5.30224 -9.18377 3.175
      vertex -1.96223 -6.03919 3.175
    endloop
  endfacet
  facet normal 0 0 1
    outer loop
      vertex -4.24897 -4.71895 3.175
      vertex -5.30224 -9.18377 3.175
      vertex -3.175 -5.49925 3.175
    endloop
  endfacet
  facet normal 0 0 1
    outer loop
      vertex -5.13723 -3.73243 3.175
      vertex -5.30224 -9.18377 3.175
      vertex -4.24897 -4.71895 3.175
    endloop
  endfacet
  facet normal 0 0 1
    outer loop
      vertex -5.801 -2.58276 3.175
      vertex -5.30224 -9.18377 3.175
      vertex -5.13723 -3.73243 3.175
    endloop
  endfacet
  facet normal 0 0 1
    outer loop
      vertex -10.6045 0 3.175
      vertex -5.801 -2.58276 3.175
      vertex -6.21122 -1.32022 3.175
    endloop
  endfacet
  facet normal 0 0 1
    outer loop
      vertex -5.801 -2.58276 3.175
      vertex -10.6045 0 3.175
      vertex -5.30224 -9.18377 3.175
    endloop
  endfacet
  facet normal -0 0 1
    outer loop
      vertex -10.6045 0 3.175
      vertex -6.21122 -1.32022 3.175
      vertex -6.35 0 3.175
    endloop
  endfacet
  facet normal 0 1 -0
    outer loop
      vertex 5.30224 -9.18377 3.175
      vertex -5.30224 -9.18377 11.303
      vertex 5.30224 -9.18377 11.303
    endloop
  endfacet
  facet normal 0 1 0
    outer loop
      vertex -5.30224 -9.18377 11.303
      vertex 5.30224 -9.18377 3.175
      vertex -5.30224 -9.18377 3.175
    endloop
  endfacet
  facet normal -0.994521 -0.104539 0
    outer loop
      vertex 6.35 0 0
      vertex 6.21122 1.32022 3.175
      vertex 6.21122 1.32022 0
    endloop
  endfacet
  facet normal -0.994521 -0.104539 0
    outer loop
      vertex 6.21122 1.32022 3.175
      vertex 6.35 0 0
      vertex 6.35 0 3.175
    endloop
  endfacet
  facet normal 0.994521 -0.104539 0
    outer loop
      vertex -6.35 0 3.175
      vertex -6.21122 1.32022 0
      vertex -6.21122 1.32022 3.175
    endloop
  endfacet
  facet normal 0.994521 -0.104539 0
    outer loop
      vertex -6.21122 1.32022 0
      vertex -6.35 0 3.175
      vertex -6.35 0 0
    endloop
  endfacet
  facet normal 0 -1 0
    outer loop
      vertex -0.663743 6.31519 0
      vertex 0.663743 6.31519 3.175
      vertex -0.663743 6.31519 3.175
    endloop
  endfacet
  facet normal 0 -1 -0
    outer loop
      vertex 0.663743 6.31519 3.175
      vertex -0.663743 6.31519 0
      vertex 0.663743 6.31519 0
    endloop
  endfacet
  facet normal -0.587797 -0.809008 0
    outer loop
      vertex 3.175 5.49925 0
      vertex 4.24897 4.71895 3.175
      vertex 3.175 5.49925 3.175
    endloop
  endfacet
  facet normal -0.587797 -0.809008 -0
    outer loop
      vertex 4.24897 4.71895 3.175
      vertex 3.175 5.49925 0
      vertex 4.24897 4.71895 0
    endloop
  endfacet
  facet normal 0.587789 -0.809015 0
    outer loop
      vertex -4.24897 4.71895 0
      vertex -3.17498 5.49925 3.175
      vertex -4.24897 4.71895 3.175
    endloop
  endfacet
  facet normal 0.587789 -0.809015 0
    outer loop
      vertex -3.17498 5.49925 3.175
      vertex -4.24897 4.71895 0
      vertex -3.17498 5.49925 0
    endloop
  endfacet
  facet normal 0.406731 -0.913548 0
    outer loop
      vertex -3.17498 5.49925 0
      vertex -1.96223 6.03919 3.175
      vertex -3.17498 5.49925 3.175
    endloop
  endfacet
  facet normal 0.406731 -0.913548 0
    outer loop
      vertex -1.96223 6.03919 3.175
      vertex -3.17498 5.49925 0
      vertex -1.96223 6.03919 0
    endloop
  endfacet
  facet normal -0.866022 -0.500005 0
    outer loop
      vertex 5.801 2.58276 0
      vertex 5.13723 3.73243 3.175
      vertex 5.13723 3.73243 0
    endloop
  endfacet
  facet normal -0.866022 -0.500005 0
    outer loop
      vertex 5.13723 3.73243 3.175
      vertex 5.801 2.58276 0
      vertex 5.801 2.58276 3.175
    endloop
  endfacet
  facet normal -0.951057 -0.309015 0
    outer loop
      vertex 6.21122 1.32022 0
      vertex 5.801 2.58276 3.175
      vertex 5.801 2.58276 0
    endloop
  endfacet
  facet normal -0.951057 -0.309015 0
    outer loop
      vertex 5.801 2.58276 3.175
      vertex 6.21122 1.32022 0
      vertex 6.21122 1.32022 3.175
    endloop
  endfacet
  facet normal -0.743144 -0.669132 0
    outer loop
      vertex 5.13723 3.73243 0
      vertex 4.24897 4.71895 3.175
      vertex 4.24897 4.71895 0
    endloop
  endfacet
  facet normal -0.743144 -0.669132 0
    outer loop
      vertex 4.24897 4.71895 3.175
      vertex 5.13723 3.73243 0
      vertex 5.13723 3.73243 3.175
    endloop
  endfacet
  facet normal -0.20791 -0.978148 0
    outer loop
      vertex 0.663743 6.31519 0
      vertex 1.96223 6.03919 3.175
      vertex 0.663743 6.31519 3.175
    endloop
  endfacet
  facet normal -0.20791 -0.978148 -0
    outer loop
      vertex 1.96223 6.03919 3.175
      vertex 0.663743 6.31519 0
      vertex 1.96223 6.03919 0
    endloop
  endfacet
  facet normal -0.406724 -0.913551 0
    outer loop
      vertex 1.96223 6.03919 0
      vertex 3.175 5.49925 3.175
      vertex 1.96223 6.03919 3.175
    endloop
  endfacet
  facet normal -0.406724 -0.913551 -0
    outer loop
      vertex 3.175 5.49925 3.175
      vertex 1.96223 6.03919 0
      vertex 3.175 5.49925 0
    endloop
  endfacet
  facet normal 0.866022 -0.500005 0
    outer loop
      vertex -5.801 2.58276 3.175
      vertex -5.13723 3.73243 0
      vertex -5.13723 3.73243 3.175
    endloop
  endfacet
  facet normal 0.866022 -0.500005 0
    outer loop
      vertex -5.13723 3.73243 0
      vertex -5.801 2.58276 3.175
      vertex -5.801 2.58276 0
    endloop
  endfacet
  facet normal 0.743144 -0.669132 0
    outer loop
      vertex -5.13723 3.73243 3.175
      vertex -4.24897 4.71895 0
      vertex -4.24897 4.71895 3.175
    endloop
  endfacet
  facet normal 0.743144 -0.669132 0
    outer loop
      vertex -4.24897 4.71895 0
      vertex -5.13723 3.73243 3.175
      vertex -5.13723 3.73243 0
    endloop
  endfacet
  facet normal 0.951057 -0.309015 0
    outer loop
      vertex -6.21122 1.32022 3.175
      vertex -5.801 2.58276 0
      vertex -5.801 2.58276 3.175
    endloop
  endfacet
  facet normal 0.951057 -0.309015 0
    outer loop
      vertex -5.801 2.58276 0
      vertex -6.21122 1.32022 3.175
      vertex -6.21122 1.32022 0
    endloop
  endfacet
  facet normal 0.20791 -0.978148 0
    outer loop
      vertex -1.96223 6.03919 0
      vertex -0.663743 6.31519 3.175
      vertex -1.96223 6.03919 3.175
    endloop
  endfacet
  facet normal 0.20791 -0.978148 0
    outer loop
      vertex -0.663743 6.31519 3.175
      vertex -1.96223 6.03919 0
      vertex -0.663743 6.31519 0
    endloop
  endfacet
  facet normal -0.994521 0.104539 0
    outer loop
      vertex 6.21122 -1.32022 0
      vertex 6.35 0 3.175
      vertex 6.35 0 0
    endloop
  endfacet
  facet normal -0.994521 0.104539 0
    outer loop
      vertex 6.35 0 3.175
      vertex 6.21122 -1.32022 0
      vertex 6.21122 -1.32022 3.175
    endloop
  endfacet
  facet normal 0.20791 0.978148 -0
    outer loop
      vertex -0.663743 -6.31519 0
      vertex -1.96223 -6.03919 3.175
      vertex -0.663743 -6.31519 3.175
    endloop
  endfacet
  facet normal 0.20791 0.978148 0
    outer loop
      vertex -1.96223 -6.03919 3.175
      vertex -0.663743 -6.31519 0
      vertex -1.96223 -6.03919 0
    endloop
  endfacet
  facet normal -0.743144 0.669132 0
    outer loop
      vertex 4.24897 -4.71895 0
      vertex 5.13723 -3.73243 3.175
      vertex 5.13723 -3.73243 0
    endloop
  endfacet
  facet normal -0.743144 0.669132 0
    outer loop
      vertex 5.13723 -3.73243 3.175
      vertex 4.24897 -4.71895 0
      vertex 4.24897 -4.71895 3.175
    endloop
  endfacet
  facet normal -0.951057 0.309015 0
    outer loop
      vertex 5.801 -2.58276 0
      vertex 6.21122 -1.32022 3.175
      vertex 6.21122 -1.32022 0
    endloop
  endfacet
  facet normal -0.951057 0.309015 0
    outer loop
      vertex 6.21122 -1.32022 3.175
      vertex 5.801 -2.58276 0
      vertex 5.801 -2.58276 3.175
    endloop
  endfacet
  facet normal -0.866022 0.500005 0
    outer loop
      vertex 5.13723 -3.73243 0
      vertex 5.801 -2.58276 3.175
      vertex 5.801 -2.58276 0
    endloop
  endfacet
  facet normal -0.866022 0.500005 0
    outer loop
      vertex 5.801 -2.58276 3.175
      vertex 5.13723 -3.73243 0
      vertex 5.13723 -3.73243 3.175
    endloop
  endfacet
  facet normal 0.866022 0.500005 0
    outer loop
      vertex -5.13723 -3.73243 3.175
      vertex -5.801 -2.58276 0
      vertex -5.801 -2.58276 3.175
    endloop
  endfacet
  facet normal 0.866022 0.500005 0
    outer loop
      vertex -5.801 -2.58276 0
      vertex -5.13723 -3.73243 3.175
      vertex -5.13723 -3.73243 0
    endloop
  endfacet
  facet normal 0.994521 0.104539 0
    outer loop
      vertex -6.21122 -1.32022 3.175
      vertex -6.35 0 0
      vertex -6.35 0 3.175
    endloop
  endfacet
  facet normal 0.994521 0.104539 0
    outer loop
      vertex -6.35 0 0
      vertex -6.21122 -1.32022 3.175
      vertex -6.21122 -1.32022 0
    endloop
  endfacet
  facet normal 0.951057 0.309015 0
    outer loop
      vertex -5.801 -2.58276 3.175
      vertex -6.21122 -1.32022 0
      vertex -6.21122 -1.32022 3.175
    endloop
  endfacet
  facet normal 0.951057 0.309015 0
    outer loop
      vertex -6.21122 -1.32022 0
      vertex -5.801 -2.58276 3.175
      vertex -5.801 -2.58276 0
    endloop
  endfacet
  facet normal -0.20791 0.978148 0
    outer loop
      vertex 1.96223 -6.03919 0
      vertex 0.663743 -6.31519 3.175
      vertex 1.96223 -6.03919 3.175
    endloop
  endfacet
  facet normal -0.20791 0.978148 0
    outer loop
      vertex 0.663743 -6.31519 3.175
      vertex 1.96223 -6.03919 0
      vertex 0.663743 -6.31519 0
    endloop
  endfacet
  facet normal -0.587797 0.809008 0
    outer loop
      vertex 4.24897 -4.71895 0
      vertex 3.175 -5.49925 3.175
      vertex 4.24897 -4.71895 3.175
    endloop
  endfacet
  facet normal -0.587797 0.809008 0
    outer loop
      vertex 3.175 -5.49925 3.175
      vertex 4.24897 -4.71895 0
      vertex 3.175 -5.49925 0
    endloop
  endfacet
  facet normal 0 1 -0
    outer loop
      vertex 0.663743 -6.31519 0
      vertex -0.663743 -6.31519 3.175
      vertex 0.663743 -6.31519 3.175
    endloop
  endfacet
  facet normal 0 1 0
    outer loop
      vertex -0.663743 -6.31519 3.175
      vertex 0.663743 -6.31519 0
      vertex -0.663743 -6.31519 0
    endloop
  endfacet
  facet normal 0.587797 0.809008 -0
    outer loop
      vertex -3.175 -5.49925 0
      vertex -4.24897 -4.71895 3.175
      vertex -3.175 -5.49925 3.175
    endloop
  endfacet
  facet normal 0.587797 0.809008 0
    outer loop
      vertex -4.24897 -4.71895 3.175
      vertex -3.175 -5.49925 0
      vertex -4.24897 -4.71895 0
    endloop
  endfacet
  facet normal 0.406724 0.913551 -0
    outer loop
      vertex -1.96223 -6.03919 0
      vertex -3.175 -5.49925 3.175
      vertex -1.96223 -6.03919 3.175
    endloop
  endfacet
  facet normal 0.406724 0.913551 0
    outer loop
      vertex -3.175 -5.49925 3.175
      vertex -1.96223 -6.03919 0
      vertex -3.175 -5.49925 0
    endloop
  endfacet
  facet normal 0.743144 0.669132 0
    outer loop
      vertex -4.24897 -4.71895 3.175
      vertex -5.13723 -3.73243 0
      vertex -5.13723 -3.73243 3.175
    endloop
  endfacet
  facet normal 0.743144 0.669132 0
    outer loop
      vertex -5.13723 -3.73243 0
      vertex -4.24897 -4.71895 3.175
      vertex -4.24897 -4.71895 0
    endloop
  endfacet
  facet normal -0.406724 0.913551 0
    outer loop
      vertex 3.175 -5.49925 0
      vertex 1.96223 -6.03919 3.175
      vertex 3.175 -5.49925 3.175
    endloop
  endfacet
  facet normal -0.406724 0.913551 0
    outer loop
      vertex 1.96223 -6.03919 3.175
      vertex 3.175 -5.49925 0
      vertex 1.96223 -6.03919 0
    endloop
  endfacet
endsolid OpenSCAD_Model
