<?xml version="1.0" encoding="UTF-8" standalone="no"?>
<!-- Created with Inkscape (http://www.inkscape.org/) -->

<svg
   xmlns:dc="http://purl.org/dc/elements/1.1/"
   xmlns:cc="http://creativecommons.org/ns#"
   xmlns:rdf="http://www.w3.org/1999/02/22-rdf-syntax-ns#"
   xmlns:svg="http://www.w3.org/2000/svg"
   xmlns="http://www.w3.org/2000/svg"
   xmlns:sodipodi="http://sodipodi.sourceforge.net/DTD/sodipodi-0.dtd"
   xmlns:inkscape="http://www.inkscape.org/namespaces/inkscape"
   id="svg4155"
   version="1.1"
   inkscape:version="0.91 r13725"
   xml:space="preserve"
   width="270"
   height="135"
   viewBox="0 0 270 135"
   sodipodi:docname="Motor Controller Faceplate.ai.svg"><metadata
     id="metadata4161"><rdf:RDF><cc:Work
         rdf:about=""><dc:format>image/svg+xml</dc:format><dc:type
           rdf:resource="http://purl.org/dc/dcmitype/StillImage" /><dc:title></dc:title></cc:Work></rdf:RDF></metadata><defs
     id="defs4159"><clipPath
       clipPathUnits="userSpaceOnUse"
       id="clipPath4169"><path
         d="M 0,108 216,108 216,0 0,0 0,108 Z"
         id="path4171"
         inkscape:connector-curvature="0" /></clipPath></defs><sodipodi:namedview
     pagecolor="#ffffff"
     bordercolor="#666666"
     borderopacity="1"
     objecttolerance="10"
     gridtolerance="10"
     guidetolerance="10"
     inkscape:pageopacity="0"
     inkscape:pageshadow="2"
     inkscape:window-width="1920"
     inkscape:window-height="999"
     id="namedview4157"
     showgrid="false"
     inkscape:zoom="5.3111111"
     inkscape:cx="135"
     inkscape:cy="67.5"
     inkscape:window-x="0"
     inkscape:window-y="24"
     inkscape:window-maximized="1"
     inkscape:current-layer="g4163" /><g
     id="g4163"
     inkscape:groupmode="layer"
     inkscape:label="Motor Controller Faceplate"
     transform="matrix(1.25,0,0,-1.25,0,135)"><g
       id="g4165"
       style="stroke-width:0.08;stroke-miterlimit:4;stroke-dasharray:none"><g
         id="g4167"
         clip-path="url(#clipPath4169)"
         style="stroke-width:0.08;stroke-miterlimit:4;stroke-dasharray:none"><g
           id="g4173"
           transform="translate(207,0)"
           style="stroke-width:0.08;stroke-miterlimit:4;stroke-dasharray:none"><path
             d="m 0,0 -198,0 c -4.95,0 -9,4.05 -9,9 l 0,90 c 0,4.95 4.05,9 9,9 l 198,0 c 4.95,0 9,-4.05 9,-9 L 9,9 C 9,4.05 4.95,0 0,0 Z"
             style="fill:none;stroke:#ff0000;stroke-width:0.08;stroke-linecap:butt;stroke-linejoin:miter;stroke-miterlimit:4;stroke-dasharray:none;stroke-opacity:1"
             id="path4175"
             inkscape:connector-curvature="0" /></g><g
           id="g4177"
           transform="translate(17.884,12.124)"
           style="stroke-width:0.08;stroke-miterlimit:4;stroke-dasharray:none"><path
             d="m 0,0 c 0,-3.181 -2.579,-5.76 -5.76,-5.76 -3.181,0 -5.76,2.579 -5.76,5.76 0,3.181 2.579,5.76 5.76,5.76 C -2.579,5.76 0,3.181 0,0 Z"
             style="fill:none;stroke:#ff0000;stroke-width:0.08;stroke-linecap:butt;stroke-linejoin:miter;stroke-miterlimit:4;stroke-dasharray:none;stroke-opacity:1"
             id="path4179"
             inkscape:connector-curvature="0" /></g><g
           id="g4181"
           transform="translate(203.876,17.884)"
           style="stroke-width:0.08;stroke-miterlimit:4;stroke-dasharray:none"><path
             d="m 0,0 c 3.181,0 5.76,-2.579 5.76,-5.76 0,-3.181 -2.579,-5.76 -5.76,-5.76 -3.181,0 -5.76,2.579 -5.76,5.76 C -5.76,-2.579 -3.181,0 0,0 Z"
             style="fill:none;stroke:#ff0000;stroke-width:0.08;stroke-linecap:butt;stroke-linejoin:miter;stroke-miterlimit:4;stroke-dasharray:none;stroke-opacity:1"
             id="path4183"
             inkscape:connector-curvature="0" /></g><g
           id="g4185"
           transform="translate(198.116,95.876)"
           style="stroke-width:0.08;stroke-miterlimit:4;stroke-dasharray:none"><path
             d="M 0,0 C 0,3.181 2.579,5.76 5.76,5.76 8.941,5.76 11.52,3.181 11.52,0 11.52,-3.181 8.941,-5.76 5.76,-5.76 2.579,-5.76 0,-3.181 0,0 Z"
             style="fill:none;stroke:#ff0000;stroke-width:0.08;stroke-linecap:butt;stroke-linejoin:miter;stroke-miterlimit:4;stroke-dasharray:none;stroke-opacity:1"
             id="path4187"
             inkscape:connector-curvature="0" /></g><g
           id="g4189"
           transform="translate(12.124,90.116)"
           style="stroke-width:0.08;stroke-miterlimit:4;stroke-dasharray:none"><path
             d="m 0,0 c -3.181,0 -5.76,2.579 -5.76,5.76 0,3.181 2.579,5.76 5.76,5.76 3.181,0 5.76,-2.579 5.76,-5.76 C 5.76,2.579 3.181,0 0,0 Z"
             style="fill:none;stroke:#ff0000;stroke-width:0.08;stroke-linecap:butt;stroke-linejoin:miter;stroke-miterlimit:4;stroke-dasharray:none;stroke-opacity:1"
             id="path4191"
             inkscape:connector-curvature="0" /></g><g
           id="g4193"
           transform="translate(70.9358,54)"
           style="stroke-width:0.08;stroke-miterlimit:4;stroke-dasharray:none"><path
             d="m 0,0 c 0,-9.146 -7.414,-16.56 -16.56,-16.56 -9.146,0 -16.56,7.414 -16.56,16.56 0,9.146 7.414,16.56 16.56,16.56 C -7.414,16.56 0,9.146 0,0 Z"
             style="fill:none;stroke:#ff0000;stroke-width:0.08;stroke-linecap:butt;stroke-linejoin:miter;stroke-miterlimit:4;stroke-dasharray:none;stroke-opacity:1"
             id="path4195"
             inkscape:connector-curvature="0" /></g><g
           id="g4197"
           transform="translate(172.0958,54)"
           style="stroke-width:0.08;stroke-miterlimit:4;stroke-dasharray:none"><path
             d="m 0,0 c 0,-5.368 -4.352,-9.72 -9.72,-9.72 -5.368,0 -9.72,4.352 -9.72,9.72 0,5.368 4.352,9.72 9.72,9.72 C -4.352,9.72 0,5.368 0,0 Z"
             style="fill:none;stroke:#ff0000;stroke-width:0.08;stroke-linecap:butt;stroke-linejoin:miter;stroke-miterlimit:4;stroke-dasharray:none;stroke-opacity:1"
             id="path4199"
             inkscape:connector-curvature="0" /></g><g
           id="g4201"
           transform="translate(116.1158,54)"
           style="stroke-width:0.08;stroke-miterlimit:4;stroke-dasharray:none"><path
             d="m 0,0 c 0,-2.386 -1.934,-4.32 -4.32,-4.32 -2.386,0 -4.32,1.934 -4.32,4.32 0,2.386 1.934,4.32 4.32,4.32 C -1.934,4.32 0,2.386 0,0 Z"
             style="fill:none;stroke:#ff0000;stroke-width:0.08;stroke-linecap:butt;stroke-linejoin:miter;stroke-miterlimit:4;stroke-dasharray:none;stroke-opacity:1"
             id="path4203"
             inkscape:connector-curvature="0" /></g></g></g><text
       transform="matrix(1,0,0,-1,42.6665,21.334)"
       style="font-variant:normal;font-weight:normal;font-stretch:normal;font-size:12px;font-family:'Mongolian Baiti';-inkscape-font-specification:MongolianBaiti;writing-mode:lr-tb;fill:#000000;fill-opacity:1;fill-rule:nonzero;stroke:none;stroke-width:0.08;stroke-miterlimit:4;stroke-dasharray:none"
       id="text4205"><tspan
         x="0 8.6639996 15.336"
         y="0"
         sodipodi:role="line"
         id="tspan4207">OFF</tspan><tspan
         x="3.336 12"
         y="-56.004002"
         sodipodi:role="line"
         id="tspan4209">ON</tspan><tspan
         x="105.336 112.668 120 130.668"
         y="0"
         sodipodi:role="line"
         id="tspan4211">TEMP</tspan></text>
</g></svg>