<?xml version="1.0" encoding="UTF-8" standalone="no"?>
<!-- Created with Inkscape (http://www.inkscape.org/) -->

<svg
   xmlns:dc="http://purl.org/dc/elements/1.1/"
   xmlns:cc="http://creativecommons.org/ns#"
   xmlns:rdf="http://www.w3.org/1999/02/22-rdf-syntax-ns#"
   xmlns:svg="http://www.w3.org/2000/svg"
   xmlns="http://www.w3.org/2000/svg"
   xmlns:sodipodi="http://sodipodi.sourceforge.net/DTD/sodipodi-0.dtd"
   xmlns:inkscape="http://www.inkscape.org/namespaces/inkscape"
   id="svg4155"
   version="1.1"
   inkscape:version="0.91 r13725"
   xml:space="preserve"
   width="868.81873"
   height="383.38626"
   viewBox="0 0 868.81873 383.38626"
   sodipodi:docname="PWM Motor Controller Case.ai.svg"><metadata
     id="metadata4161"><rdf:RDF><cc:Work
         rdf:about=""><dc:format>image/svg+xml</dc:format><dc:type
           rdf:resource="http://purl.org/dc/dcmitype/StillImage" /><dc:title></dc:title></cc:Work></rdf:RDF></metadata><defs
     id="defs4159"><clipPath
       clipPathUnits="userSpaceOnUse"
       id="clipPath4201"><path
         d="m 0,0 695.055,0 0,306.709 L 0,306.709 0,0 Z"
         id="path4203"
         inkscape:connector-curvature="0" /></clipPath><clipPath
       clipPathUnits="userSpaceOnUse"
       id="clipPath4235"><path
         d="m 0,306.709 695.055,0 L 695.055,0 0,0 0,306.709 Z"
         id="path4237"
         inkscape:connector-curvature="0" /></clipPath></defs><sodipodi:namedview
     pagecolor="#ffffff"
     bordercolor="#666666"
     borderopacity="1"
     objecttolerance="10"
     gridtolerance="10"
     guidetolerance="10"
     inkscape:pageopacity="0"
     inkscape:pageshadow="2"
     inkscape:window-width="1920"
     inkscape:window-height="999"
     id="namedview4157"
     showgrid="false"
     inkscape:zoom="1.6505169"
     inkscape:cx="434.40936"
     inkscape:cy="191.69313"
     inkscape:window-x="0"
     inkscape:window-y="24"
     inkscape:window-maximized="1"
     inkscape:current-layer="g4163" /><g
     id="g4163"
     inkscape:groupmode="layer"
     inkscape:label="PWM Motor Controller Case"
     transform="matrix(1.25,0,0,-1.25,0,383.38625)"><g
       id="g4165"
       transform="translate(18,288.7085)"
       style="stroke-width:0.08;stroke-miterlimit:4;stroke-dasharray:none"><path
         d="m 0,0 27.992,0 0,-14.173 27.992,0 0,14.173 19.843,0 0,-14.173 19.842,0 0,14.173 19.843,0 0,-14.173 19.842,0 0,14.173 19.843,0 0,-14.173 19.842,0 0,14.173 19.843,0 0,-14.173 27.992,0 0,14.173 27.992,0 0,-22.677 -14.173,0 0,-22.677 14.173,0 0,-22.677 -14.173,0 0,-22.678 14.173,0 0,-22.677 -27.992,0 0,14.173 -27.992,0 0,-14.173 -19.843,0 0,14.173 -19.842,0 0,-14.173 -19.843,0 0,14.173 -19.842,0 0,-14.173 -19.843,0 0,14.173 -19.842,0 0,-14.173 -19.843,0 0,14.173 -27.992,0 0,-14.173 -27.992,0 0,22.677 14.173,0 0,22.678 -14.173,0 0,22.677 14.173,0 0,22.677 L 0,-22.677 0,0 Z"
         style="fill:none;stroke:#ff0000;stroke-width:0.08;stroke-linecap:butt;stroke-linejoin:miter;stroke-miterlimit:4;stroke-dasharray:none;stroke-opacity:1"
         id="path4167"
         inkscape:connector-curvature="0" /></g><g
       id="g4169"
       transform="translate(268.8662,288.7085)"
       style="stroke-width:0.08;stroke-miterlimit:4;stroke-dasharray:none"><path
         d="m 0,0 27.992,0 0,-14.173 27.992,0 0,14.173 19.843,0 0,-14.173 19.842,0 0,14.173 19.843,0 0,-14.173 19.842,0 0,14.173 19.843,0 0,-14.173 19.842,0 0,14.173 19.843,0 0,-14.173 27.992,0 0,14.173 27.992,0 0,-22.677 -14.174,0 0,-22.677 14.174,0 0,-22.677 -14.174,0 0,-22.678 14.174,0 0,-22.677 -27.992,0 0,14.173 -27.992,0 0,-14.173 -19.843,0 0,14.173 -19.842,0 0,-14.173 -19.843,0 0,14.173 -19.842,0 0,-14.173 -19.843,0 0,14.173 -19.842,0 0,-14.173 -19.843,0 0,14.173 -27.992,0 0,-14.173 -27.992,0 0,22.677 14.173,0 0,22.678 -14.173,0 0,22.677 14.173,0 0,22.677 L 0,-22.677 0,0 Z"
         style="fill:none;stroke:#ff0000;stroke-width:0.08;stroke-linecap:butt;stroke-linejoin:miter;stroke-miterlimit:4;stroke-dasharray:none;stroke-opacity:1"
         id="path4171"
         inkscape:connector-curvature="0" /></g><g
       id="g4173"
       transform="translate(533.9053,288.7085)"
       style="stroke-width:0.08;stroke-miterlimit:4;stroke-dasharray:none"><path
         d="m 0,0 20.197,0 0,-14.173 34.37,0 0,14.173 19.842,0 0,-14.173 34.371,0 0,14.173 20.197,0 0,-22.677 14.173,0 0,-22.677 -14.173,0 0,-22.677 14.173,0 0,-22.678 -14.173,0 0,-22.677 -20.197,0 0,14.173 -34.371,0 0,-14.173 -19.842,0 0,14.173 -34.37,0 0,-14.173 -20.197,0 0,22.677 -14.173,0 0,22.678 14.173,0 0,22.677 -14.173,0 0,22.677 14.173,0 L 0,0 Z"
         style="fill:none;stroke:#ff0000;stroke-width:0.08;stroke-linecap:butt;stroke-linejoin:miter;stroke-miterlimit:4;stroke-dasharray:none;stroke-opacity:1"
         id="path4175"
         inkscape:connector-curvature="0" /></g><g
       id="g4177"
       transform="translate(533.9053,175.3228)"
       style="stroke-width:0.08;stroke-miterlimit:4;stroke-dasharray:none"><path
         d="m 0,0 20.197,0 0,-14.173 34.37,0 0,14.173 19.842,0 0,-14.173 34.371,0 0,14.173 20.197,0 0,-22.677 14.173,0 0,-22.677 -14.173,0 0,-22.677 14.173,0 0,-22.677 -14.173,0 0,-22.678 -20.197,0 0,14.173 -34.371,0 0,-14.173 -19.842,0 0,14.173 -34.37,0 0,-14.173 -20.197,0 0,22.678 -14.173,0 0,22.677 14.173,0 0,22.677 -14.173,0 0,22.677 14.173,0 L 0,0 Z"
         style="fill:none;stroke:#ff0000;stroke-width:0.08;stroke-linecap:butt;stroke-linejoin:miter;stroke-miterlimit:4;stroke-dasharray:none;stroke-opacity:1"
         id="path4179"
         inkscape:connector-curvature="0" /></g><g
       id="g4181"
       transform="translate(32.1733,161.1494)"
       style="stroke-width:0.08;stroke-miterlimit:4;stroke-dasharray:none"><path
         d="m 0,0 13.819,0 0,14.173 27.992,0 0,-14.173 19.843,0 0,14.173 19.842,0 0,-14.173 19.843,0 0,14.173 19.842,0 0,-14.173 19.843,0 0,14.173 19.842,0 0,-14.173 19.843,0 0,14.173 27.992,0 0,-14.173 13.819,0 0,-20.197 14.173,0 0,-34.369 -14.173,0 0,-19.843 14.173,0 0,-34.371 -14.173,0 0,-20.196 -13.819,0 0,-14.173 -27.992,0 0,14.173 -19.843,0 0,-14.173 -19.842,0 0,14.173 -19.843,0 0,-14.173 -19.842,0 0,14.173 -19.843,0 0,-14.173 -19.842,0 0,14.173 -19.843,0 0,-14.173 -27.992,0 0,14.173 -13.819,0 0,20.196 -14.173,0 0,34.371 14.173,0 0,19.843 -14.173,0 0,34.369 14.173,0 L 0,0 Z"
         style="fill:none;stroke:#ff0000;stroke-width:0.08;stroke-linecap:butt;stroke-linejoin:miter;stroke-miterlimit:4;stroke-dasharray:none;stroke-opacity:1"
         id="path4183"
         inkscape:connector-curvature="0" /></g><g
       id="g4185"
       transform="translate(283.0391,161.1494)"
       style="stroke-width:0.08;stroke-miterlimit:4;stroke-dasharray:none"><path
         d="m 0,0 13.819,0 0,14.173 27.992,0 0,-14.173 19.843,0 0,14.173 19.842,0 0,-14.173 19.843,0 0,14.173 19.843,0 0,-14.173 19.842,0 0,14.173 19.842,0 0,-14.173 19.843,0 0,14.173 27.992,0 0,-14.173 13.82,0 0,-20.197 14.172,0 0,-34.369 -14.172,0 0,-19.843 14.172,0 0,-34.371 -14.172,0 0,-20.196 -13.82,0 0,-14.173 -27.992,0 0,14.173 -19.843,0 0,-14.173 -19.842,0 0,14.173 -19.842,0 0,-14.173 -19.843,0 0,14.173 -19.843,0 0,-14.173 -19.842,0 0,14.173 -19.843,0 0,-14.173 -27.992,0 0,14.173 -13.819,0 0,20.196 -14.173,0 0,34.371 14.173,0 0,19.843 -14.173,0 0,34.369 14.173,0 L 0,0 Z"
         style="fill:none;stroke:#ff0000;stroke-width:0.08;stroke-linecap:butt;stroke-linejoin:miter;stroke-miterlimit:4;stroke-dasharray:none;stroke-opacity:1"
         id="path4187"
         inkscape:connector-curvature="0" /></g><path
       d="m 648,101.622 -99.213,0 0,25.512 99.213,0 0,-25.512 z"
       style="fill:none;stroke:#ff0000;stroke-width:0.08;stroke-linecap:butt;stroke-linejoin:miter;stroke-miterlimit:4;stroke-dasharray:none;stroke-opacity:1"
       id="path4189"
       inkscape:connector-curvature="0" /><text
       transform="matrix(1,0,0,-1,548.7871,85.709)"
       style="font-variant:normal;font-weight:normal;font-stretch:normal;font-size:10px;font-family:Perpetua;-inkscape-font-specification:Perpetua;writing-mode:lr-tb;fill:#000000;fill-opacity:1;fill-rule:nonzero;stroke:none;stroke-width:0.08;stroke-miterlimit:4;stroke-dasharray:none"
       id="text4191"><tspan
         x="0 3.1300001 6.3899999 15.56 18.16 24.1 29.200001 31.450001 38.119999 56.119999 59.25 61.5 66.510002 73.110001 82.279999 87.379997 93.32 95.57"
         y="0"
         sodipodi:role="line"
         id="tspan4193">- WIRE + - POWER +</tspan></text>
<path
       d="m 495.638,47.055 -34.016,0 0,99.213 34.016,0 0,-99.213 z"
       style="fill:none;stroke:#ff0000;stroke-width:0.08;stroke-linecap:butt;stroke-linejoin:miter;stroke-miterlimit:4;stroke-dasharray:none;stroke-opacity:1"
       id="path4195"
       inkscape:connector-curvature="0" /><g
       id="g4197"
       style="stroke-width:0.08;stroke-miterlimit:4;stroke-dasharray:none"><g
         id="g4199"
         clip-path="url(#clipPath4201)"
         style="stroke-width:0.08;stroke-miterlimit:4;stroke-dasharray:none"><g
           id="g4205"
           transform="translate(494.2207,256.7085)"
           style="stroke-width:0.08;stroke-miterlimit:4;stroke-dasharray:none"><path
             d="m 0,0 c 0,-5.479 -4.442,-9.921 -9.921,-9.921 -5.48,0 -9.922,4.442 -9.922,9.921 0,5.479 4.442,9.921 9.922,9.921 C -4.442,9.921 0,5.479 0,0 Z"
             style="fill:none;stroke:#ff0000;stroke-width:0.08;stroke-linecap:butt;stroke-linejoin:miter;stroke-miterlimit:4;stroke-dasharray:none;stroke-opacity:1"
             id="path4207"
             inkscape:connector-curvature="0" /></g><g
           id="g4209"
           transform="translate(356.7402,210.7559)"
           style="stroke-width:0.08;stroke-miterlimit:4;stroke-dasharray:none"><path
             d="M 0,0 34.016,0"
             style="fill:none;stroke:#ff0000;stroke-width:0.08;stroke-linecap:butt;stroke-linejoin:miter;stroke-miterlimit:4;stroke-dasharray:none;stroke-opacity:1"
             id="path4211"
             inkscape:connector-curvature="0" /></g><g
           id="g4213"
           transform="translate(356.7402,250.4409)"
           style="stroke-width:0.08;stroke-miterlimit:4;stroke-dasharray:none"><path
             d="M 0,0 34.016,0"
             style="fill:none;stroke:#ff0000;stroke-width:0.08;stroke-linecap:butt;stroke-linejoin:miter;stroke-miterlimit:4;stroke-dasharray:none;stroke-opacity:1"
             id="path4215"
             inkscape:connector-curvature="0" /></g><g
           id="g4217"
           transform="translate(356.7402,250.4409)"
           style="stroke-width:0.08;stroke-miterlimit:4;stroke-dasharray:none"><path
             d="M 0,0 0,-39.685"
             style="fill:none;stroke:#ff0000;stroke-width:0.08;stroke-linecap:butt;stroke-linejoin:miter;stroke-miterlimit:4;stroke-dasharray:none;stroke-opacity:1"
             id="path4219"
             inkscape:connector-curvature="0" /></g><g
           id="g4221"
           transform="translate(390.7559,250.4409)"
           style="stroke-width:0.08;stroke-miterlimit:4;stroke-dasharray:none"><path
             d="M 0,0 0,-39.685"
             style="fill:none;stroke:#ff0000;stroke-width:0.08;stroke-linecap:butt;stroke-linejoin:miter;stroke-miterlimit:4;stroke-dasharray:none;stroke-opacity:1"
             id="path4223"
             inkscape:connector-curvature="0" /></g></g></g><text
       transform="matrix(-1,0,0,1,492.0176,241.167)"
       style="font-variant:normal;font-weight:normal;font-stretch:normal;font-size:10px;font-family:Perpetua;-inkscape-font-specification:Perpetua;writing-mode:lr-tb;fill:#000000;fill-opacity:1;fill-rule:nonzero;stroke:none;stroke-width:0.08;stroke-miterlimit:4;stroke-dasharray:none"
       id="text4225"><tspan
         x="0 5 10.1"
         y="0"
         sodipodi:role="line"
         id="tspan4227">LED</tspan><tspan
         x="108.23 113.23 120.17 124.51"
         y="21.879999"
         sodipodi:role="line"
         id="tspan4229">POT.</tspan></text>
<g
       id="g4231"
       style="stroke-width:0.08;stroke-miterlimit:4;stroke-dasharray:none"><g
         id="g4233"
         clip-path="url(#clipPath4235)"
         style="stroke-width:0.08;stroke-miterlimit:4;stroke-dasharray:none"><g
           id="g4239"
           transform="translate(349.418,71.2021)"
           style="stroke-width:0.08;stroke-miterlimit:4;stroke-dasharray:none"><path
             d="m 0,0 c 1.194,-2.179 0.396,-4.914 -1.783,-6.108 -2.18,-1.196 -4.914,-0.397 -6.11,1.782 l -30.284,55.244 c -1.194,2.179 -0.396,4.914 1.783,6.108 2.179,1.196 4.915,0.397 6.109,-1.782 L 0,0 Z"
             style="fill:#ffffff;fill-opacity:1;fill-rule:nonzero;stroke:none;stroke-width:0.08;stroke-miterlimit:4;stroke-dasharray:none"
             id="path4241"
             inkscape:connector-curvature="0" /></g><g
           id="g4243"
           transform="translate(349.418,71.2021)"
           style="stroke-width:0.08;stroke-miterlimit:4;stroke-dasharray:none"><path
             d="m 0,0 c 1.194,-2.179 0.396,-4.914 -1.783,-6.108 -2.18,-1.196 -4.914,-0.397 -6.11,1.782 l -30.284,55.244 c -1.194,2.179 -0.396,4.914 1.783,6.108 2.179,1.196 4.915,0.397 6.109,-1.782 L 0,0 Z"
             style="fill:none;stroke:#ff0000;stroke-width:0.08;stroke-linecap:butt;stroke-linejoin:miter;stroke-miterlimit:4;stroke-dasharray:none;stroke-opacity:1"
             id="path4245"
             inkscape:connector-curvature="0" /></g><g
           id="g4247"
           transform="translate(367.418,71.2021)"
           style="stroke-width:0.08;stroke-miterlimit:4;stroke-dasharray:none"><path
             d="m 0,0 c 1.194,-2.179 0.396,-4.914 -1.783,-6.108 -2.18,-1.196 -4.914,-0.397 -6.11,1.782 l -30.284,55.244 c -1.194,2.179 -0.396,4.914 1.783,6.108 2.179,1.196 4.915,0.397 6.109,-1.782 L 0,0 Z"
             style="fill:#ffffff;fill-opacity:1;fill-rule:nonzero;stroke:none;stroke-width:0.08;stroke-miterlimit:4;stroke-dasharray:none"
             id="path4249"
             inkscape:connector-curvature="0" /></g><g
           id="g4251"
           transform="translate(367.418,71.2021)"
           style="stroke-width:0.08;stroke-miterlimit:4;stroke-dasharray:none"><path
             d="m 0,0 c 1.194,-2.179 0.396,-4.914 -1.783,-6.108 -2.18,-1.196 -4.914,-0.397 -6.11,1.782 l -30.284,55.244 c -1.194,2.179 -0.396,4.914 1.783,6.108 2.179,1.196 4.915,0.397 6.109,-1.782 L 0,0 Z"
             style="fill:none;stroke:#ff0000;stroke-width:0.08;stroke-linecap:butt;stroke-linejoin:miter;stroke-miterlimit:4;stroke-dasharray:none;stroke-opacity:1"
             id="path4253"
             inkscape:connector-curvature="0" /></g><g
           id="g4255"
           transform="translate(385.418,71.2021)"
           style="stroke-width:0.08;stroke-miterlimit:4;stroke-dasharray:none"><path
             d="m 0,0 c 1.194,-2.179 0.396,-4.914 -1.783,-6.108 -2.18,-1.196 -4.914,-0.397 -6.11,1.782 l -30.284,55.244 c -1.194,2.179 -0.396,4.914 1.783,6.108 2.179,1.196 4.915,0.397 6.109,-1.782 L 0,0 Z"
             style="fill:#ffffff;fill-opacity:1;fill-rule:nonzero;stroke:none;stroke-width:0.08;stroke-miterlimit:4;stroke-dasharray:none"
             id="path4257"
             inkscape:connector-curvature="0" /></g><g
           id="g4259"
           transform="translate(385.418,71.2021)"
           style="stroke-width:0.08;stroke-miterlimit:4;stroke-dasharray:none"><path
             d="m 0,0 c 1.194,-2.179 0.396,-4.914 -1.783,-6.108 -2.18,-1.196 -4.914,-0.397 -6.11,1.782 l -30.284,55.244 c -1.194,2.179 -0.396,4.914 1.783,6.108 2.179,1.196 4.915,0.397 6.109,-1.782 L 0,0 Z"
             style="fill:none;stroke:#ff0000;stroke-width:0.08;stroke-linecap:butt;stroke-linejoin:miter;stroke-miterlimit:4;stroke-dasharray:none;stroke-opacity:1"
             id="path4261"
             inkscape:connector-curvature="0" /></g><g
           id="g4263"
           transform="translate(403.418,71.2021)"
           style="stroke-width:0.08;stroke-miterlimit:4;stroke-dasharray:none"><path
             d="m 0,0 c 1.194,-2.179 0.396,-4.914 -1.783,-6.108 -2.18,-1.196 -4.914,-0.397 -6.11,1.782 l -30.284,55.244 c -1.194,2.179 -0.396,4.914 1.783,6.108 2.179,1.196 4.915,0.397 6.109,-1.782 L 0,0 Z"
             style="fill:#ffffff;fill-opacity:1;fill-rule:nonzero;stroke:none;stroke-width:0.08;stroke-miterlimit:4;stroke-dasharray:none"
             id="path4265"
             inkscape:connector-curvature="0" /></g><g
           id="g4267"
           transform="translate(403.418,71.2021)"
           style="stroke-width:0.08;stroke-miterlimit:4;stroke-dasharray:none"><path
             d="m 0,0 c 1.194,-2.179 0.396,-4.914 -1.783,-6.108 -2.18,-1.196 -4.914,-0.397 -6.11,1.782 l -30.284,55.244 c -1.194,2.179 -0.396,4.914 1.783,6.108 2.179,1.196 4.915,0.397 6.109,-1.782 L 0,0 Z"
             style="fill:none;stroke:#ff0000;stroke-width:0.08;stroke-linecap:butt;stroke-linejoin:miter;stroke-miterlimit:4;stroke-dasharray:none;stroke-opacity:1"
             id="path4269"
             inkscape:connector-curvature="0" /></g><g
           id="g4271"
           transform="translate(421.418,71.2021)"
           style="stroke-width:0.08;stroke-miterlimit:4;stroke-dasharray:none"><path
             d="m 0,0 c 1.194,-2.179 0.396,-4.914 -1.783,-6.108 -2.18,-1.196 -4.914,-0.397 -6.11,1.782 l -30.284,55.244 c -1.194,2.179 -0.396,4.914 1.783,6.108 2.179,1.196 4.915,0.397 6.109,-1.782 L 0,0 Z"
             style="fill:#ffffff;fill-opacity:1;fill-rule:nonzero;stroke:none;stroke-width:0.08;stroke-miterlimit:4;stroke-dasharray:none"
             id="path4273"
             inkscape:connector-curvature="0" /></g><g
           id="g4275"
           transform="translate(421.418,71.2021)"
           style="stroke-width:0.08;stroke-miterlimit:4;stroke-dasharray:none"><path
             d="m 0,0 c 1.194,-2.179 0.396,-4.914 -1.783,-6.108 -2.18,-1.196 -4.914,-0.397 -6.11,1.782 l -30.284,55.244 c -1.194,2.179 -0.396,4.914 1.783,6.108 2.179,1.196 4.915,0.397 6.109,-1.782 L 0,0 Z"
             style="fill:none;stroke:#ff0000;stroke-width:0.08;stroke-linecap:butt;stroke-linejoin:miter;stroke-miterlimit:4;stroke-dasharray:none;stroke-opacity:1"
             id="path4277"
             inkscape:connector-curvature="0" /></g><g
           id="g4279"
           transform="translate(629.8105,231.814)"
           style="stroke-width:0.08;stroke-miterlimit:4;stroke-dasharray:none"><path
             d="M 0,0 C 2.372,-0.737 3.698,-3.259 2.96,-5.632 2.223,-8.006 -0.299,-9.331 -2.673,-8.594 l -60.16,18.702 c -2.372,0.738 -3.698,3.26 -2.96,5.633 0.736,2.373 3.259,3.698 5.632,2.961 L 0,0 Z"
             style="fill:#ffffff;fill-opacity:1;fill-rule:nonzero;stroke:none;stroke-width:0.08;stroke-miterlimit:4;stroke-dasharray:none"
             id="path4281"
             inkscape:connector-curvature="0" /></g><g
           id="g4283"
           transform="translate(629.8105,231.814)"
           style="stroke-width:0.08;stroke-miterlimit:4;stroke-dasharray:none"><path
             d="M 0,0 C 2.372,-0.737 3.698,-3.259 2.96,-5.632 2.223,-8.006 -0.299,-9.331 -2.673,-8.594 l -60.16,18.702 c -2.372,0.738 -3.698,3.26 -2.96,5.633 0.736,2.373 3.259,3.698 5.632,2.961 L 0,0 Z"
             style="fill:none;stroke:#ff0000;stroke-width:0.08;stroke-linecap:butt;stroke-linejoin:miter;stroke-miterlimit:4;stroke-dasharray:none;stroke-opacity:1"
             id="path4285"
             inkscape:connector-curvature="0" /></g><g
           id="g4287"
           transform="translate(629.8105,213.814)"
           style="stroke-width:0.08;stroke-miterlimit:4;stroke-dasharray:none"><path
             d="M 0,0 C 2.372,-0.737 3.698,-3.259 2.96,-5.632 2.223,-8.006 -0.299,-9.331 -2.673,-8.594 l -60.16,18.702 c -2.372,0.738 -3.698,3.26 -2.96,5.633 0.736,2.373 3.259,3.698 5.632,2.961 L 0,0 Z"
             style="fill:#ffffff;fill-opacity:1;fill-rule:nonzero;stroke:none;stroke-width:0.08;stroke-miterlimit:4;stroke-dasharray:none"
             id="path4289"
             inkscape:connector-curvature="0" /></g><g
           id="g4291"
           transform="translate(629.8105,213.814)"
           style="stroke-width:0.08;stroke-miterlimit:4;stroke-dasharray:none"><path
             d="M 0,0 C 2.372,-0.737 3.698,-3.259 2.96,-5.632 2.223,-8.006 -0.299,-9.331 -2.673,-8.594 l -60.16,18.702 c -2.372,0.738 -3.698,3.26 -2.96,5.633 0.736,2.373 3.259,3.698 5.632,2.961 L 0,0 Z"
             style="fill:none;stroke:#ff0000;stroke-width:0.08;stroke-linecap:butt;stroke-linejoin:miter;stroke-miterlimit:4;stroke-dasharray:none;stroke-opacity:1"
             id="path4293"
             inkscape:connector-curvature="0" /></g></g></g></g></svg>