solid OpenSCAD_Model
  facet normal -1 0 0
    outer loop
      vertex 0 0 0
      vertex 0 49 12
      vertex 0 49 0
    endloop
  endfacet
  facet normal -1 -0 0
    outer loop
      vertex 0 49 12
      vertex 0 0 0
      vertex 0 0 12
    endloop
  endfacet
  facet normal 0 0 1
    outer loop
      vertex 93 49 12
      vertex 85.5987 39.2882 12
      vertex 93 0 12
    endloop
  endfacet
  facet normal 0 0 1
    outer loop
      vertex 93 0 12
      vertex 85.7118 9.36384 12
      vertex 85.75 9 12
    endloop
  endfacet
  facet normal -0 0 1
    outer loop
      vertex 85.5987 9.71179 12
      vertex 93 0 12
      vertex 85.5987 39.2882 12
    endloop
  endfacet
  facet normal 0 0 1
    outer loop
      vertex 93 0 12
      vertex 85.5987 9.71179 12
      vertex 85.7118 9.36384 12
    endloop
  endfacet
  facet normal -0 0 1
    outer loop
      vertex 85.4158 38.9714 12
      vertex 85.5987 9.71179 12
      vertex 85.5987 39.2882 12
    endloop
  endfacet
  facet normal 0 0 1
    outer loop
      vertex 85.4158 38.9714 12
      vertex 85.4158 10.0286 12
      vertex 85.5987 9.71179 12
    endloop
  endfacet
  facet normal -0 0 1
    outer loop
      vertex 85.171 38.6995 12
      vertex 85.4158 10.0286 12
      vertex 85.4158 38.9714 12
    endloop
  endfacet
  facet normal 0 0 1
    outer loop
      vertex 85.171 38.6995 12
      vertex 85.171 10.3005 12
      vertex 85.4158 10.0286 12
    endloop
  endfacet
  facet normal -0 0 1
    outer loop
      vertex 84.875 38.4845 12
      vertex 85.171 10.3005 12
      vertex 85.171 38.6995 12
    endloop
  endfacet
  facet normal 0 0 1
    outer loop
      vertex 84.875 38.4845 12
      vertex 84.875 10.5155 12
      vertex 85.171 10.3005 12
    endloop
  endfacet
  facet normal 0 0 1
    outer loop
      vertex 82.5 37 12
      vertex 84.875 38.4845 12
      vertex 84.5408 38.3357 12
    endloop
  endfacet
  facet normal 0 0 1
    outer loop
      vertex 84.875 38.4845 12
      vertex 82.5 37 12
      vertex 84.875 10.5155 12
    endloop
  endfacet
  facet normal 0 0 1
    outer loop
      vertex 82.5 37 12
      vertex 84.5408 38.3357 12
      vertex 84.1829 38.2596 12
    endloop
  endfacet
  facet normal -0 0 1
    outer loop
      vertex 82.5 12 12
      vertex 84.875 10.5155 12
      vertex 82.5 37 12
    endloop
  endfacet
  facet normal 0 0 1
    outer loop
      vertex 82.5 37 12
      vertex 84.1829 38.2596 12
      vertex 83.8171 38.2596 12
    endloop
  endfacet
  facet normal 0 0 1
    outer loop
      vertex 84.875 10.5155 12
      vertex 82.5 12 12
      vertex 84.5408 10.6643 12
    endloop
  endfacet
  facet normal 0 0 1
    outer loop
      vertex 82.5 37 12
      vertex 83.8171 38.2596 12
      vertex 83.4592 38.3357 12
    endloop
  endfacet
  facet normal 0 0 1
    outer loop
      vertex 84.5408 10.6643 12
      vertex 82.5 12 12
      vertex 84.1829 10.7404 12
    endloop
  endfacet
  facet normal 0 0 1
    outer loop
      vertex 82.5 37 12
      vertex 83.4592 38.3357 12
      vertex 83.125 38.4845 12
    endloop
  endfacet
  facet normal 0 0 1
    outer loop
      vertex 84.1829 10.7404 12
      vertex 82.5 12 12
      vertex 83.8171 10.7404 12
    endloop
  endfacet
  facet normal 0 0 1
    outer loop
      vertex 82.5 37 12
      vertex 83.125 38.4845 12
      vertex 82.829 38.6995 12
    endloop
  endfacet
  facet normal 0 0 1
    outer loop
      vertex 83.8171 10.7404 12
      vertex 82.5 12 12
      vertex 83.4592 10.6643 12
    endloop
  endfacet
  facet normal 0 0 1
    outer loop
      vertex 82.5 37 12
      vertex 82.829 38.6995 12
      vertex 82.5842 38.9714 12
    endloop
  endfacet
  facet normal 0 0 1
    outer loop
      vertex 83.4592 10.6643 12
      vertex 82.5 12 12
      vertex 83.125 10.5155 12
    endloop
  endfacet
  facet normal 0 0 1
    outer loop
      vertex 83.125 10.5155 12
      vertex 82.5 12 12
      vertex 82.829 10.3005 12
    endloop
  endfacet
  facet normal 0 0 1
    outer loop
      vertex 82.4013 39.2882 12
      vertex 82.5 37 12
      vertex 82.5842 38.9714 12
    endloop
  endfacet
  facet normal 0 0 1
    outer loop
      vertex 82.2882 39.6362 12
      vertex 82.5 37 12
      vertex 82.4013 39.2882 12
    endloop
  endfacet
  facet normal 0 0 1
    outer loop
      vertex 10.7118 39.6362 12
      vertex 82.2882 39.6362 12
      vertex 82.25 40 12
    endloop
  endfacet
  facet normal 0 0 1
    outer loop
      vertex 10.7118 39.6362 12
      vertex 82.25 40 12
      vertex 10.75 40 12
    endloop
  endfacet
  facet normal 0 0 1
    outer loop
      vertex 82.2882 39.6362 12
      vertex 10.7118 39.6362 12
      vertex 82.5 37 12
    endloop
  endfacet
  facet normal 0 0 1
    outer loop
      vertex 10.5 37 12
      vertex 10.7118 39.6362 12
      vertex 10.5987 39.2882 12
    endloop
  endfacet
  facet normal 0 0 1
    outer loop
      vertex 10.7118 39.6362 12
      vertex 10.5 37 12
      vertex 82.5 37 12
    endloop
  endfacet
  facet normal -0 0 1
    outer loop
      vertex 10.171 38.6995 12
      vertex 10.5 37 12
      vertex 10.4158 38.9714 12
    endloop
  endfacet
  facet normal -0 0 1
    outer loop
      vertex 10.4158 38.9714 12
      vertex 10.5 37 12
      vertex 10.5987 39.2882 12
    endloop
  endfacet
  facet normal 0 0 1
    outer loop
      vertex 85.7118 39.6362 12
      vertex 93 49 12
      vertex 85.75 40 12
    endloop
  endfacet
  facet normal 0 0 1
    outer loop
      vertex 93 49 12
      vertex 85.7118 40.3638 12
      vertex 85.75 40 12
    endloop
  endfacet
  facet normal 0 0 1
    outer loop
      vertex 93 49 12
      vertex 85.5987 40.7118 12
      vertex 85.7118 40.3638 12
    endloop
  endfacet
  facet normal 0 0 1
    outer loop
      vertex 93 49 12
      vertex 85.4158 41.0286 12
      vertex 85.5987 40.7118 12
    endloop
  endfacet
  facet normal 0 0 1
    outer loop
      vertex 93 49 12
      vertex 85.171 41.3005 12
      vertex 85.4158 41.0286 12
    endloop
  endfacet
  facet normal 0 0 1
    outer loop
      vertex 93 49 12
      vertex 84.875 41.5155 12
      vertex 85.171 41.3005 12
    endloop
  endfacet
  facet normal 0 0 1
    outer loop
      vertex 93 49 12
      vertex 84.5408 41.6643 12
      vertex 84.875 41.5155 12
    endloop
  endfacet
  facet normal 0 0 1
    outer loop
      vertex 93 49 12
      vertex 84.1829 41.7404 12
      vertex 84.5408 41.6643 12
    endloop
  endfacet
  facet normal 0 0 1
    outer loop
      vertex 93 49 12
      vertex 83.8171 41.7404 12
      vertex 84.1829 41.7404 12
    endloop
  endfacet
  facet normal 0 0 1
    outer loop
      vertex 93 49 12
      vertex 83.4592 41.6643 12
      vertex 83.8171 41.7404 12
    endloop
  endfacet
  facet normal 0 0 1
    outer loop
      vertex 93 49 12
      vertex 83.125 41.5155 12
      vertex 83.4592 41.6643 12
    endloop
  endfacet
  facet normal 0 0 1
    outer loop
      vertex 9.875 41.5155 12
      vertex 83.125 41.5155 12
      vertex 93 49 12
    endloop
  endfacet
  facet normal 0 0 1
    outer loop
      vertex 82.2882 40.3638 12
      vertex 10.75 40 12
      vertex 82.25 40 12
    endloop
  endfacet
  facet normal 0 0 1
    outer loop
      vertex 10.7118 40.3638 12
      vertex 82.2882 40.3638 12
      vertex 82.4013 40.7118 12
    endloop
  endfacet
  facet normal 0 0 1
    outer loop
      vertex 10.5987 40.7118 12
      vertex 82.4013 40.7118 12
      vertex 82.5842 41.0286 12
    endloop
  endfacet
  facet normal 0 0 1
    outer loop
      vertex 10.4158 41.0286 12
      vertex 82.5842 41.0286 12
      vertex 82.829 41.3005 12
    endloop
  endfacet
  facet normal 0 0 1
    outer loop
      vertex 83.125 41.5155 12
      vertex 9.875 41.5155 12
      vertex 82.829 41.3005 12
    endloop
  endfacet
  facet normal 0 0 1
    outer loop
      vertex 82.2882 40.3638 12
      vertex 10.7118 40.3638 12
      vertex 10.75 40 12
    endloop
  endfacet
  facet normal 0 0 1
    outer loop
      vertex 82.4013 40.7118 12
      vertex 10.5987 40.7118 12
      vertex 10.7118 40.3638 12
    endloop
  endfacet
  facet normal 0 0 1
    outer loop
      vertex 82.5842 41.0286 12
      vertex 10.4158 41.0286 12
      vertex 10.5987 40.7118 12
    endloop
  endfacet
  facet normal 0 0 1
    outer loop
      vertex 82.829 41.3005 12
      vertex 10.171 41.3005 12
      vertex 10.4158 41.0286 12
    endloop
  endfacet
  facet normal 0 0 1
    outer loop
      vertex 82.829 41.3005 12
      vertex 9.875 41.5155 12
      vertex 10.171 41.3005 12
    endloop
  endfacet
  facet normal -0 0 1
    outer loop
      vertex 0 49 12
      vertex 9.875 41.5155 12
      vertex 93 49 12
    endloop
  endfacet
  facet normal 0 0 1
    outer loop
      vertex 9.875 41.5155 12
      vertex 0 49 12
      vertex 9.54078 41.6643 12
    endloop
  endfacet
  facet normal 0 0 1
    outer loop
      vertex 9.54078 41.6643 12
      vertex 0 49 12
      vertex 9.18292 41.7404 12
    endloop
  endfacet
  facet normal 0 0 1
    outer loop
      vertex 7.40129 9.71179 12
      vertex 0 0 12
      vertex 7.28824 9.36384 12
    endloop
  endfacet
  facet normal 0 0 1
    outer loop
      vertex 7.28824 40.3638 12
      vertex 0 49 12
      vertex 7.25 40 12
    endloop
  endfacet
  facet normal 0 0 1
    outer loop
      vertex 7.40129 40.7118 12
      vertex 0 49 12
      vertex 7.28824 40.3638 12
    endloop
  endfacet
  facet normal 0 0 1
    outer loop
      vertex 7.58422 41.0286 12
      vertex 0 49 12
      vertex 7.40129 40.7118 12
    endloop
  endfacet
  facet normal 0 0 1
    outer loop
      vertex 7.82902 41.3005 12
      vertex 0 49 12
      vertex 7.58422 41.0286 12
    endloop
  endfacet
  facet normal 0 0 1
    outer loop
      vertex 8.125 41.5155 12
      vertex 0 49 12
      vertex 7.82902 41.3005 12
    endloop
  endfacet
  facet normal 0 0 1
    outer loop
      vertex 8.45922 41.6643 12
      vertex 0 49 12
      vertex 8.125 41.5155 12
    endloop
  endfacet
  facet normal 0 0 1
    outer loop
      vertex 8.81707 41.7404 12
      vertex 0 49 12
      vertex 8.45922 41.6643 12
    endloop
  endfacet
  facet normal 0 0 1
    outer loop
      vertex 9.18292 41.7404 12
      vertex 0 49 12
      vertex 8.81707 41.7404 12
    endloop
  endfacet
  facet normal 0 0 1
    outer loop
      vertex 85.5987 39.2882 12
      vertex 93 49 12
      vertex 85.7118 39.6362 12
    endloop
  endfacet
  facet normal -0 0 1
    outer loop
      vertex 85.7118 8.63615 12
      vertex 93 0 12
      vertex 85.75 9 12
    endloop
  endfacet
  facet normal -0 0 1
    outer loop
      vertex 85.5987 8.28821 12
      vertex 93 0 12
      vertex 85.7118 8.63615 12
    endloop
  endfacet
  facet normal -0 0 1
    outer loop
      vertex 85.4158 7.97138 12
      vertex 93 0 12
      vertex 85.5987 8.28821 12
    endloop
  endfacet
  facet normal -0 0 1
    outer loop
      vertex 85.171 7.6995 12
      vertex 93 0 12
      vertex 85.4158 7.97138 12
    endloop
  endfacet
  facet normal -0 0 1
    outer loop
      vertex 84.875 7.48446 12
      vertex 93 0 12
      vertex 85.171 7.6995 12
    endloop
  endfacet
  facet normal -0 0 1
    outer loop
      vertex 84.5408 7.33565 12
      vertex 93 0 12
      vertex 84.875 7.48446 12
    endloop
  endfacet
  facet normal -0 0 1
    outer loop
      vertex 84.1829 7.25959 12
      vertex 93 0 12
      vertex 84.5408 7.33565 12
    endloop
  endfacet
  facet normal -0 0 1
    outer loop
      vertex 83.8171 7.25959 12
      vertex 93 0 12
      vertex 84.1829 7.25959 12
    endloop
  endfacet
  facet normal 0 0 1
    outer loop
      vertex 83.4592 7.33565 12
      vertex 93 0 12
      vertex 83.8171 7.25959 12
    endloop
  endfacet
  facet normal 0 0 1
    outer loop
      vertex 83.125 7.48446 12
      vertex 93 0 12
      vertex 83.4592 7.33565 12
    endloop
  endfacet
  facet normal 0 0 1
    outer loop
      vertex 9.875 7.48446 12
      vertex 83.125 7.48446 12
      vertex 82.829 7.6995 12
    endloop
  endfacet
  facet normal -0 0 1
    outer loop
      vertex 10.75 9 12
      vertex 82.2882 8.63615 12
      vertex 82.25 9 12
    endloop
  endfacet
  facet normal 0 0 1
    outer loop
      vertex 10.7118 8.63615 12
      vertex 82.2882 8.63615 12
      vertex 10.75 9 12
    endloop
  endfacet
  facet normal 0 0 1
    outer loop
      vertex 82.2882 8.63615 12
      vertex 10.7118 8.63615 12
      vertex 82.4013 8.28821 12
    endloop
  endfacet
  facet normal 0 0 1
    outer loop
      vertex 10.5987 8.28821 12
      vertex 82.4013 8.28821 12
      vertex 10.7118 8.63615 12
    endloop
  endfacet
  facet normal 0 0 1
    outer loop
      vertex 82.4013 8.28821 12
      vertex 10.5987 8.28821 12
      vertex 82.5842 7.97138 12
    endloop
  endfacet
  facet normal 0 0 1
    outer loop
      vertex 10.4158 7.97138 12
      vertex 82.5842 7.97138 12
      vertex 10.5987 8.28821 12
    endloop
  endfacet
  facet normal 0 0 1
    outer loop
      vertex 82.5842 7.97138 12
      vertex 10.4158 7.97138 12
      vertex 82.829 7.6995 12
    endloop
  endfacet
  facet normal 0 0 1
    outer loop
      vertex 10.171 7.6995 12
      vertex 82.829 7.6995 12
      vertex 10.4158 7.97138 12
    endloop
  endfacet
  facet normal 0 0 1
    outer loop
      vertex 9.875 7.48446 12
      vertex 82.829 7.6995 12
      vertex 10.171 7.6995 12
    endloop
  endfacet
  facet normal 0 0 1
    outer loop
      vertex 83.125 7.48446 12
      vertex 9.875 7.48446 12
      vertex 93 0 12
    endloop
  endfacet
  facet normal 0 0 1
    outer loop
      vertex 0 0 12
      vertex 9.875 7.48446 12
      vertex 9.54078 7.33565 12
    endloop
  endfacet
  facet normal 0 0 1
    outer loop
      vertex 0 0 12
      vertex 9.54078 7.33565 12
      vertex 9.18292 7.25959 12
    endloop
  endfacet
  facet normal 0 0 1
    outer loop
      vertex 0 0 12
      vertex 9.18292 7.25959 12
      vertex 8.81707 7.25959 12
    endloop
  endfacet
  facet normal 0 0 1
    outer loop
      vertex 7.28824 9.36384 12
      vertex 0 0 12
      vertex 7.25 9 12
    endloop
  endfacet
  facet normal 0 0 1
    outer loop
      vertex 9.875 7.48446 12
      vertex 0 0 12
      vertex 93 0 12
    endloop
  endfacet
  facet normal 0 0 1
    outer loop
      vertex 8.45922 7.33565 12
      vertex 0 0 12
      vertex 8.81707 7.25959 12
    endloop
  endfacet
  facet normal 0 0 1
    outer loop
      vertex 8.125 7.48446 12
      vertex 0 0 12
      vertex 8.45922 7.33565 12
    endloop
  endfacet
  facet normal 0 0 1
    outer loop
      vertex 7.82902 7.6995 12
      vertex 0 0 12
      vertex 8.125 7.48446 12
    endloop
  endfacet
  facet normal 0 0 1
    outer loop
      vertex 7.58422 7.97138 12
      vertex 0 0 12
      vertex 7.82902 7.6995 12
    endloop
  endfacet
  facet normal 0 0 1
    outer loop
      vertex 7.40129 8.28821 12
      vertex 0 0 12
      vertex 7.58422 7.97138 12
    endloop
  endfacet
  facet normal 0 0 1
    outer loop
      vertex 7.28824 8.63615 12
      vertex 0 0 12
      vertex 7.40129 8.28821 12
    endloop
  endfacet
  facet normal 0 0 1
    outer loop
      vertex 7.25 9 12
      vertex 0 0 12
      vertex 7.28824 8.63615 12
    endloop
  endfacet
  facet normal 0 0 1
    outer loop
      vertex 82.829 10.3005 12
      vertex 82.5 12 12
      vertex 82.5842 10.0286 12
    endloop
  endfacet
  facet normal 0 0 1
    outer loop
      vertex 82.5 12 12
      vertex 82.4013 9.71179 12
      vertex 82.5842 10.0286 12
    endloop
  endfacet
  facet normal 0 0 1
    outer loop
      vertex 82.5 12 12
      vertex 82.2882 9.36384 12
      vertex 82.4013 9.71179 12
    endloop
  endfacet
  facet normal 0 0 1
    outer loop
      vertex 10.7118 9.36384 12
      vertex 82.2882 9.36384 12
      vertex 82.5 12 12
    endloop
  endfacet
  facet normal 0 0 1
    outer loop
      vertex 82.2882 9.36384 12
      vertex 10.7118 9.36384 12
      vertex 82.25 9 12
    endloop
  endfacet
  facet normal 0 0 1
    outer loop
      vertex 82.25 9 12
      vertex 10.7118 9.36384 12
      vertex 10.75 9 12
    endloop
  endfacet
  facet normal -0 0 1
    outer loop
      vertex 10.5 12 12
      vertex 10.7118 9.36384 12
      vertex 82.5 12 12
    endloop
  endfacet
  facet normal 0 0 1
    outer loop
      vertex 10.7118 9.36384 12
      vertex 10.5 12 12
      vertex 10.5987 9.71179 12
    endloop
  endfacet
  facet normal 0 0 1
    outer loop
      vertex 10.5 12 12
      vertex 10.4158 10.0286 12
      vertex 10.5987 9.71179 12
    endloop
  endfacet
  facet normal -0 0 1
    outer loop
      vertex 9.875 38.4845 12
      vertex 10.5 37 12
      vertex 10.171 38.6995 12
    endloop
  endfacet
  facet normal -0 0 1
    outer loop
      vertex 9.54078 38.3357 12
      vertex 10.5 37 12
      vertex 9.875 38.4845 12
    endloop
  endfacet
  facet normal 0 0 1
    outer loop
      vertex 10.5 12 12
      vertex 10.171 10.3005 12
      vertex 10.4158 10.0286 12
    endloop
  endfacet
  facet normal -0 0 1
    outer loop
      vertex 9.18292 38.2596 12
      vertex 10.5 37 12
      vertex 9.54078 38.3357 12
    endloop
  endfacet
  facet normal 0 0 1
    outer loop
      vertex 10.5 12 12
      vertex 9.875 10.5155 12
      vertex 10.171 10.3005 12
    endloop
  endfacet
  facet normal -0 0 1
    outer loop
      vertex 8.81707 38.2596 12
      vertex 10.5 37 12
      vertex 9.18292 38.2596 12
    endloop
  endfacet
  facet normal 0 0 1
    outer loop
      vertex 10.5 12 12
      vertex 9.54078 10.6643 12
      vertex 9.875 10.5155 12
    endloop
  endfacet
  facet normal 0 0 1
    outer loop
      vertex 8.45922 38.3357 12
      vertex 10.5 37 12
      vertex 8.81707 38.2596 12
    endloop
  endfacet
  facet normal 0 0 1
    outer loop
      vertex 10.5 12 12
      vertex 9.18292 10.7404 12
      vertex 9.54078 10.6643 12
    endloop
  endfacet
  facet normal 0 0 1
    outer loop
      vertex 8.125 38.4845 12
      vertex 10.5 37 12
      vertex 8.45922 38.3357 12
    endloop
  endfacet
  facet normal 0 0 1
    outer loop
      vertex 10.5 12 12
      vertex 8.81707 10.7404 12
      vertex 9.18292 10.7404 12
    endloop
  endfacet
  facet normal 0 0 1
    outer loop
      vertex 10.5 37 12
      vertex 8.125 38.4845 12
      vertex 10.5 12 12
    endloop
  endfacet
  facet normal 0 0 1
    outer loop
      vertex 10.5 12 12
      vertex 8.45922 10.6643 12
      vertex 8.81707 10.7404 12
    endloop
  endfacet
  facet normal 0 0 1
    outer loop
      vertex 8.125 10.5155 12
      vertex 10.5 12 12
      vertex 8.125 38.4845 12
    endloop
  endfacet
  facet normal 0 0 1
    outer loop
      vertex 10.5 12 12
      vertex 8.125 10.5155 12
      vertex 8.45922 10.6643 12
    endloop
  endfacet
  facet normal 0 0 1
    outer loop
      vertex 7.82902 38.6995 12
      vertex 8.125 10.5155 12
      vertex 8.125 38.4845 12
    endloop
  endfacet
  facet normal 0 0 1
    outer loop
      vertex 7.82902 38.6995 12
      vertex 7.82902 10.3005 12
      vertex 8.125 10.5155 12
    endloop
  endfacet
  facet normal 0 0 1
    outer loop
      vertex 7.58422 38.9714 12
      vertex 7.82902 10.3005 12
      vertex 7.82902 38.6995 12
    endloop
  endfacet
  facet normal 0 0 1
    outer loop
      vertex 7.58422 38.9714 12
      vertex 7.58422 10.0286 12
      vertex 7.82902 10.3005 12
    endloop
  endfacet
  facet normal 0 0 1
    outer loop
      vertex 7.40129 39.2882 12
      vertex 7.58422 10.0286 12
      vertex 7.58422 38.9714 12
    endloop
  endfacet
  facet normal 0 0 1
    outer loop
      vertex 7.40129 39.2882 12
      vertex 7.40129 9.71179 12
      vertex 7.58422 10.0286 12
    endloop
  endfacet
  facet normal 0 0 1
    outer loop
      vertex 0 49 12
      vertex 7.40129 39.2882 12
      vertex 7.28824 39.6362 12
    endloop
  endfacet
  facet normal 0 0 1
    outer loop
      vertex 7.40129 39.2882 12
      vertex 0 49 12
      vertex 7.40129 9.71179 12
    endloop
  endfacet
  facet normal 0 0 1
    outer loop
      vertex 0 49 12
      vertex 7.28824 39.6362 12
      vertex 7.25 40 12
    endloop
  endfacet
  facet normal 0 0 1
    outer loop
      vertex 0 0 12
      vertex 7.40129 9.71179 12
      vertex 0 49 12
    endloop
  endfacet
  facet normal 1 -0 0
    outer loop
      vertex 93 0 12
      vertex 93 49 0
      vertex 93 49 12
    endloop
  endfacet
  facet normal 1 0 0
    outer loop
      vertex 93 49 0
      vertex 93 0 12
      vertex 93 0 0
    endloop
  endfacet
  facet normal 0 1 -0
    outer loop
      vertex 93 49 0
      vertex 0 49 12
      vertex 93 49 12
    endloop
  endfacet
  facet normal 0 1 0
    outer loop
      vertex 0 49 12
      vertex 93 49 0
      vertex 0 49 0
    endloop
  endfacet
  facet normal 0 0 -1
    outer loop
      vertex 93 0 0
      vertex 87 6 0
      vertex 93 49 0
    endloop
  endfacet
  facet normal 0 0 -1
    outer loop
      vertex 93 0 0
      vertex 6 6 0
      vertex 87 6 0
    endloop
  endfacet
  facet normal -0 0 -1
    outer loop
      vertex 6 6 0
      vertex 0 0 0
      vertex 6 43 0
    endloop
  endfacet
  facet normal 0 0 -1
    outer loop
      vertex 0 0 0
      vertex 6 6 0
      vertex 93 0 0
    endloop
  endfacet
  facet normal 0 0 -1
    outer loop
      vertex 87 43 0
      vertex 93 49 0
      vertex 87 6 0
    endloop
  endfacet
  facet normal 0 0 -1
    outer loop
      vertex 6 43 0
      vertex 93 49 0
      vertex 87 43 0
    endloop
  endfacet
  facet normal 0 0 -1
    outer loop
      vertex 6 43 0
      vertex 0 49 0
      vertex 93 49 0
    endloop
  endfacet
  facet normal 0 0 -1
    outer loop
      vertex 0 49 0
      vertex 6 43 0
      vertex 0 0 0
    endloop
  endfacet
  facet normal 0 -1 0
    outer loop
      vertex 0 0 0
      vertex 93 0 12
      vertex 0 0 12
    endloop
  endfacet
  facet normal 0 -1 -0
    outer loop
      vertex 93 0 12
      vertex 0 0 0
      vertex 93 0 0
    endloop
  endfacet
  facet normal -0.994522 -0.10453 0
    outer loop
      vertex 10.75 9 4.7
      vertex 10.7118 9.36384 12
      vertex 10.7118 9.36384 4.7
    endloop
  endfacet
  facet normal -0.994522 -0.10453 0
    outer loop
      vertex 10.7118 9.36384 12
      vertex 10.75 9 4.7
      vertex 10.75 9 12
    endloop
  endfacet
  facet normal 0.994522 0.104528 0
    outer loop
      vertex 7.28824 8.63615 12
      vertex 7.25 9 4.7
      vertex 7.25 9 12
    endloop
  endfacet
  facet normal 0.994522 0.104528 0
    outer loop
      vertex 7.25 9 4.7
      vertex 7.28824 8.63615 12
      vertex 7.28824 8.63615 4.7
    endloop
  endfacet
  facet normal 0.207911 -0.978148 0
    outer loop
      vertex 8.45922 10.6643 4.7
      vertex 8.81707 10.7404 12
      vertex 8.45922 10.6643 12
    endloop
  endfacet
  facet normal 0.207911 -0.978148 0
    outer loop
      vertex 8.81707 10.7404 12
      vertex 8.45922 10.6643 4.7
      vertex 8.81707 10.7404 4.7
    endloop
  endfacet
  facet normal -0.207911 0.978148 0
    outer loop
      vertex 9.54078 7.33565 4.7
      vertex 9.18292 7.25959 12
      vertex 9.54078 7.33565 12
    endloop
  endfacet
  facet normal -0.207911 0.978148 0
    outer loop
      vertex 9.18292 7.25959 12
      vertex 9.54078 7.33565 4.7
      vertex 9.18292 7.25959 4.7
    endloop
  endfacet
  facet normal -0.587786 -0.809017 0
    outer loop
      vertex 9.875 10.5155 4.7
      vertex 10.171 10.3005 12
      vertex 9.875 10.5155 12
    endloop
  endfacet
  facet normal -0.587786 -0.809017 -0
    outer loop
      vertex 10.171 10.3005 12
      vertex 9.875 10.5155 4.7
      vertex 10.171 10.3005 4.7
    endloop
  endfacet
  facet normal 0.866025 -0.5 0
    outer loop
      vertex 7.40129 9.71179 12
      vertex 7.58422 10.0286 4.7
      vertex 7.58422 10.0286 12
    endloop
  endfacet
  facet normal 0.866025 -0.5 0
    outer loop
      vertex 7.58422 10.0286 4.7
      vertex 7.40129 9.71179 12
      vertex 7.40129 9.71179 4.7
    endloop
  endfacet
  facet normal 0.951057 -0.309016 0
    outer loop
      vertex 7.28824 9.36384 12
      vertex 7.40129 9.71179 4.7
      vertex 7.40129 9.71179 12
    endloop
  endfacet
  facet normal 0.951057 -0.309016 0
    outer loop
      vertex 7.40129 9.71179 4.7
      vertex 7.28824 9.36384 12
      vertex 7.28824 9.36384 4.7
    endloop
  endfacet
  facet normal 0.587784 -0.809018 0
    outer loop
      vertex 7.82902 10.3005 4.7
      vertex 8.125 10.5155 12
      vertex 7.82902 10.3005 12
    endloop
  endfacet
  facet normal 0.587784 -0.809018 0
    outer loop
      vertex 8.125 10.5155 12
      vertex 7.82902 10.3005 4.7
      vertex 8.125 10.5155 4.7
    endloop
  endfacet
  facet normal -0.866025 -0.5 0
    outer loop
      vertex 10.5987 9.71179 4.7
      vertex 10.4158 10.0286 12
      vertex 10.4158 10.0286 4.7
    endloop
  endfacet
  facet normal -0.866025 -0.5 0
    outer loop
      vertex 10.4158 10.0286 12
      vertex 10.5987 9.71179 4.7
      vertex 10.5987 9.71179 12
    endloop
  endfacet
  facet normal -0.951057 -0.309016 0
    outer loop
      vertex 10.7118 9.36384 4.7
      vertex 10.5987 9.71179 12
      vertex 10.5987 9.71179 4.7
    endloop
  endfacet
  facet normal -0.951057 -0.309016 0
    outer loop
      vertex 10.5987 9.71179 12
      vertex 10.7118 9.36384 4.7
      vertex 10.7118 9.36384 12
    endloop
  endfacet
  facet normal -0.743146 -0.66913 0
    outer loop
      vertex 10.4158 10.0286 4.7
      vertex 10.171 10.3005 12
      vertex 10.171 10.3005 4.7
    endloop
  endfacet
  facet normal -0.743146 -0.66913 0
    outer loop
      vertex 10.171 10.3005 12
      vertex 10.4158 10.0286 4.7
      vertex 10.4158 10.0286 12
    endloop
  endfacet
  facet normal -0.207911 -0.978148 0
    outer loop
      vertex 9.18292 10.7404 4.7
      vertex 9.54078 10.6643 12
      vertex 9.18292 10.7404 12
    endloop
  endfacet
  facet normal -0.207911 -0.978148 -0
    outer loop
      vertex 9.54078 10.6643 12
      vertex 9.18292 10.7404 4.7
      vertex 9.54078 10.6643 4.7
    endloop
  endfacet
  facet normal 0 -1 0
    outer loop
      vertex 8.81707 10.7404 4.7
      vertex 9.18292 10.7404 12
      vertex 8.81707 10.7404 12
    endloop
  endfacet
  facet normal 0 -1 -0
    outer loop
      vertex 9.18292 10.7404 12
      vertex 8.81707 10.7404 4.7
      vertex 9.18292 10.7404 4.7
    endloop
  endfacet
  facet normal -0.406737 -0.913546 0
    outer loop
      vertex 9.54078 10.6643 4.7
      vertex 9.875 10.5155 12
      vertex 9.54078 10.6643 12
    endloop
  endfacet
  facet normal -0.406737 -0.913546 -0
    outer loop
      vertex 9.875 10.5155 12
      vertex 9.54078 10.6643 4.7
      vertex 9.875 10.5155 4.7
    endloop
  endfacet
  facet normal 0.994522 -0.104528 0
    outer loop
      vertex 7.25 9 12
      vertex 7.28824 9.36384 4.7
      vertex 7.28824 9.36384 12
    endloop
  endfacet
  facet normal 0.994522 -0.104528 0
    outer loop
      vertex 7.28824 9.36384 4.7
      vertex 7.25 9 12
      vertex 7.25 9 4.7
    endloop
  endfacet
  facet normal 0.743146 -0.66913 0
    outer loop
      vertex 7.58422 10.0286 12
      vertex 7.82902 10.3005 4.7
      vertex 7.82902 10.3005 12
    endloop
  endfacet
  facet normal 0.743146 -0.66913 0
    outer loop
      vertex 7.82902 10.3005 4.7
      vertex 7.58422 10.0286 12
      vertex 7.58422 10.0286 4.7
    endloop
  endfacet
  facet normal 0.406737 -0.913545 0
    outer loop
      vertex 8.125 10.5155 4.7
      vertex 8.45922 10.6643 12
      vertex 8.125 10.5155 12
    endloop
  endfacet
  facet normal 0.406737 -0.913545 0
    outer loop
      vertex 8.45922 10.6643 12
      vertex 8.125 10.5155 4.7
      vertex 8.45922 10.6643 4.7
    endloop
  endfacet
  facet normal -0.994522 0.10453 0
    outer loop
      vertex 10.7118 8.63615 4.7
      vertex 10.75 9 12
      vertex 10.75 9 4.7
    endloop
  endfacet
  facet normal -0.994522 0.10453 0
    outer loop
      vertex 10.75 9 12
      vertex 10.7118 8.63615 4.7
      vertex 10.7118 8.63615 12
    endloop
  endfacet
  facet normal -0.406737 0.913546 0
    outer loop
      vertex 9.875 7.48446 4.7
      vertex 9.54078 7.33565 12
      vertex 9.875 7.48446 12
    endloop
  endfacet
  facet normal -0.406737 0.913546 0
    outer loop
      vertex 9.54078 7.33565 12
      vertex 9.875 7.48446 4.7
      vertex 9.54078 7.33565 4.7
    endloop
  endfacet
  facet normal -0.951057 0.309016 0
    outer loop
      vertex 10.5987 8.28821 4.7
      vertex 10.7118 8.63615 12
      vertex 10.7118 8.63615 4.7
    endloop
  endfacet
  facet normal -0.951057 0.309016 0
    outer loop
      vertex 10.7118 8.63615 12
      vertex 10.5987 8.28821 4.7
      vertex 10.5987 8.28821 12
    endloop
  endfacet
  facet normal -0.743146 0.66913 0
    outer loop
      vertex 10.171 7.6995 4.7
      vertex 10.4158 7.97138 12
      vertex 10.4158 7.97138 4.7
    endloop
  endfacet
  facet normal -0.743146 0.66913 0
    outer loop
      vertex 10.4158 7.97138 12
      vertex 10.171 7.6995 4.7
      vertex 10.171 7.6995 12
    endloop
  endfacet
  facet normal -0.587786 0.809017 0
    outer loop
      vertex 10.171 7.6995 4.7
      vertex 9.875 7.48446 12
      vertex 10.171 7.6995 12
    endloop
  endfacet
  facet normal -0.587786 0.809017 0
    outer loop
      vertex 9.875 7.48446 12
      vertex 10.171 7.6995 4.7
      vertex 9.875 7.48446 4.7
    endloop
  endfacet
  facet normal 0 1 -0
    outer loop
      vertex 9.18292 7.25959 4.7
      vertex 8.81707 7.25959 12
      vertex 9.18292 7.25959 12
    endloop
  endfacet
  facet normal 0 1 0
    outer loop
      vertex 8.81707 7.25959 12
      vertex 9.18292 7.25959 4.7
      vertex 8.81707 7.25959 4.7
    endloop
  endfacet
  facet normal 0.587784 0.809018 -0
    outer loop
      vertex 8.125 7.48446 4.7
      vertex 7.82902 7.6995 12
      vertex 8.125 7.48446 12
    endloop
  endfacet
  facet normal 0.587784 0.809018 0
    outer loop
      vertex 7.82902 7.6995 12
      vertex 8.125 7.48446 4.7
      vertex 7.82902 7.6995 4.7
    endloop
  endfacet
  facet normal 0.743146 0.66913 0
    outer loop
      vertex 7.82902 7.6995 12
      vertex 7.58422 7.97138 4.7
      vertex 7.58422 7.97138 12
    endloop
  endfacet
  facet normal 0.743146 0.66913 0
    outer loop
      vertex 7.58422 7.97138 4.7
      vertex 7.82902 7.6995 12
      vertex 7.82902 7.6995 4.7
    endloop
  endfacet
  facet normal 0.866025 0.5 0
    outer loop
      vertex 7.58422 7.97138 12
      vertex 7.40129 8.28821 4.7
      vertex 7.40129 8.28821 12
    endloop
  endfacet
  facet normal 0.866025 0.5 0
    outer loop
      vertex 7.40129 8.28821 4.7
      vertex 7.58422 7.97138 12
      vertex 7.58422 7.97138 4.7
    endloop
  endfacet
  facet normal 0.951057 0.309016 0
    outer loop
      vertex 7.40129 8.28821 12
      vertex 7.28824 8.63615 4.7
      vertex 7.28824 8.63615 12
    endloop
  endfacet
  facet normal 0.951057 0.309016 0
    outer loop
      vertex 7.28824 8.63615 4.7
      vertex 7.40129 8.28821 12
      vertex 7.40129 8.28821 4.7
    endloop
  endfacet
  facet normal -0.866025 0.5 0
    outer loop
      vertex 10.4158 7.97138 4.7
      vertex 10.5987 8.28821 12
      vertex 10.5987 8.28821 4.7
    endloop
  endfacet
  facet normal -0.866025 0.5 0
    outer loop
      vertex 10.5987 8.28821 12
      vertex 10.4158 7.97138 4.7
      vertex 10.4158 7.97138 12
    endloop
  endfacet
  facet normal 0.207911 0.978148 -0
    outer loop
      vertex 8.81707 7.25959 4.7
      vertex 8.45922 7.33565 12
      vertex 8.81707 7.25959 12
    endloop
  endfacet
  facet normal 0.207911 0.978148 0
    outer loop
      vertex 8.45922 7.33565 12
      vertex 8.81707 7.25959 4.7
      vertex 8.45922 7.33565 4.7
    endloop
  endfacet
  facet normal 0.406737 0.913545 -0
    outer loop
      vertex 8.45922 7.33565 4.7
      vertex 8.125 7.48446 12
      vertex 8.45922 7.33565 12
    endloop
  endfacet
  facet normal 0.406737 0.913545 0
    outer loop
      vertex 8.125 7.48446 12
      vertex 8.45922 7.33565 4.7
      vertex 8.125 7.48446 4.7
    endloop
  endfacet
  facet normal -0.994523 -0.10452 0
    outer loop
      vertex 85.75 9 4.7
      vertex 85.7118 9.36384 12
      vertex 85.7118 9.36384 4.7
    endloop
  endfacet
  facet normal -0.994523 -0.10452 0
    outer loop
      vertex 85.7118 9.36384 12
      vertex 85.75 9 4.7
      vertex 85.75 9 12
    endloop
  endfacet
  facet normal 0.994523 0.10452 0
    outer loop
      vertex 82.2882 8.63615 12
      vertex 82.25 9 4.7
      vertex 82.25 9 12
    endloop
  endfacet
  facet normal 0.994523 0.10452 0
    outer loop
      vertex 82.25 9 4.7
      vertex 82.2882 8.63615 12
      vertex 82.2882 8.63615 4.7
    endloop
  endfacet
  facet normal 0.20791 -0.978148 0
    outer loop
      vertex 83.4592 10.6643 4.7
      vertex 83.8171 10.7404 12
      vertex 83.4592 10.6643 12
    endloop
  endfacet
  facet normal 0.20791 -0.978148 0
    outer loop
      vertex 83.8171 10.7404 12
      vertex 83.4592 10.6643 4.7
      vertex 83.8171 10.7404 4.7
    endloop
  endfacet
  facet normal -0.20791 0.978148 0
    outer loop
      vertex 84.5408 7.33565 4.7
      vertex 84.1829 7.25959 12
      vertex 84.5408 7.33565 12
    endloop
  endfacet
  facet normal -0.20791 0.978148 0
    outer loop
      vertex 84.1829 7.25959 12
      vertex 84.5408 7.33565 4.7
      vertex 84.1829 7.25959 4.7
    endloop
  endfacet
  facet normal -0.58779 -0.809013 0
    outer loop
      vertex 84.875 10.5155 4.7
      vertex 85.171 10.3005 12
      vertex 84.875 10.5155 12
    endloop
  endfacet
  facet normal -0.58779 -0.809013 -0
    outer loop
      vertex 85.171 10.3005 12
      vertex 84.875 10.5155 4.7
      vertex 85.171 10.3005 4.7
    endloop
  endfacet
  facet normal 0.86602 -0.50001 0
    outer loop
      vertex 82.4013 9.71179 12
      vertex 82.5842 10.0286 4.7
      vertex 82.5842 10.0286 12
    endloop
  endfacet
  facet normal 0.86602 -0.50001 0
    outer loop
      vertex 82.5842 10.0286 4.7
      vertex 82.4013 9.71179 12
      vertex 82.4013 9.71179 4.7
    endloop
  endfacet
  facet normal 0.951058 -0.309014 0
    outer loop
      vertex 82.2882 9.36384 12
      vertex 82.4013 9.71179 4.7
      vertex 82.4013 9.71179 12
    endloop
  endfacet
  facet normal 0.951058 -0.309014 0
    outer loop
      vertex 82.4013 9.71179 4.7
      vertex 82.2882 9.36384 12
      vertex 82.2882 9.36384 4.7
    endloop
  endfacet
  facet normal 0.587781 -0.80902 0
    outer loop
      vertex 82.829 10.3005 4.7
      vertex 83.125 10.5155 12
      vertex 82.829 10.3005 12
    endloop
  endfacet
  facet normal 0.587781 -0.80902 0
    outer loop
      vertex 83.125 10.5155 12
      vertex 82.829 10.3005 4.7
      vertex 83.125 10.5155 4.7
    endloop
  endfacet
  facet normal -0.866029 -0.499995 0
    outer loop
      vertex 85.5987 9.71179 4.7
      vertex 85.4158 10.0286 12
      vertex 85.4158 10.0286 4.7
    endloop
  endfacet
  facet normal -0.866029 -0.499995 0
    outer loop
      vertex 85.4158 10.0286 12
      vertex 85.5987 9.71179 4.7
      vertex 85.5987 9.71179 12
    endloop
  endfacet
  facet normal -0.951051 -0.309033 0
    outer loop
      vertex 85.7118 9.36384 4.7
      vertex 85.5987 9.71179 12
      vertex 85.5987 9.71179 4.7
    endloop
  endfacet
  facet normal -0.951051 -0.309033 0
    outer loop
      vertex 85.5987 9.71179 12
      vertex 85.7118 9.36384 4.7
      vertex 85.7118 9.36384 12
    endloop
  endfacet
  facet normal -0.74314 -0.669136 0
    outer loop
      vertex 85.4158 10.0286 4.7
      vertex 85.171 10.3005 12
      vertex 85.171 10.3005 4.7
    endloop
  endfacet
  facet normal -0.74314 -0.669136 0
    outer loop
      vertex 85.171 10.3005 12
      vertex 85.4158 10.0286 4.7
      vertex 85.4158 10.0286 12
    endloop
  endfacet
  facet normal -0.20791 -0.978148 0
    outer loop
      vertex 84.1829 10.7404 4.7
      vertex 84.5408 10.6643 12
      vertex 84.1829 10.7404 12
    endloop
  endfacet
  facet normal -0.20791 -0.978148 -0
    outer loop
      vertex 84.5408 10.6643 12
      vertex 84.1829 10.7404 4.7
      vertex 84.5408 10.6643 4.7
    endloop
  endfacet
  facet normal 0 -1 0
    outer loop
      vertex 83.8171 10.7404 4.7
      vertex 84.1829 10.7404 12
      vertex 83.8171 10.7404 12
    endloop
  endfacet
  facet normal 0 -1 -0
    outer loop
      vertex 84.1829 10.7404 12
      vertex 83.8171 10.7404 4.7
      vertex 84.1829 10.7404 4.7
    endloop
  endfacet
  facet normal -0.406737 -0.913546 0
    outer loop
      vertex 84.5408 10.6643 4.7
      vertex 84.875 10.5155 12
      vertex 84.5408 10.6643 12
    endloop
  endfacet
  facet normal -0.406737 -0.913546 -0
    outer loop
      vertex 84.875 10.5155 12
      vertex 84.5408 10.6643 4.7
      vertex 84.875 10.5155 4.7
    endloop
  endfacet
  facet normal 0.994523 -0.10452 0
    outer loop
      vertex 82.25 9 12
      vertex 82.2882 9.36384 4.7
      vertex 82.2882 9.36384 12
    endloop
  endfacet
  facet normal 0.994523 -0.10452 0
    outer loop
      vertex 82.2882 9.36384 4.7
      vertex 82.25 9 12
      vertex 82.25 9 4.7
    endloop
  endfacet
  facet normal 0.743151 -0.669124 0
    outer loop
      vertex 82.5842 10.0286 12
      vertex 82.829 10.3005 4.7
      vertex 82.829 10.3005 12
    endloop
  endfacet
  facet normal 0.743151 -0.669124 0
    outer loop
      vertex 82.829 10.3005 4.7
      vertex 82.5842 10.0286 12
      vertex 82.5842 10.0286 4.7
    endloop
  endfacet
  facet normal 0.406737 -0.913546 0
    outer loop
      vertex 83.125 10.5155 4.7
      vertex 83.4592 10.6643 12
      vertex 83.125 10.5155 12
    endloop
  endfacet
  facet normal 0.406737 -0.913546 0
    outer loop
      vertex 83.4592 10.6643 12
      vertex 83.125 10.5155 4.7
      vertex 83.4592 10.6643 4.7
    endloop
  endfacet
  facet normal -0.994523 0.10452 0
    outer loop
      vertex 85.7118 8.63615 4.7
      vertex 85.75 9 12
      vertex 85.75 9 4.7
    endloop
  endfacet
  facet normal -0.994523 0.10452 0
    outer loop
      vertex 85.75 9 12
      vertex 85.7118 8.63615 4.7
      vertex 85.7118 8.63615 12
    endloop
  endfacet
  facet normal 0.951058 0.309014 0
    outer loop
      vertex 82.4013 8.28821 12
      vertex 82.2882 8.63615 4.7
      vertex 82.2882 8.63615 12
    endloop
  endfacet
  facet normal 0.951058 0.309014 0
    outer loop
      vertex 82.2882 8.63615 4.7
      vertex 82.4013 8.28821 12
      vertex 82.4013 8.28821 4.7
    endloop
  endfacet
  facet normal -0.406737 0.913546 0
    outer loop
      vertex 84.875 7.48446 4.7
      vertex 84.5408 7.33565 12
      vertex 84.875 7.48446 12
    endloop
  endfacet
  facet normal -0.406737 0.913546 0
    outer loop
      vertex 84.5408 7.33565 12
      vertex 84.875 7.48446 4.7
      vertex 84.5408 7.33565 4.7
    endloop
  endfacet
  facet normal -0.951051 0.309033 0
    outer loop
      vertex 85.5987 8.28821 4.7
      vertex 85.7118 8.63615 12
      vertex 85.7118 8.63615 4.7
    endloop
  endfacet
  facet normal -0.951051 0.309033 0
    outer loop
      vertex 85.7118 8.63615 12
      vertex 85.5987 8.28821 4.7
      vertex 85.5987 8.28821 12
    endloop
  endfacet
  facet normal -0.74314 0.669136 0
    outer loop
      vertex 85.171 7.6995 4.7
      vertex 85.4158 7.97138 12
      vertex 85.4158 7.97138 4.7
    endloop
  endfacet
  facet normal -0.74314 0.669136 0
    outer loop
      vertex 85.4158 7.97138 12
      vertex 85.171 7.6995 4.7
      vertex 85.171 7.6995 12
    endloop
  endfacet
  facet normal -0.58779 0.809013 0
    outer loop
      vertex 85.171 7.6995 4.7
      vertex 84.875 7.48446 12
      vertex 85.171 7.6995 12
    endloop
  endfacet
  facet normal -0.58779 0.809013 0
    outer loop
      vertex 84.875 7.48446 12
      vertex 85.171 7.6995 4.7
      vertex 84.875 7.48446 4.7
    endloop
  endfacet
  facet normal 0.587781 0.80902 -0
    outer loop
      vertex 83.125 7.48446 4.7
      vertex 82.829 7.6995 12
      vertex 83.125 7.48446 12
    endloop
  endfacet
  facet normal 0.587781 0.80902 0
    outer loop
      vertex 82.829 7.6995 12
      vertex 83.125 7.48446 4.7
      vertex 82.829 7.6995 4.7
    endloop
  endfacet
  facet normal 0.743151 0.669124 0
    outer loop
      vertex 82.829 7.6995 12
      vertex 82.5842 7.97138 4.7
      vertex 82.5842 7.97138 12
    endloop
  endfacet
  facet normal 0.743151 0.669124 0
    outer loop
      vertex 82.5842 7.97138 4.7
      vertex 82.829 7.6995 12
      vertex 82.829 7.6995 4.7
    endloop
  endfacet
  facet normal 0.86602 0.50001 0
    outer loop
      vertex 82.5842 7.97138 12
      vertex 82.4013 8.28821 4.7
      vertex 82.4013 8.28821 12
    endloop
  endfacet
  facet normal 0.86602 0.50001 0
    outer loop
      vertex 82.4013 8.28821 4.7
      vertex 82.5842 7.97138 12
      vertex 82.5842 7.97138 4.7
    endloop
  endfacet
  facet normal -0.866029 0.499995 0
    outer loop
      vertex 85.4158 7.97138 4.7
      vertex 85.5987 8.28821 12
      vertex 85.5987 8.28821 4.7
    endloop
  endfacet
  facet normal -0.866029 0.499995 0
    outer loop
      vertex 85.5987 8.28821 12
      vertex 85.4158 7.97138 4.7
      vertex 85.4158 7.97138 12
    endloop
  endfacet
  facet normal 0.406737 0.913546 -0
    outer loop
      vertex 83.4592 7.33565 4.7
      vertex 83.125 7.48446 12
      vertex 83.4592 7.33565 12
    endloop
  endfacet
  facet normal 0.406737 0.913546 0
    outer loop
      vertex 83.125 7.48446 12
      vertex 83.4592 7.33565 4.7
      vertex 83.125 7.48446 4.7
    endloop
  endfacet
  facet normal 0.20791 0.978148 -0
    outer loop
      vertex 83.8171 7.25959 4.7
      vertex 83.4592 7.33565 12
      vertex 83.8171 7.25959 12
    endloop
  endfacet
  facet normal 0.20791 0.978148 0
    outer loop
      vertex 83.4592 7.33565 12
      vertex 83.8171 7.25959 4.7
      vertex 83.4592 7.33565 4.7
    endloop
  endfacet
  facet normal 0 1 -0
    outer loop
      vertex 84.1829 7.25959 4.7
      vertex 83.8171 7.25959 12
      vertex 84.1829 7.25959 12
    endloop
  endfacet
  facet normal 0 1 0
    outer loop
      vertex 83.8171 7.25959 12
      vertex 84.1829 7.25959 4.7
      vertex 83.8171 7.25959 4.7
    endloop
  endfacet
  facet normal -0.994523 -0.10452 0
    outer loop
      vertex 85.75 40 4.7
      vertex 85.7118 40.3638 12
      vertex 85.7118 40.3638 4.7
    endloop
  endfacet
  facet normal -0.994523 -0.10452 0
    outer loop
      vertex 85.7118 40.3638 12
      vertex 85.75 40 4.7
      vertex 85.75 40 12
    endloop
  endfacet
  facet normal 0.207912 -0.978147 0
    outer loop
      vertex 83.4592 41.6643 4.7
      vertex 83.8171 41.7404 12
      vertex 83.4592 41.6643 12
    endloop
  endfacet
  facet normal 0.207912 -0.978147 0
    outer loop
      vertex 83.8171 41.7404 12
      vertex 83.4592 41.6643 4.7
      vertex 83.8171 41.7404 4.7
    endloop
  endfacet
  facet normal -0.587792 -0.809012 0
    outer loop
      vertex 84.875 41.5155 4.7
      vertex 85.171 41.3005 12
      vertex 84.875 41.5155 12
    endloop
  endfacet
  facet normal -0.587792 -0.809012 -0
    outer loop
      vertex 85.171 41.3005 12
      vertex 84.875 41.5155 4.7
      vertex 85.171 41.3005 4.7
    endloop
  endfacet
  facet normal 0.866021 -0.500008 0
    outer loop
      vertex 82.4013 40.7118 12
      vertex 82.5842 41.0286 4.7
      vertex 82.5842 41.0286 12
    endloop
  endfacet
  facet normal 0.866021 -0.500008 0
    outer loop
      vertex 82.5842 41.0286 4.7
      vertex 82.4013 40.7118 12
      vertex 82.4013 40.7118 4.7
    endloop
  endfacet
  facet normal 0.951057 -0.309015 0
    outer loop
      vertex 82.2882 40.3638 12
      vertex 82.4013 40.7118 4.7
      vertex 82.4013 40.7118 12
    endloop
  endfacet
  facet normal 0.951057 -0.309015 0
    outer loop
      vertex 82.4013 40.7118 4.7
      vertex 82.2882 40.3638 12
      vertex 82.2882 40.3638 4.7
    endloop
  endfacet
  facet normal 0.587782 -0.809019 0
    outer loop
      vertex 82.829 41.3005 4.7
      vertex 83.125 41.5155 12
      vertex 82.829 41.3005 12
    endloop
  endfacet
  facet normal 0.587782 -0.809019 0
    outer loop
      vertex 83.125 41.5155 12
      vertex 82.829 41.3005 4.7
      vertex 83.125 41.5155 4.7
    endloop
  endfacet
  facet normal -0.86603 0.499992 0
    outer loop
      vertex 85.4158 38.9714 4.7
      vertex 85.5987 39.2882 12
      vertex 85.5987 39.2882 4.7
    endloop
  endfacet
  facet normal -0.86603 0.499992 0
    outer loop
      vertex 85.5987 39.2882 12
      vertex 85.4158 38.9714 4.7
      vertex 85.4158 38.9714 12
    endloop
  endfacet
  facet normal -0.86603 -0.499992 0
    outer loop
      vertex 85.5987 40.7118 4.7
      vertex 85.4158 41.0286 12
      vertex 85.4158 41.0286 4.7
    endloop
  endfacet
  facet normal -0.86603 -0.499992 0
    outer loop
      vertex 85.4158 41.0286 12
      vertex 85.5987 40.7118 4.7
      vertex 85.5987 40.7118 12
    endloop
  endfacet
  facet normal -0.951051 -0.309033 0
    outer loop
      vertex 85.7118 40.3638 4.7
      vertex 85.5987 40.7118 12
      vertex 85.5987 40.7118 4.7
    endloop
  endfacet
  facet normal -0.951051 -0.309033 0
    outer loop
      vertex 85.5987 40.7118 12
      vertex 85.7118 40.3638 4.7
      vertex 85.7118 40.3638 12
    endloop
  endfacet
  facet normal -0.743138 -0.669138 0
    outer loop
      vertex 85.4158 41.0286 4.7
      vertex 85.171 41.3005 12
      vertex 85.171 41.3005 4.7
    endloop
  endfacet
  facet normal -0.743138 -0.669138 0
    outer loop
      vertex 85.171 41.3005 12
      vertex 85.4158 41.0286 4.7
      vertex 85.4158 41.0286 12
    endloop
  endfacet
  facet normal -0.207912 -0.978147 0
    outer loop
      vertex 84.1829 41.7404 4.7
      vertex 84.5408 41.6643 12
      vertex 84.1829 41.7404 12
    endloop
  endfacet
  facet normal -0.207912 -0.978147 -0
    outer loop
      vertex 84.5408 41.6643 12
      vertex 84.1829 41.7404 4.7
      vertex 84.5408 41.6643 4.7
    endloop
  endfacet
  facet normal 0 -1 0
    outer loop
      vertex 83.8171 41.7404 4.7
      vertex 84.1829 41.7404 12
      vertex 83.8171 41.7404 12
    endloop
  endfacet
  facet normal 0 -1 -0
    outer loop
      vertex 84.1829 41.7404 12
      vertex 83.8171 41.7404 4.7
      vertex 84.1829 41.7404 4.7
    endloop
  endfacet
  facet normal -0.406734 -0.913546 0
    outer loop
      vertex 84.5408 41.6643 4.7
      vertex 84.875 41.5155 12
      vertex 84.5408 41.6643 12
    endloop
  endfacet
  facet normal -0.406734 -0.913546 -0
    outer loop
      vertex 84.875 41.5155 12
      vertex 84.5408 41.6643 4.7
      vertex 84.875 41.5155 4.7
    endloop
  endfacet
  facet normal 0.994523 -0.10452 0
    outer loop
      vertex 82.25 40 12
      vertex 82.2882 40.3638 4.7
      vertex 82.2882 40.3638 12
    endloop
  endfacet
  facet normal 0.994523 -0.10452 0
    outer loop
      vertex 82.2882 40.3638 4.7
      vertex 82.25 40 12
      vertex 82.25 40 4.7
    endloop
  endfacet
  facet normal 0.743148 -0.669127 0
    outer loop
      vertex 82.5842 41.0286 12
      vertex 82.829 41.3005 4.7
      vertex 82.829 41.3005 12
    endloop
  endfacet
  facet normal 0.743148 -0.669127 0
    outer loop
      vertex 82.829 41.3005 4.7
      vertex 82.5842 41.0286 12
      vertex 82.5842 41.0286 4.7
    endloop
  endfacet
  facet normal 0.406734 -0.913546 0
    outer loop
      vertex 83.125 41.5155 4.7
      vertex 83.4592 41.6643 12
      vertex 83.125 41.5155 12
    endloop
  endfacet
  facet normal 0.406734 -0.913546 0
    outer loop
      vertex 83.4592 41.6643 12
      vertex 83.125 41.5155 4.7
      vertex 83.4592 41.6643 4.7
    endloop
  endfacet
  facet normal 0 1 -0
    outer loop
      vertex 84.1829 38.2596 4.7
      vertex 83.8171 38.2596 12
      vertex 84.1829 38.2596 12
    endloop
  endfacet
  facet normal 0 1 0
    outer loop
      vertex 83.8171 38.2596 12
      vertex 84.1829 38.2596 4.7
      vertex 83.8171 38.2596 4.7
    endloop
  endfacet
  facet normal 0.951057 0.309015 0
    outer loop
      vertex 82.4013 39.2882 12
      vertex 82.2882 39.6362 4.7
      vertex 82.2882 39.6362 12
    endloop
  endfacet
  facet normal 0.951057 0.309015 0
    outer loop
      vertex 82.2882 39.6362 4.7
      vertex 82.4013 39.2882 12
      vertex 82.4013 39.2882 4.7
    endloop
  endfacet
  facet normal -0.406734 0.913546 0
    outer loop
      vertex 84.875 38.4845 4.7
      vertex 84.5408 38.3357 12
      vertex 84.875 38.4845 12
    endloop
  endfacet
  facet normal -0.406734 0.913546 0
    outer loop
      vertex 84.5408 38.3357 12
      vertex 84.875 38.4845 4.7
      vertex 84.5408 38.3357 4.7
    endloop
  endfacet
  facet normal -0.951051 0.309033 0
    outer loop
      vertex 85.5987 39.2882 4.7
      vertex 85.7118 39.6362 12
      vertex 85.7118 39.6362 4.7
    endloop
  endfacet
  facet normal -0.951051 0.309033 0
    outer loop
      vertex 85.7118 39.6362 12
      vertex 85.5987 39.2882 4.7
      vertex 85.5987 39.2882 12
    endloop
  endfacet
  facet normal 0.994523 0.10452 0
    outer loop
      vertex 82.2882 39.6362 12
      vertex 82.25 40 4.7
      vertex 82.25 40 12
    endloop
  endfacet
  facet normal 0.994523 0.10452 0
    outer loop
      vertex 82.25 40 4.7
      vertex 82.2882 39.6362 12
      vertex 82.2882 39.6362 4.7
    endloop
  endfacet
  facet normal 0.743148 0.669127 0
    outer loop
      vertex 82.829 38.6995 12
      vertex 82.5842 38.9714 4.7
      vertex 82.5842 38.9714 12
    endloop
  endfacet
  facet normal 0.743148 0.669127 0
    outer loop
      vertex 82.5842 38.9714 4.7
      vertex 82.829 38.6995 12
      vertex 82.829 38.6995 4.7
    endloop
  endfacet
  facet normal 0.866021 0.500008 0
    outer loop
      vertex 82.5842 38.9714 12
      vertex 82.4013 39.2882 4.7
      vertex 82.4013 39.2882 12
    endloop
  endfacet
  facet normal 0.866021 0.500008 0
    outer loop
      vertex 82.4013 39.2882 4.7
      vertex 82.5842 38.9714 12
      vertex 82.5842 38.9714 4.7
    endloop
  endfacet
  facet normal -0.743138 0.669138 0
    outer loop
      vertex 85.171 38.6995 4.7
      vertex 85.4158 38.9714 12
      vertex 85.4158 38.9714 4.7
    endloop
  endfacet
  facet normal -0.743138 0.669138 0
    outer loop
      vertex 85.4158 38.9714 12
      vertex 85.171 38.6995 4.7
      vertex 85.171 38.6995 12
    endloop
  endfacet
  facet normal -0.587792 0.809012 0
    outer loop
      vertex 85.171 38.6995 4.7
      vertex 84.875 38.4845 12
      vertex 85.171 38.6995 12
    endloop
  endfacet
  facet normal -0.587792 0.809012 0
    outer loop
      vertex 84.875 38.4845 12
      vertex 85.171 38.6995 4.7
      vertex 84.875 38.4845 4.7
    endloop
  endfacet
  facet normal -0.994523 0.10452 0
    outer loop
      vertex 85.7118 39.6362 4.7
      vertex 85.75 40 12
      vertex 85.75 40 4.7
    endloop
  endfacet
  facet normal -0.994523 0.10452 0
    outer loop
      vertex 85.75 40 12
      vertex 85.7118 39.6362 4.7
      vertex 85.7118 39.6362 12
    endloop
  endfacet
  facet normal -0.207912 0.978147 0
    outer loop
      vertex 84.5408 38.3357 4.7
      vertex 84.1829 38.2596 12
      vertex 84.5408 38.3357 12
    endloop
  endfacet
  facet normal -0.207912 0.978147 0
    outer loop
      vertex 84.1829 38.2596 12
      vertex 84.5408 38.3357 4.7
      vertex 84.1829 38.2596 4.7
    endloop
  endfacet
  facet normal 0.207912 0.978147 -0
    outer loop
      vertex 83.8171 38.2596 4.7
      vertex 83.4592 38.3357 12
      vertex 83.8171 38.2596 12
    endloop
  endfacet
  facet normal 0.207912 0.978147 0
    outer loop
      vertex 83.4592 38.3357 12
      vertex 83.8171 38.2596 4.7
      vertex 83.4592 38.3357 4.7
    endloop
  endfacet
  facet normal 0.587782 0.809019 -0
    outer loop
      vertex 83.125 38.4845 4.7
      vertex 82.829 38.6995 12
      vertex 83.125 38.4845 12
    endloop
  endfacet
  facet normal 0.587782 0.809019 0
    outer loop
      vertex 82.829 38.6995 12
      vertex 83.125 38.4845 4.7
      vertex 82.829 38.6995 4.7
    endloop
  endfacet
  facet normal 0.406734 0.913546 -0
    outer loop
      vertex 83.4592 38.3357 4.7
      vertex 83.125 38.4845 12
      vertex 83.4592 38.3357 12
    endloop
  endfacet
  facet normal 0.406734 0.913546 0
    outer loop
      vertex 83.125 38.4845 12
      vertex 83.4592 38.3357 4.7
      vertex 83.125 38.4845 4.7
    endloop
  endfacet
  facet normal -0.994522 -0.10453 0
    outer loop
      vertex 10.75 40 4.7
      vertex 10.7118 40.3638 12
      vertex 10.7118 40.3638 4.7
    endloop
  endfacet
  facet normal -0.994522 -0.10453 0
    outer loop
      vertex 10.7118 40.3638 12
      vertex 10.75 40 4.7
      vertex 10.75 40 12
    endloop
  endfacet
  facet normal 0.207913 -0.978147 0
    outer loop
      vertex 8.45922 41.6643 4.7
      vertex 8.81707 41.7404 12
      vertex 8.45922 41.6643 12
    endloop
  endfacet
  facet normal 0.207913 -0.978147 0
    outer loop
      vertex 8.81707 41.7404 12
      vertex 8.45922 41.6643 4.7
      vertex 8.81707 41.7404 4.7
    endloop
  endfacet
  facet normal -0.207913 0.978147 0
    outer loop
      vertex 9.54078 38.3357 4.7
      vertex 9.18292 38.2596 12
      vertex 9.54078 38.3357 12
    endloop
  endfacet
  facet normal -0.207913 0.978147 0
    outer loop
      vertex 9.18292 38.2596 12
      vertex 9.54078 38.3357 4.7
      vertex 9.18292 38.2596 4.7
    endloop
  endfacet
  facet normal -0.587787 -0.809016 0
    outer loop
      vertex 9.875 41.5155 4.7
      vertex 10.171 41.3005 12
      vertex 9.875 41.5155 12
    endloop
  endfacet
  facet normal -0.587787 -0.809016 -0
    outer loop
      vertex 10.171 41.3005 12
      vertex 9.875 41.5155 4.7
      vertex 10.171 41.3005 4.7
    endloop
  endfacet
  facet normal 0.866026 -0.499998 0
    outer loop
      vertex 7.40129 40.7118 12
      vertex 7.58422 41.0286 4.7
      vertex 7.58422 41.0286 12
    endloop
  endfacet
  facet normal 0.866026 -0.499998 0
    outer loop
      vertex 7.58422 41.0286 4.7
      vertex 7.40129 40.7118 12
      vertex 7.40129 40.7118 4.7
    endloop
  endfacet
  facet normal 0.951057 -0.309017 0
    outer loop
      vertex 7.28824 40.3638 12
      vertex 7.40129 40.7118 4.7
      vertex 7.40129 40.7118 12
    endloop
  endfacet
  facet normal 0.951057 -0.309017 0
    outer loop
      vertex 7.40129 40.7118 4.7
      vertex 7.28824 40.3638 12
      vertex 7.28824 40.3638 4.7
    endloop
  endfacet
  facet normal 0.587786 -0.809016 0
    outer loop
      vertex 7.82902 41.3005 4.7
      vertex 8.125 41.5155 12
      vertex 7.82902 41.3005 12
    endloop
  endfacet
  facet normal 0.587786 -0.809016 0
    outer loop
      vertex 8.125 41.5155 12
      vertex 7.82902 41.3005 4.7
      vertex 8.125 41.5155 4.7
    endloop
  endfacet
  facet normal -0.866026 -0.499998 0
    outer loop
      vertex 10.5987 40.7118 4.7
      vertex 10.4158 41.0286 12
      vertex 10.4158 41.0286 4.7
    endloop
  endfacet
  facet normal -0.866026 -0.499998 0
    outer loop
      vertex 10.4158 41.0286 12
      vertex 10.5987 40.7118 4.7
      vertex 10.5987 40.7118 12
    endloop
  endfacet
  facet normal -0.951057 -0.309017 0
    outer loop
      vertex 10.7118 40.3638 4.7
      vertex 10.5987 40.7118 12
      vertex 10.5987 40.7118 4.7
    endloop
  endfacet
  facet normal -0.951057 -0.309017 0
    outer loop
      vertex 10.5987 40.7118 12
      vertex 10.7118 40.3638 4.7
      vertex 10.7118 40.3638 12
    endloop
  endfacet
  facet normal -0.743143 -0.669132 0
    outer loop
      vertex 10.4158 41.0286 4.7
      vertex 10.171 41.3005 12
      vertex 10.171 41.3005 4.7
    endloop
  endfacet
  facet normal -0.743143 -0.669132 0
    outer loop
      vertex 10.171 41.3005 12
      vertex 10.4158 41.0286 4.7
      vertex 10.4158 41.0286 12
    endloop
  endfacet
  facet normal -0.207913 -0.978147 0
    outer loop
      vertex 9.18292 41.7404 4.7
      vertex 9.54078 41.6643 12
      vertex 9.18292 41.7404 12
    endloop
  endfacet
  facet normal -0.207913 -0.978147 -0
    outer loop
      vertex 9.54078 41.6643 12
      vertex 9.18292 41.7404 4.7
      vertex 9.54078 41.6643 4.7
    endloop
  endfacet
  facet normal 0 -1 0
    outer loop
      vertex 8.81707 41.7404 4.7
      vertex 9.18292 41.7404 12
      vertex 8.81707 41.7404 12
    endloop
  endfacet
  facet normal 0 -1 -0
    outer loop
      vertex 9.18292 41.7404 12
      vertex 8.81707 41.7404 4.7
      vertex 9.18292 41.7404 4.7
    endloop
  endfacet
  facet normal -0.406734 -0.913546 0
    outer loop
      vertex 9.54078 41.6643 4.7
      vertex 9.875 41.5155 12
      vertex 9.54078 41.6643 12
    endloop
  endfacet
  facet normal -0.406734 -0.913546 -0
    outer loop
      vertex 9.875 41.5155 12
      vertex 9.54078 41.6643 4.7
      vertex 9.875 41.5155 4.7
    endloop
  endfacet
  facet normal 0.994522 -0.104528 0
    outer loop
      vertex 7.25 40 12
      vertex 7.28824 40.3638 4.7
      vertex 7.28824 40.3638 12
    endloop
  endfacet
  facet normal 0.994522 -0.104528 0
    outer loop
      vertex 7.28824 40.3638 4.7
      vertex 7.25 40 12
      vertex 7.25 40 4.7
    endloop
  endfacet
  facet normal 0.743143 -0.669132 0
    outer loop
      vertex 7.58422 41.0286 12
      vertex 7.82902 41.3005 4.7
      vertex 7.82902 41.3005 12
    endloop
  endfacet
  facet normal 0.743143 -0.669132 0
    outer loop
      vertex 7.82902 41.3005 4.7
      vertex 7.58422 41.0286 12
      vertex 7.58422 41.0286 4.7
    endloop
  endfacet
  facet normal 0.406735 -0.913546 0
    outer loop
      vertex 8.125 41.5155 4.7
      vertex 8.45922 41.6643 12
      vertex 8.125 41.5155 12
    endloop
  endfacet
  facet normal 0.406735 -0.913546 0
    outer loop
      vertex 8.45922 41.6643 12
      vertex 8.125 41.5155 4.7
      vertex 8.45922 41.6643 4.7
    endloop
  endfacet
  facet normal -0.994522 0.10453 0
    outer loop
      vertex 10.7118 39.6362 4.7
      vertex 10.75 40 12
      vertex 10.75 40 4.7
    endloop
  endfacet
  facet normal -0.994522 0.10453 0
    outer loop
      vertex 10.75 40 12
      vertex 10.7118 39.6362 4.7
      vertex 10.7118 39.6362 12
    endloop
  endfacet
  facet normal 0.951057 0.309017 0
    outer loop
      vertex 7.40129 39.2882 12
      vertex 7.28824 39.6362 4.7
      vertex 7.28824 39.6362 12
    endloop
  endfacet
  facet normal 0.951057 0.309017 0
    outer loop
      vertex 7.28824 39.6362 4.7
      vertex 7.40129 39.2882 12
      vertex 7.40129 39.2882 4.7
    endloop
  endfacet
  facet normal -0.406734 0.913546 0
    outer loop
      vertex 9.875 38.4845 4.7
      vertex 9.54078 38.3357 12
      vertex 9.875 38.4845 12
    endloop
  endfacet
  facet normal -0.406734 0.913546 0
    outer loop
      vertex 9.54078 38.3357 12
      vertex 9.875 38.4845 4.7
      vertex 9.54078 38.3357 4.7
    endloop
  endfacet
  facet normal -0.951057 0.309017 0
    outer loop
      vertex 10.5987 39.2882 4.7
      vertex 10.7118 39.6362 12
      vertex 10.7118 39.6362 4.7
    endloop
  endfacet
  facet normal -0.951057 0.309017 0
    outer loop
      vertex 10.7118 39.6362 12
      vertex 10.5987 39.2882 4.7
      vertex 10.5987 39.2882 12
    endloop
  endfacet
  facet normal 0.994522 0.104528 0
    outer loop
      vertex 7.28824 39.6362 12
      vertex 7.25 40 4.7
      vertex 7.25 40 12
    endloop
  endfacet
  facet normal 0.994522 0.104528 0
    outer loop
      vertex 7.25 40 4.7
      vertex 7.28824 39.6362 12
      vertex 7.28824 39.6362 4.7
    endloop
  endfacet
  facet normal -0.743143 0.669132 0
    outer loop
      vertex 10.171 38.6995 4.7
      vertex 10.4158 38.9714 12
      vertex 10.4158 38.9714 4.7
    endloop
  endfacet
  facet normal -0.743143 0.669132 0
    outer loop
      vertex 10.4158 38.9714 12
      vertex 10.171 38.6995 4.7
      vertex 10.171 38.6995 12
    endloop
  endfacet
  facet normal -0.587787 0.809016 0
    outer loop
      vertex 10.171 38.6995 4.7
      vertex 9.875 38.4845 12
      vertex 10.171 38.6995 12
    endloop
  endfacet
  facet normal -0.587787 0.809016 0
    outer loop
      vertex 9.875 38.4845 12
      vertex 10.171 38.6995 4.7
      vertex 9.875 38.4845 4.7
    endloop
  endfacet
  facet normal 0 1 -0
    outer loop
      vertex 9.18292 38.2596 4.7
      vertex 8.81707 38.2596 12
      vertex 9.18292 38.2596 12
    endloop
  endfacet
  facet normal 0 1 0
    outer loop
      vertex 8.81707 38.2596 12
      vertex 9.18292 38.2596 4.7
      vertex 8.81707 38.2596 4.7
    endloop
  endfacet
  facet normal 0.587786 0.809016 -0
    outer loop
      vertex 8.125 38.4845 4.7
      vertex 7.82902 38.6995 12
      vertex 8.125 38.4845 12
    endloop
  endfacet
  facet normal 0.587786 0.809016 0
    outer loop
      vertex 7.82902 38.6995 12
      vertex 8.125 38.4845 4.7
      vertex 7.82902 38.6995 4.7
    endloop
  endfacet
  facet normal 0.743143 0.669132 0
    outer loop
      vertex 7.82902 38.6995 12
      vertex 7.58422 38.9714 4.7
      vertex 7.58422 38.9714 12
    endloop
  endfacet
  facet normal 0.743143 0.669132 0
    outer loop
      vertex 7.58422 38.9714 4.7
      vertex 7.82902 38.6995 12
      vertex 7.82902 38.6995 4.7
    endloop
  endfacet
  facet normal 0.866026 0.499998 0
    outer loop
      vertex 7.58422 38.9714 12
      vertex 7.40129 39.2882 4.7
      vertex 7.40129 39.2882 12
    endloop
  endfacet
  facet normal 0.866026 0.499998 0
    outer loop
      vertex 7.40129 39.2882 4.7
      vertex 7.58422 38.9714 12
      vertex 7.58422 38.9714 4.7
    endloop
  endfacet
  facet normal -0.866026 0.499998 0
    outer loop
      vertex 10.4158 38.9714 4.7
      vertex 10.5987 39.2882 12
      vertex 10.5987 39.2882 4.7
    endloop
  endfacet
  facet normal -0.866026 0.499998 0
    outer loop
      vertex 10.5987 39.2882 12
      vertex 10.4158 38.9714 4.7
      vertex 10.4158 38.9714 12
    endloop
  endfacet
  facet normal 0.207913 0.978147 -0
    outer loop
      vertex 8.81707 38.2596 4.7
      vertex 8.45922 38.3357 12
      vertex 8.81707 38.2596 12
    endloop
  endfacet
  facet normal 0.207913 0.978147 0
    outer loop
      vertex 8.45922 38.3357 12
      vertex 8.81707 38.2596 4.7
      vertex 8.45922 38.3357 4.7
    endloop
  endfacet
  facet normal 0.406735 0.913546 -0
    outer loop
      vertex 8.45922 38.3357 4.7
      vertex 8.125 38.4845 12
      vertex 8.45922 38.3357 12
    endloop
  endfacet
  facet normal 0.406735 0.913546 0
    outer loop
      vertex 8.125 38.4845 12
      vertex 8.45922 38.3357 4.7
      vertex 8.125 38.4845 4.7
    endloop
  endfacet
  facet normal 1 0 0
    outer loop
      vertex 6 34 8.25
      vertex 6 15 8.25
      vertex 6 34 4.7
    endloop
  endfacet
  facet normal 1 -0 0
    outer loop
      vertex 6 34 4.7
      vertex 6 43 0
      vertex 6 43 4.7
    endloop
  endfacet
  facet normal 1 0 0
    outer loop
      vertex 6 15 4.7
      vertex 6 34 4.7
      vertex 6 15 8.25
    endloop
  endfacet
  facet normal 1 0 0
    outer loop
      vertex 6 34 4.7
      vertex 6 15 4.7
      vertex 6 43 0
    endloop
  endfacet
  facet normal 1 0 0
    outer loop
      vertex 6 6 0
      vertex 6 15 4.7
      vertex 6 6 4.7
    endloop
  endfacet
  facet normal 1 0 0
    outer loop
      vertex 6 15 4.7
      vertex 6 6 0
      vertex 6 43 0
    endloop
  endfacet
  facet normal 0 0 -1
    outer loop
      vertex 6 34 4.7
      vertex 10.5 37 4.7
      vertex 10.5 34 4.7
    endloop
  endfacet
  facet normal 0 0 -1
    outer loop
      vertex 10.5 37 4.7
      vertex 10.171 38.6995 4.7
      vertex 10.4158 38.9714 4.7
    endloop
  endfacet
  facet normal 0 0 -1
    outer loop
      vertex 10.5 37 4.7
      vertex 9.875 38.4845 4.7
      vertex 10.171 38.6995 4.7
    endloop
  endfacet
  facet normal 0 0 -1
    outer loop
      vertex 10.5 37 4.7
      vertex 9.54078 38.3357 4.7
      vertex 9.875 38.4845 4.7
    endloop
  endfacet
  facet normal 0 0 -1
    outer loop
      vertex 10.5 37 4.7
      vertex 9.18292 38.2596 4.7
      vertex 9.54078 38.3357 4.7
    endloop
  endfacet
  facet normal 0 0 -1
    outer loop
      vertex 10.5 37 4.7
      vertex 8.81707 38.2596 4.7
      vertex 9.18292 38.2596 4.7
    endloop
  endfacet
  facet normal -0 0 -1
    outer loop
      vertex 10.5 37 4.7
      vertex 6 34 4.7
      vertex 8.81707 38.2596 4.7
    endloop
  endfacet
  facet normal -0 0 -1
    outer loop
      vertex 8.81707 38.2596 4.7
      vertex 6 34 4.7
      vertex 8.45922 38.3357 4.7
    endloop
  endfacet
  facet normal -0 0 -1
    outer loop
      vertex 8.45922 38.3357 4.7
      vertex 6 34 4.7
      vertex 8.125 38.4845 4.7
    endloop
  endfacet
  facet normal -0 0 -1
    outer loop
      vertex 8.125 38.4845 4.7
      vertex 6 34 4.7
      vertex 7.82902 38.6995 4.7
    endloop
  endfacet
  facet normal 0 0 -1
    outer loop
      vertex 6 43 4.7
      vertex 7.28824 39.6362 4.7
      vertex 6 34 4.7
    endloop
  endfacet
  facet normal -0 0 -1
    outer loop
      vertex 7.40129 39.2882 4.7
      vertex 6 34 4.7
      vertex 7.28824 39.6362 4.7
    endloop
  endfacet
  facet normal -0 0 -1
    outer loop
      vertex 7.58422 38.9714 4.7
      vertex 6 34 4.7
      vertex 7.40129 39.2882 4.7
    endloop
  endfacet
  facet normal -0 0 -1
    outer loop
      vertex 7.82902 38.6995 4.7
      vertex 6 34 4.7
      vertex 7.58422 38.9714 4.7
    endloop
  endfacet
  facet normal 0 0 -1
    outer loop
      vertex 85.7118 39.6362 4.7
      vertex 87 43 4.7
      vertex 85.7118 9.36384 4.7
    endloop
  endfacet
  facet normal 0 0 -1
    outer loop
      vertex 87 43 4.7
      vertex 85.7118 39.6362 4.7
      vertex 85.75 40 4.7
    endloop
  endfacet
  facet normal 0 0 -1
    outer loop
      vertex 85.5987 9.71179 4.7
      vertex 85.7118 39.6362 4.7
      vertex 85.7118 9.36384 4.7
    endloop
  endfacet
  facet normal 0 0 -1
    outer loop
      vertex 85.5987 9.71179 4.7
      vertex 85.5987 39.2882 4.7
      vertex 85.7118 39.6362 4.7
    endloop
  endfacet
  facet normal 0 0 -1
    outer loop
      vertex 85.4158 10.0286 4.7
      vertex 85.5987 39.2882 4.7
      vertex 85.5987 9.71179 4.7
    endloop
  endfacet
  facet normal 0 0 -1
    outer loop
      vertex 85.4158 10.0286 4.7
      vertex 85.4158 38.9714 4.7
      vertex 85.5987 39.2882 4.7
    endloop
  endfacet
  facet normal 0 0 -1
    outer loop
      vertex 85.171 10.3005 4.7
      vertex 85.4158 38.9714 4.7
      vertex 85.4158 10.0286 4.7
    endloop
  endfacet
  facet normal 0 0 -1
    outer loop
      vertex 85.171 10.3005 4.7
      vertex 85.171 38.6995 4.7
      vertex 85.4158 38.9714 4.7
    endloop
  endfacet
  facet normal 0 0 -1
    outer loop
      vertex 84.875 10.5155 4.7
      vertex 85.171 38.6995 4.7
      vertex 85.171 10.3005 4.7
    endloop
  endfacet
  facet normal 0 0 -1
    outer loop
      vertex 84.875 10.5155 4.7
      vertex 84.875 38.4845 4.7
      vertex 85.171 38.6995 4.7
    endloop
  endfacet
  facet normal 0 0 -1
    outer loop
      vertex 82.5 12 4.7
      vertex 84.875 10.5155 4.7
      vertex 84.5408 10.6643 4.7
    endloop
  endfacet
  facet normal 0 0 -1
    outer loop
      vertex 84.875 10.5155 4.7
      vertex 82.5 12 4.7
      vertex 84.875 38.4845 4.7
    endloop
  endfacet
  facet normal 0 0 -1
    outer loop
      vertex 82.5 12 4.7
      vertex 84.5408 10.6643 4.7
      vertex 84.1829 10.7404 4.7
    endloop
  endfacet
  facet normal 0 0 -1
    outer loop
      vertex 82.5 37 4.7
      vertex 84.875 38.4845 4.7
      vertex 82.5 12 4.7
    endloop
  endfacet
  facet normal 0 0 -1
    outer loop
      vertex 82.5 12 4.7
      vertex 84.1829 10.7404 4.7
      vertex 83.8171 10.7404 4.7
    endloop
  endfacet
  facet normal 0 0 -1
    outer loop
      vertex 84.875 38.4845 4.7
      vertex 82.5 37 4.7
      vertex 84.5408 38.3357 4.7
    endloop
  endfacet
  facet normal 0 0 -1
    outer loop
      vertex 82.5 12 4.7
      vertex 83.8171 10.7404 4.7
      vertex 83.4592 10.6643 4.7
    endloop
  endfacet
  facet normal 0 0 -1
    outer loop
      vertex 84.5408 38.3357 4.7
      vertex 82.5 37 4.7
      vertex 84.1829 38.2596 4.7
    endloop
  endfacet
  facet normal 0 0 -1
    outer loop
      vertex 82.5 12 4.7
      vertex 83.4592 10.6643 4.7
      vertex 83.125 10.5155 4.7
    endloop
  endfacet
  facet normal -0 0 -1
    outer loop
      vertex 84.1829 38.2596 4.7
      vertex 82.5 37 4.7
      vertex 83.8171 38.2596 4.7
    endloop
  endfacet
  facet normal 0 0 -1
    outer loop
      vertex 82.5 12 4.7
      vertex 83.125 10.5155 4.7
      vertex 82.829 10.3005 4.7
    endloop
  endfacet
  facet normal -0 0 -1
    outer loop
      vertex 83.8171 38.2596 4.7
      vertex 82.5 37 4.7
      vertex 83.4592 38.3357 4.7
    endloop
  endfacet
  facet normal 0 0 -1
    outer loop
      vertex 82.5 12 4.7
      vertex 82.829 10.3005 4.7
      vertex 82.5842 10.0286 4.7
    endloop
  endfacet
  facet normal -0 0 -1
    outer loop
      vertex 83.4592 38.3357 4.7
      vertex 82.5 37 4.7
      vertex 83.125 38.4845 4.7
    endloop
  endfacet
  facet normal -0 0 -1
    outer loop
      vertex 83.125 38.4845 4.7
      vertex 82.5 37 4.7
      vertex 82.829 38.6995 4.7
    endloop
  endfacet
  facet normal 0 0 -1
    outer loop
      vertex 82.4013 9.71179 4.7
      vertex 82.5 12 4.7
      vertex 82.5842 10.0286 4.7
    endloop
  endfacet
  facet normal 0 0 -1
    outer loop
      vertex 82.2882 9.36384 4.7
      vertex 82.5 12 4.7
      vertex 82.4013 9.71179 4.7
    endloop
  endfacet
  facet normal 0 0 -1
    outer loop
      vertex 10.7118 9.36384 4.7
      vertex 82.2882 9.36384 4.7
      vertex 82.25 9 4.7
    endloop
  endfacet
  facet normal 0 0 -1
    outer loop
      vertex 10.7118 9.36384 4.7
      vertex 82.25 9 4.7
      vertex 10.75 9 4.7
    endloop
  endfacet
  facet normal 0 0 -1
    outer loop
      vertex 82.2882 9.36384 4.7
      vertex 10.7118 9.36384 4.7
      vertex 82.5 12 4.7
    endloop
  endfacet
  facet normal 0 0 -1
    outer loop
      vertex 10.5 12 4.7
      vertex 10.7118 9.36384 4.7
      vertex 10.5987 9.71179 4.7
    endloop
  endfacet
  facet normal 0 0 -1
    outer loop
      vertex 10.7118 9.36384 4.7
      vertex 10.5 12 4.7
      vertex 82.5 12 4.7
    endloop
  endfacet
  facet normal 0 0 -1
    outer loop
      vertex 10.4158 10.0286 4.7
      vertex 10.5 12 4.7
      vertex 10.5987 9.71179 4.7
    endloop
  endfacet
  facet normal 0 0 -1
    outer loop
      vertex 10.171 10.3005 4.7
      vertex 10.5 12 4.7
      vertex 10.4158 10.0286 4.7
    endloop
  endfacet
  facet normal 0 0 -1
    outer loop
      vertex 9.875 10.5155 4.7
      vertex 10.5 12 4.7
      vertex 10.171 10.3005 4.7
    endloop
  endfacet
  facet normal 0 0 -1
    outer loop
      vertex 9.54078 10.6643 4.7
      vertex 10.5 12 4.7
      vertex 9.875 10.5155 4.7
    endloop
  endfacet
  facet normal 0 0 -1
    outer loop
      vertex 9.18292 10.7404 4.7
      vertex 10.5 12 4.7
      vertex 9.54078 10.6643 4.7
    endloop
  endfacet
  facet normal 0 0 -1
    outer loop
      vertex 8.81707 10.7404 4.7
      vertex 10.5 12 4.7
      vertex 9.18292 10.7404 4.7
    endloop
  endfacet
  facet normal 0 0 -1
    outer loop
      vertex 6 15 4.7
      vertex 10.5 12 4.7
      vertex 8.81707 10.7404 4.7
    endloop
  endfacet
  facet normal 0 0 -1
    outer loop
      vertex 6 15 4.7
      vertex 8.81707 10.7404 4.7
      vertex 8.45922 10.6643 4.7
    endloop
  endfacet
  facet normal 0 0 -1
    outer loop
      vertex 6 15 4.7
      vertex 8.45922 10.6643 4.7
      vertex 8.125 10.5155 4.7
    endloop
  endfacet
  facet normal 0 0 -1
    outer loop
      vertex 6 15 4.7
      vertex 8.125 10.5155 4.7
      vertex 7.82902 10.3005 4.7
    endloop
  endfacet
  facet normal 0 0 -1
    outer loop
      vertex 6 15 4.7
      vertex 7.82902 10.3005 4.7
      vertex 7.58422 10.0286 4.7
    endloop
  endfacet
  facet normal 0 0 -1
    outer loop
      vertex 6 6 4.7
      vertex 7.28824 9.36384 4.7
      vertex 7.25 9 4.7
    endloop
  endfacet
  facet normal 0 0 -1
    outer loop
      vertex 6 15 4.7
      vertex 7.28824 9.36384 4.7
      vertex 6 6 4.7
    endloop
  endfacet
  facet normal 0 0 -1
    outer loop
      vertex 10.5 12 4.7
      vertex 6 15 4.7
      vertex 10.5 15 4.7
    endloop
  endfacet
  facet normal 0 0 -1
    outer loop
      vertex 7.40129 9.71179 4.7
      vertex 6 15 4.7
      vertex 7.58422 10.0286 4.7
    endloop
  endfacet
  facet normal 0 0 -1
    outer loop
      vertex 7.28824 9.36384 4.7
      vertex 6 15 4.7
      vertex 7.40129 9.71179 4.7
    endloop
  endfacet
  facet normal 0 0 -1
    outer loop
      vertex 85.7118 9.36384 4.7
      vertex 87 6 4.7
      vertex 85.75 9 4.7
    endloop
  endfacet
  facet normal 0 0 -1
    outer loop
      vertex 87 6 4.7
      vertex 85.7118 8.63615 4.7
      vertex 85.75 9 4.7
    endloop
  endfacet
  facet normal 0 0 -1
    outer loop
      vertex 87 6 4.7
      vertex 85.5987 8.28821 4.7
      vertex 85.7118 8.63615 4.7
    endloop
  endfacet
  facet normal 0 0 -1
    outer loop
      vertex 87 6 4.7
      vertex 85.4158 7.97138 4.7
      vertex 85.5987 8.28821 4.7
    endloop
  endfacet
  facet normal 0 0 -1
    outer loop
      vertex 87 6 4.7
      vertex 85.171 7.6995 4.7
      vertex 85.4158 7.97138 4.7
    endloop
  endfacet
  facet normal 0 0 -1
    outer loop
      vertex 87 6 4.7
      vertex 84.875 7.48446 4.7
      vertex 85.171 7.6995 4.7
    endloop
  endfacet
  facet normal 0 0 -1
    outer loop
      vertex 87 6 4.7
      vertex 84.5408 7.33565 4.7
      vertex 84.875 7.48446 4.7
    endloop
  endfacet
  facet normal 0 0 -1
    outer loop
      vertex 87 6 4.7
      vertex 84.1829 7.25959 4.7
      vertex 84.5408 7.33565 4.7
    endloop
  endfacet
  facet normal 0 0 -1
    outer loop
      vertex 87 6 4.7
      vertex 83.8171 7.25959 4.7
      vertex 84.1829 7.25959 4.7
    endloop
  endfacet
  facet normal 0 0 -1
    outer loop
      vertex 87 6 4.7
      vertex 83.4592 7.33565 4.7
      vertex 83.8171 7.25959 4.7
    endloop
  endfacet
  facet normal 0 0 -1
    outer loop
      vertex 82.2882 8.63615 4.7
      vertex 10.75 9 4.7
      vertex 82.25 9 4.7
    endloop
  endfacet
  facet normal 0 0 -1
    outer loop
      vertex 10.7118 8.63615 4.7
      vertex 82.2882 8.63615 4.7
      vertex 82.4013 8.28821 4.7
    endloop
  endfacet
  facet normal 0 0 -1
    outer loop
      vertex 10.5987 8.28821 4.7
      vertex 82.4013 8.28821 4.7
      vertex 82.5842 7.97138 4.7
    endloop
  endfacet
  facet normal 0 0 -1
    outer loop
      vertex 10.4158 7.97138 4.7
      vertex 82.5842 7.97138 4.7
      vertex 82.829 7.6995 4.7
    endloop
  endfacet
  facet normal 0 0 -1
    outer loop
      vertex 10.171 7.6995 4.7
      vertex 82.829 7.6995 4.7
      vertex 83.125 7.48446 4.7
    endloop
  endfacet
  facet normal 0 0 -1
    outer loop
      vertex 9.875 7.48446 4.7
      vertex 83.125 7.48446 4.7
      vertex 83.4592 7.33565 4.7
    endloop
  endfacet
  facet normal 0 0 -1
    outer loop
      vertex 9.54078 7.33565 4.7
      vertex 83.4592 7.33565 4.7
      vertex 87 6 4.7
    endloop
  endfacet
  facet normal 0 0 -1
    outer loop
      vertex 82.2882 8.63615 4.7
      vertex 10.7118 8.63615 4.7
      vertex 10.75 9 4.7
    endloop
  endfacet
  facet normal 0 0 -1
    outer loop
      vertex 82.4013 8.28821 4.7
      vertex 10.5987 8.28821 4.7
      vertex 10.7118 8.63615 4.7
    endloop
  endfacet
  facet normal 0 0 -1
    outer loop
      vertex 82.5842 7.97138 4.7
      vertex 10.4158 7.97138 4.7
      vertex 10.5987 8.28821 4.7
    endloop
  endfacet
  facet normal 0 0 -1
    outer loop
      vertex 82.829 7.6995 4.7
      vertex 10.171 7.6995 4.7
      vertex 10.4158 7.97138 4.7
    endloop
  endfacet
  facet normal 0 0 -1
    outer loop
      vertex 83.125 7.48446 4.7
      vertex 9.875 7.48446 4.7
      vertex 10.171 7.6995 4.7
    endloop
  endfacet
  facet normal 0 0 -1
    outer loop
      vertex 83.4592 7.33565 4.7
      vertex 9.54078 7.33565 4.7
      vertex 9.875 7.48446 4.7
    endloop
  endfacet
  facet normal 0 0 -1
    outer loop
      vertex 6 6 4.7
      vertex 9.54078 7.33565 4.7
      vertex 87 6 4.7
    endloop
  endfacet
  facet normal 0 0 -1
    outer loop
      vertex 9.54078 7.33565 4.7
      vertex 6 6 4.7
      vertex 9.18292 7.25959 4.7
    endloop
  endfacet
  facet normal -0 0 -1
    outer loop
      vertex 7.28824 8.63615 4.7
      vertex 6 6 4.7
      vertex 7.25 9 4.7
    endloop
  endfacet
  facet normal -0 0 -1
    outer loop
      vertex 7.40129 8.28821 4.7
      vertex 6 6 4.7
      vertex 7.28824 8.63615 4.7
    endloop
  endfacet
  facet normal -0 0 -1
    outer loop
      vertex 7.58422 7.97138 4.7
      vertex 6 6 4.7
      vertex 7.40129 8.28821 4.7
    endloop
  endfacet
  facet normal -0 0 -1
    outer loop
      vertex 7.82902 7.6995 4.7
      vertex 6 6 4.7
      vertex 7.58422 7.97138 4.7
    endloop
  endfacet
  facet normal -0 0 -1
    outer loop
      vertex 8.125 7.48446 4.7
      vertex 6 6 4.7
      vertex 7.82902 7.6995 4.7
    endloop
  endfacet
  facet normal -0 0 -1
    outer loop
      vertex 8.45922 7.33565 4.7
      vertex 6 6 4.7
      vertex 8.125 7.48446 4.7
    endloop
  endfacet
  facet normal -0 0 -1
    outer loop
      vertex 8.81707 7.25959 4.7
      vertex 6 6 4.7
      vertex 8.45922 7.33565 4.7
    endloop
  endfacet
  facet normal -0 0 -1
    outer loop
      vertex 9.18292 7.25959 4.7
      vertex 6 6 4.7
      vertex 8.81707 7.25959 4.7
    endloop
  endfacet
  facet normal 0 0 -1
    outer loop
      vertex 87 6 4.7
      vertex 85.7118 9.36384 4.7
      vertex 87 43 4.7
    endloop
  endfacet
  facet normal 0 0 -1
    outer loop
      vertex 85.7118 40.3638 4.7
      vertex 87 43 4.7
      vertex 85.75 40 4.7
    endloop
  endfacet
  facet normal 0 0 -1
    outer loop
      vertex 85.5987 40.7118 4.7
      vertex 87 43 4.7
      vertex 85.7118 40.3638 4.7
    endloop
  endfacet
  facet normal 0 0 -1
    outer loop
      vertex 85.4158 41.0286 4.7
      vertex 87 43 4.7
      vertex 85.5987 40.7118 4.7
    endloop
  endfacet
  facet normal 0 0 -1
    outer loop
      vertex 85.171 41.3005 4.7
      vertex 87 43 4.7
      vertex 85.4158 41.0286 4.7
    endloop
  endfacet
  facet normal 0 0 -1
    outer loop
      vertex 84.875 41.5155 4.7
      vertex 87 43 4.7
      vertex 85.171 41.3005 4.7
    endloop
  endfacet
  facet normal 0 0 -1
    outer loop
      vertex 84.5408 41.6643 4.7
      vertex 87 43 4.7
      vertex 84.875 41.5155 4.7
    endloop
  endfacet
  facet normal 0 0 -1
    outer loop
      vertex 84.1829 41.7404 4.7
      vertex 87 43 4.7
      vertex 84.5408 41.6643 4.7
    endloop
  endfacet
  facet normal 0 0 -1
    outer loop
      vertex 83.8171 41.7404 4.7
      vertex 87 43 4.7
      vertex 84.1829 41.7404 4.7
    endloop
  endfacet
  facet normal 0 0 -1
    outer loop
      vertex 83.4592 41.6643 4.7
      vertex 87 43 4.7
      vertex 83.8171 41.7404 4.7
    endloop
  endfacet
  facet normal 0 0 -1
    outer loop
      vertex 10.75 40 4.7
      vertex 82.2882 40.3638 4.7
      vertex 82.25 40 4.7
    endloop
  endfacet
  facet normal 0 0 -1
    outer loop
      vertex 10.7118 40.3638 4.7
      vertex 82.2882 40.3638 4.7
      vertex 10.75 40 4.7
    endloop
  endfacet
  facet normal 0 0 -1
    outer loop
      vertex 82.2882 40.3638 4.7
      vertex 10.7118 40.3638 4.7
      vertex 82.4013 40.7118 4.7
    endloop
  endfacet
  facet normal 0 0 -1
    outer loop
      vertex 10.5987 40.7118 4.7
      vertex 82.4013 40.7118 4.7
      vertex 10.7118 40.3638 4.7
    endloop
  endfacet
  facet normal 0 0 -1
    outer loop
      vertex 82.4013 40.7118 4.7
      vertex 10.5987 40.7118 4.7
      vertex 82.5842 41.0286 4.7
    endloop
  endfacet
  facet normal 0 0 -1
    outer loop
      vertex 10.4158 41.0286 4.7
      vertex 82.5842 41.0286 4.7
      vertex 10.5987 40.7118 4.7
    endloop
  endfacet
  facet normal 0 0 -1
    outer loop
      vertex 82.5842 41.0286 4.7
      vertex 10.4158 41.0286 4.7
      vertex 82.829 41.3005 4.7
    endloop
  endfacet
  facet normal 0 0 -1
    outer loop
      vertex 10.171 41.3005 4.7
      vertex 82.829 41.3005 4.7
      vertex 10.4158 41.0286 4.7
    endloop
  endfacet
  facet normal 0 0 -1
    outer loop
      vertex 82.829 41.3005 4.7
      vertex 10.171 41.3005 4.7
      vertex 83.125 41.5155 4.7
    endloop
  endfacet
  facet normal 0 0 -1
    outer loop
      vertex 9.875 41.5155 4.7
      vertex 83.125 41.5155 4.7
      vertex 10.171 41.3005 4.7
    endloop
  endfacet
  facet normal 0 0 -1
    outer loop
      vertex 83.125 41.5155 4.7
      vertex 9.875 41.5155 4.7
      vertex 83.4592 41.6643 4.7
    endloop
  endfacet
  facet normal 0 0 -1
    outer loop
      vertex 9.54078 41.6643 4.7
      vertex 83.4592 41.6643 4.7
      vertex 9.875 41.5155 4.7
    endloop
  endfacet
  facet normal 0 0 -1
    outer loop
      vertex 83.4592 41.6643 4.7
      vertex 9.54078 41.6643 4.7
      vertex 87 43 4.7
    endloop
  endfacet
  facet normal 0 0 -1
    outer loop
      vertex 6 43 4.7
      vertex 9.54078 41.6643 4.7
      vertex 9.18292 41.7404 4.7
    endloop
  endfacet
  facet normal 0 0 -1
    outer loop
      vertex 6 43 4.7
      vertex 9.18292 41.7404 4.7
      vertex 8.81707 41.7404 4.7
    endloop
  endfacet
  facet normal 0 0 -1
    outer loop
      vertex 7.28824 39.6362 4.7
      vertex 6 43 4.7
      vertex 7.25 40 4.7
    endloop
  endfacet
  facet normal 0 0 -1
    outer loop
      vertex 9.54078 41.6643 4.7
      vertex 6 43 4.7
      vertex 87 43 4.7
    endloop
  endfacet
  facet normal 0 0 -1
    outer loop
      vertex 8.45922 41.6643 4.7
      vertex 6 43 4.7
      vertex 8.81707 41.7404 4.7
    endloop
  endfacet
  facet normal 0 0 -1
    outer loop
      vertex 8.125 41.5155 4.7
      vertex 6 43 4.7
      vertex 8.45922 41.6643 4.7
    endloop
  endfacet
  facet normal 0 0 -1
    outer loop
      vertex 7.82902 41.3005 4.7
      vertex 6 43 4.7
      vertex 8.125 41.5155 4.7
    endloop
  endfacet
  facet normal 0 0 -1
    outer loop
      vertex 7.58422 41.0286 4.7
      vertex 6 43 4.7
      vertex 7.82902 41.3005 4.7
    endloop
  endfacet
  facet normal 0 0 -1
    outer loop
      vertex 7.40129 40.7118 4.7
      vertex 6 43 4.7
      vertex 7.58422 41.0286 4.7
    endloop
  endfacet
  facet normal 0 0 -1
    outer loop
      vertex 7.28824 40.3638 4.7
      vertex 6 43 4.7
      vertex 7.40129 40.7118 4.7
    endloop
  endfacet
  facet normal 0 0 -1
    outer loop
      vertex 7.25 40 4.7
      vertex 6 43 4.7
      vertex 7.28824 40.3638 4.7
    endloop
  endfacet
  facet normal -0 0 -1
    outer loop
      vertex 82.829 38.6995 4.7
      vertex 82.5 37 4.7
      vertex 82.5842 38.9714 4.7
    endloop
  endfacet
  facet normal 0 0 -1
    outer loop
      vertex 82.5 37 4.7
      vertex 82.4013 39.2882 4.7
      vertex 82.5842 38.9714 4.7
    endloop
  endfacet
  facet normal 0 0 -1
    outer loop
      vertex 82.5 37 4.7
      vertex 82.2882 39.6362 4.7
      vertex 82.4013 39.2882 4.7
    endloop
  endfacet
  facet normal 0 0 -1
    outer loop
      vertex 10.7118 39.6362 4.7
      vertex 82.2882 39.6362 4.7
      vertex 82.5 37 4.7
    endloop
  endfacet
  facet normal 0 0 -1
    outer loop
      vertex 82.2882 39.6362 4.7
      vertex 10.7118 39.6362 4.7
      vertex 82.25 40 4.7
    endloop
  endfacet
  facet normal -0 0 -1
    outer loop
      vertex 82.25 40 4.7
      vertex 10.7118 39.6362 4.7
      vertex 10.75 40 4.7
    endloop
  endfacet
  facet normal 0 0 -1
    outer loop
      vertex 10.5 37 4.7
      vertex 10.7118 39.6362 4.7
      vertex 82.5 37 4.7
    endloop
  endfacet
  facet normal 0 0 -1
    outer loop
      vertex 10.7118 39.6362 4.7
      vertex 10.5 37 4.7
      vertex 10.5987 39.2882 4.7
    endloop
  endfacet
  facet normal 0 0 -1
    outer loop
      vertex 10.5987 39.2882 4.7
      vertex 10.5 37 4.7
      vertex 10.4158 38.9714 4.7
    endloop
  endfacet
  facet normal -1 0 0
    outer loop
      vertex 87 6 0
      vertex 87 43 4.7
      vertex 87 43 0
    endloop
  endfacet
  facet normal -1 -0 0
    outer loop
      vertex 87 43 4.7
      vertex 87 6 0
      vertex 87 6 4.7
    endloop
  endfacet
  facet normal 0 1 -0
    outer loop
      vertex 87 6 0
      vertex 6 6 4.7
      vertex 87 6 4.7
    endloop
  endfacet
  facet normal 0 1 0
    outer loop
      vertex 6 6 4.7
      vertex 87 6 0
      vertex 6 6 0
    endloop
  endfacet
  facet normal 0 -1 0
    outer loop
      vertex 6 43 0
      vertex 87 43 4.7
      vertex 6 43 4.7
    endloop
  endfacet
  facet normal 0 -1 -0
    outer loop
      vertex 87 43 4.7
      vertex 6 43 0
      vertex 87 43 0
    endloop
  endfacet
  facet normal 1 0 0
    outer loop
      vertex 10.5 37 12
      vertex 10.5 34 8.25
      vertex 10.5 37 4.7
    endloop
  endfacet
  facet normal 1 0 0
    outer loop
      vertex 10.5 37 12
      vertex 10.5 15 8.25
      vertex 10.5 34 8.25
    endloop
  endfacet
  facet normal 1 -0 0
    outer loop
      vertex 10.5 12 12
      vertex 10.5 15 8.25
      vertex 10.5 37 12
    endloop
  endfacet
  facet normal 1 0 0
    outer loop
      vertex 10.5 12 4.7
      vertex 10.5 15 8.25
      vertex 10.5 12 12
    endloop
  endfacet
  facet normal 1 0 0
    outer loop
      vertex 10.5 15 8.25
      vertex 10.5 12 4.7
      vertex 10.5 15 4.7
    endloop
  endfacet
  facet normal 1 0 0
    outer loop
      vertex 10.5 37 4.7
      vertex 10.5 34 8.25
      vertex 10.5 34 4.7
    endloop
  endfacet
  facet normal -1 0 0
    outer loop
      vertex 82.5 12 4.7
      vertex 82.5 37 12
      vertex 82.5 37 4.7
    endloop
  endfacet
  facet normal -1 -0 0
    outer loop
      vertex 82.5 37 12
      vertex 82.5 12 4.7
      vertex 82.5 12 12
    endloop
  endfacet
  facet normal 0 1 -0
    outer loop
      vertex 82.5 12 4.7
      vertex 10.5 12 12
      vertex 82.5 12 12
    endloop
  endfacet
  facet normal 0 1 0
    outer loop
      vertex 10.5 12 12
      vertex 82.5 12 4.7
      vertex 10.5 12 4.7
    endloop
  endfacet
  facet normal 0 -1 0
    outer loop
      vertex 10.5 37 4.7
      vertex 82.5 37 12
      vertex 10.5 37 12
    endloop
  endfacet
  facet normal 0 -1 -0
    outer loop
      vertex 82.5 37 12
      vertex 10.5 37 4.7
      vertex 82.5 37 4.7
    endloop
  endfacet
  facet normal 0 0 -1
    outer loop
      vertex 6 15 8.25
      vertex 10.5 34 8.25
      vertex 10.5 15 8.25
    endloop
  endfacet
  facet normal -0 0 -1
    outer loop
      vertex 10.5 34 8.25
      vertex 6 15 8.25
      vertex 6 34 8.25
    endloop
  endfacet
  facet normal 0 1 -0
    outer loop
      vertex 10.5 15 4.7
      vertex 6 15 8.25
      vertex 10.5 15 8.25
    endloop
  endfacet
  facet normal 0 1 0
    outer loop
      vertex 6 15 8.25
      vertex 10.5 15 4.7
      vertex 6 15 4.7
    endloop
  endfacet
  facet normal 0 -1 0
    outer loop
      vertex 6 34 4.7
      vertex 10.5 34 8.25
      vertex 6 34 8.25
    endloop
  endfacet
  facet normal 0 -1 -0
    outer loop
      vertex 10.5 34 8.25
      vertex 6 34 4.7
      vertex 10.5 34 4.7
    endloop
  endfacet
endsolid OpenSCAD_Model
