<?xml version="1.0" standalone="no"?>
<!DOCTYPE svg PUBLIC "-//W3C//DTD SVG 1.1//EN" "http://www.w3.org/Graphics/SVG/1.1/DTD/svg11.dtd">
<svg width="147mm" height="40mm" viewBox="-8 -20 147 40" xmlns="http://www.w3.org/2000/svg" version="1.1">
<title>OpenSCAD Model</title>
<path d="
M 138.112,-19.05 L -7.9375,-19.05 L -7.9375,19.05 L 138.112,19.05 z
M -0.607712,1.53479 L -0.970093,1.33557 L -1.4937,0.702667 L -1.64757,-0.10347 L -1.39371,-0.88443 L -0.795288,-1.44641
 L 0,-1.65067 L 0.795288,-1.44641 L 1.39371,-0.88443 L 1.64757,-0.10347 L 1.4937,0.702667 L 0.970093,1.33557
 L 0.206573,1.63788 z
M 18.4419,1.53479 L 18.0795,1.33557 L 17.5559,0.702667 L 17.402,-0.10347 L 17.6559,-0.88443 L 18.2543,-1.44641
 L 19.05,-1.65067 L 19.8453,-1.44641 L 20.4437,-0.88443 L 20.6976,-0.10347 L 20.5437,0.702667 L 20.0201,1.33557
 L 19.2566,1.63788 z
M 129.567,1.53479 L 129.205,1.33557 L 128.681,0.702667 L 128.527,-0.10347 L 128.781,-0.88443 L 129.379,-1.44641
 L 130.175,-1.65067 L 130.97,-1.44641 L 131.569,-0.88443 L 131.823,-0.10347 L 131.669,0.702667 L 131.145,1.33557
 L 130.382,1.63788 z
M 110.517,1.53479 L 110.155,1.33557 L 109.631,0.702667 L 109.477,-0.10347 L 109.731,-0.88443 L 110.329,-1.44641
 L 111.125,-1.65067 L 111.92,-1.44641 L 112.519,-0.88443 L 112.773,-0.10347 L 112.619,0.702667 L 112.095,1.33557
 L 111.332,1.63788 z
" stroke="black" fill="lightgray" stroke-width="0.5"/>
</svg>
