solid OpenSCAD_Model
  facet normal 0.998627 0.0523825 0
    outer loop
      vertex 4.7625 0 11.1125
      vertex 4.73639 0.497814 -11.1125
      vertex 4.73639 0.497814 11.1125
    endloop
  endfacet
  facet normal 0.998627 0.0523825 0
    outer loop
      vertex 4.73639 0.497814 -11.1125
      vertex 4.7625 0 11.1125
      vertex 4.7625 0 -11.1125
    endloop
  endfacet
  facet normal -0.998627 0.0523825 0
    outer loop
      vertex -4.7625 0 -11.1125
      vertex -4.73639 0.497814 11.1125
      vertex -4.73639 0.497814 -11.1125
    endloop
  endfacet
  facet normal -0.998627 0.0523825 0
    outer loop
      vertex -4.73639 0.497814 11.1125
      vertex -4.7625 0 -11.1125
      vertex -4.7625 0 11.1125
    endloop
  endfacet
  facet normal 0.0523825 0.998627 -0
    outer loop
      vertex 0.497814 4.73639 -11.1125
      vertex 0 4.7625 11.1125
      vertex 0.497814 4.73639 11.1125
    endloop
  endfacet
  facet normal 0.0523825 0.998627 0
    outer loop
      vertex 0 4.7625 11.1125
      vertex 0.497814 4.73639 -11.1125
      vertex 0 4.7625 -11.1125
    endloop
  endfacet
  facet normal -0.0523825 -0.998627 0
    outer loop
      vertex -0.497814 -4.73639 -11.1125
      vertex 0 -4.7625 11.1125
      vertex -0.497814 -4.73639 11.1125
    endloop
  endfacet
  facet normal -0.0523825 -0.998627 -0
    outer loop
      vertex 0 -4.7625 11.1125
      vertex -0.497814 -4.73639 -11.1125
      vertex 0 -4.7625 -11.1125
    endloop
  endfacet
  facet normal -0.777143 -0.629324 0
    outer loop
      vertex -3.53922 -3.18672 -11.1125
      vertex -3.85294 -2.79932 11.1125
      vertex -3.85294 -2.79932 -11.1125
    endloop
  endfacet
  facet normal -0.777143 -0.629324 0
    outer loop
      vertex -3.85294 -2.79932 11.1125
      vertex -3.53922 -3.18672 -11.1125
      vertex -3.53922 -3.18672 11.1125
    endloop
  endfacet
  facet normal 0.707107 0.707107 0
    outer loop
      vertex 3.53922 3.18672 11.1125
      vertex 3.18672 3.53922 -11.1125
      vertex 3.18672 3.53922 11.1125
    endloop
  endfacet
  facet normal 0.707107 0.707107 0
    outer loop
      vertex 3.18672 3.53922 -11.1125
      vertex 3.53922 3.18672 11.1125
      vertex 3.53922 3.18672 -11.1125
    endloop
  endfacet
  facet normal -0.629324 0.777143 0
    outer loop
      vertex -2.79932 3.85294 -11.1125
      vertex -3.18672 3.53922 11.1125
      vertex -2.79932 3.85294 11.1125
    endloop
  endfacet
  facet normal -0.629324 0.777143 0
    outer loop
      vertex -3.18672 3.53922 11.1125
      vertex -2.79932 3.85294 -11.1125
      vertex -3.18672 3.53922 -11.1125
    endloop
  endfacet
  facet normal -0.258806 0.965929 0
    outer loop
      vertex -0.990177 4.65841 -11.1125
      vertex -1.47169 4.5294 11.1125
      vertex -0.990177 4.65841 11.1125
    endloop
  endfacet
  facet normal -0.258806 0.965929 0
    outer loop
      vertex -1.47169 4.5294 11.1125
      vertex -0.990177 4.65841 -11.1125
      vertex -1.47169 4.5294 -11.1125
    endloop
  endfacet
  facet normal 0.933577 0.358377 0
    outer loop
      vertex 4.5294 1.47169 11.1125
      vertex 4.35075 1.93707 -11.1125
      vertex 4.35075 1.93707 11.1125
    endloop
  endfacet
  facet normal 0.933577 0.358377 0
    outer loop
      vertex 4.35075 1.93707 -11.1125
      vertex 4.5294 1.47169 11.1125
      vertex 4.5294 1.47169 -11.1125
    endloop
  endfacet
  facet normal 0.358377 0.933577 -0
    outer loop
      vertex 1.93707 4.35075 -11.1125
      vertex 1.47169 4.5294 11.1125
      vertex 1.93707 4.35075 11.1125
    endloop
  endfacet
  facet normal 0.358377 0.933577 0
    outer loop
      vertex 1.47169 4.5294 11.1125
      vertex 1.93707 4.35075 -11.1125
      vertex 1.47169 4.5294 -11.1125
    endloop
  endfacet
  facet normal 0.258806 0.965929 -0
    outer loop
      vertex 1.47169 4.5294 -11.1125
      vertex 0.990177 4.65841 11.1125
      vertex 1.47169 4.5294 11.1125
    endloop
  endfacet
  facet normal 0.258806 0.965929 0
    outer loop
      vertex 0.990177 4.65841 11.1125
      vertex 1.47169 4.5294 -11.1125
      vertex 0.990177 4.65841 -11.1125
    endloop
  endfacet
  facet normal 0.544635 0.838673 -0
    outer loop
      vertex 2.79932 3.85294 -11.1125
      vertex 2.38125 4.12443 11.1125
      vertex 2.79932 3.85294 11.1125
    endloop
  endfacet
  facet normal 0.544635 0.838673 0
    outer loop
      vertex 2.38125 4.12443 11.1125
      vertex 2.79932 3.85294 -11.1125
      vertex 2.38125 4.12443 -11.1125
    endloop
  endfacet
  facet normal -0.891 0.454003 0
    outer loop
      vertex -4.35075 1.93707 -11.1125
      vertex -4.12443 2.38123 11.1125
      vertex -4.12443 2.38123 -11.1125
    endloop
  endfacet
  facet normal -0.891 0.454003 0
    outer loop
      vertex -4.12443 2.38123 11.1125
      vertex -4.35075 1.93707 -11.1125
      vertex -4.35075 1.93707 11.1125
    endloop
  endfacet
  facet normal -0.156419 0.987691 0
    outer loop
      vertex -0.497814 4.73639 -11.1125
      vertex -0.990177 4.65841 11.1125
      vertex -0.497814 4.73639 11.1125
    endloop
  endfacet
  facet normal -0.156419 0.987691 0
    outer loop
      vertex -0.990177 4.65841 11.1125
      vertex -0.497814 4.73639 -11.1125
      vertex -0.990177 4.65841 -11.1125
    endloop
  endfacet
  facet normal 0.933577 -0.358377 0
    outer loop
      vertex 4.35075 -1.93707 11.1125
      vertex 4.5294 -1.47169 -11.1125
      vertex 4.5294 -1.47169 11.1125
    endloop
  endfacet
  facet normal 0.933577 -0.358377 0
    outer loop
      vertex 4.5294 -1.47169 -11.1125
      vertex 4.35075 -1.93707 11.1125
      vertex 4.35075 -1.93707 -11.1125
    endloop
  endfacet
  facet normal 0.965929 -0.258806 0
    outer loop
      vertex 4.5294 -1.47169 11.1125
      vertex 4.65841 -0.990177 -11.1125
      vertex 4.65841 -0.990177 11.1125
    endloop
  endfacet
  facet normal 0.965929 -0.258806 0
    outer loop
      vertex 4.65841 -0.990177 -11.1125
      vertex 4.5294 -1.47169 11.1125
      vertex 4.5294 -1.47169 -11.1125
    endloop
  endfacet
  facet normal 0 0 -1
    outer loop
      vertex 3.30198 0 -11.1125
      vertex 4.7625 0 -11.1125
      vertex 4.73639 -0.497814 -11.1125
    endloop
  endfacet
  facet normal 0 0 -1
    outer loop
      vertex 3.28391 -0.345134 -11.1125
      vertex 4.73639 -0.497814 -11.1125
      vertex 4.65841 -0.990177 -11.1125
    endloop
  endfacet
  facet normal 0 0 -1
    outer loop
      vertex 4.7625 0 -11.1125
      vertex 3.30198 0 -11.1125
      vertex 4.73639 0.497814 -11.1125
    endloop
  endfacet
  facet normal 0 0 -1
    outer loop
      vertex 3.22984 -0.686513 -11.1125
      vertex 4.65841 -0.990177 -11.1125
      vertex 4.5294 -1.47169 -11.1125
    endloop
  endfacet
  facet normal 0 0 -1
    outer loop
      vertex 3.28391 0.345134 -11.1125
      vertex 4.73639 0.497814 -11.1125
      vertex 3.30198 0 -11.1125
    endloop
  endfacet
  facet normal 0 0 -1
    outer loop
      vertex 3.14038 -1.02036 -11.1125
      vertex 4.5294 -1.47169 -11.1125
      vertex 4.35075 -1.93707 -11.1125
    endloop
  endfacet
  facet normal -0 0 -1
    outer loop
      vertex 4.73639 0.497814 -11.1125
      vertex 3.28391 0.345134 -11.1125
      vertex 4.65841 0.990177 -11.1125
    endloop
  endfacet
  facet normal 0 0 -1
    outer loop
      vertex 3.01651 -1.34304 -11.1125
      vertex 4.35075 -1.93707 -11.1125
      vertex 4.12443 -2.38123 -11.1125
    endloop
  endfacet
  facet normal 0 0 -1
    outer loop
      vertex 3.22984 0.686513 -11.1125
      vertex 4.65841 0.990177 -11.1125
      vertex 3.28391 0.345134 -11.1125
    endloop
  endfacet
  facet normal 0 0 -1
    outer loop
      vertex 2.85961 -1.65099 -11.1125
      vertex 4.12443 -2.38123 -11.1125
      vertex 3.85294 -2.79932 -11.1125
    endloop
  endfacet
  facet normal -0 0 -1
    outer loop
      vertex 4.65841 0.990177 -11.1125
      vertex 3.22984 0.686513 -11.1125
      vertex 4.5294 1.47169 -11.1125
    endloop
  endfacet
  facet normal 0 0 -1
    outer loop
      vertex 2.67137 -1.94085 -11.1125
      vertex 3.85294 -2.79932 -11.1125
      vertex 3.53922 -3.18672 -11.1125
    endloop
  endfacet
  facet normal 0 0 -1
    outer loop
      vertex 3.14038 1.02036 -11.1125
      vertex 4.5294 1.47169 -11.1125
      vertex 3.22984 0.686513 -11.1125
    endloop
  endfacet
  facet normal -0 0 -1
    outer loop
      vertex 4.5294 1.47169 -11.1125
      vertex 3.14038 1.02036 -11.1125
      vertex 4.35075 1.93707 -11.1125
    endloop
  endfacet
  facet normal 0 0 -1
    outer loop
      vertex 4.73639 -0.497814 -11.1125
      vertex 3.28391 -0.345134 -11.1125
      vertex 3.30198 0 -11.1125
    endloop
  endfacet
  facet normal 0 0 -1
    outer loop
      vertex 4.65841 -0.990177 -11.1125
      vertex 3.22984 -0.686513 -11.1125
      vertex 3.28391 -0.345134 -11.1125
    endloop
  endfacet
  facet normal 0 0 -1
    outer loop
      vertex 2.45385 -2.20946 -11.1125
      vertex 3.53922 -3.18672 -11.1125
      vertex 3.18672 -3.53922 -11.1125
    endloop
  endfacet
  facet normal 0 0 -1
    outer loop
      vertex 4.5294 -1.47169 -11.1125
      vertex 3.14038 -1.02036 -11.1125
      vertex 3.22984 -0.686513 -11.1125
    endloop
  endfacet
  facet normal 0 0 -1
    outer loop
      vertex 4.35075 -1.93707 -11.1125
      vertex 3.01651 -1.34304 -11.1125
      vertex 3.14038 -1.02036 -11.1125
    endloop
  endfacet
  facet normal 0 0 -1
    outer loop
      vertex 4.12443 -2.38123 -11.1125
      vertex 2.85961 -1.65099 -11.1125
      vertex 3.01651 -1.34304 -11.1125
    endloop
  endfacet
  facet normal 0 0 -1
    outer loop
      vertex 2.20946 -2.45385 -11.1125
      vertex 3.18672 -3.53922 -11.1125
      vertex 2.79932 -3.85294 -11.1125
    endloop
  endfacet
  facet normal 0 0 -1
    outer loop
      vertex 3.85294 -2.79932 -11.1125
      vertex 2.67137 -1.94085 -11.1125
      vertex 2.85961 -1.65099 -11.1125
    endloop
  endfacet
  facet normal 0 0 -1
    outer loop
      vertex 3.53922 -3.18672 -11.1125
      vertex 2.45385 -2.20946 -11.1125
      vertex 2.67137 -1.94085 -11.1125
    endloop
  endfacet
  facet normal 0 0 -1
    outer loop
      vertex 1.94085 -2.67137 -11.1125
      vertex 2.79932 -3.85294 -11.1125
      vertex 2.38125 -4.12443 -11.1125
    endloop
  endfacet
  facet normal 0 0 -1
    outer loop
      vertex 3.18672 -3.53922 -11.1125
      vertex 2.20946 -2.45385 -11.1125
      vertex 2.45385 -2.20946 -11.1125
    endloop
  endfacet
  facet normal 0 0 -1
    outer loop
      vertex 2.79932 -3.85294 -11.1125
      vertex 1.94085 -2.67137 -11.1125
      vertex 2.20946 -2.45385 -11.1125
    endloop
  endfacet
  facet normal 0 0 -1
    outer loop
      vertex 1.65099 -2.85961 -11.1125
      vertex 2.38125 -4.12443 -11.1125
      vertex 1.93707 -4.35075 -11.1125
    endloop
  endfacet
  facet normal 0 0 -1
    outer loop
      vertex 2.38125 -4.12443 -11.1125
      vertex 1.65099 -2.85961 -11.1125
      vertex 1.94085 -2.67137 -11.1125
    endloop
  endfacet
  facet normal 0 0 -1
    outer loop
      vertex 1.34304 -3.01651 -11.1125
      vertex 1.93707 -4.35075 -11.1125
      vertex 1.47169 -4.5294 -11.1125
    endloop
  endfacet
  facet normal 0 0 -1
    outer loop
      vertex 1.93707 -4.35075 -11.1125
      vertex 1.34304 -3.01651 -11.1125
      vertex 1.65099 -2.85961 -11.1125
    endloop
  endfacet
  facet normal 0 0 -1
    outer loop
      vertex 1.47169 -4.5294 -11.1125
      vertex 1.02036 -3.14038 -11.1125
      vertex 1.34304 -3.01651 -11.1125
    endloop
  endfacet
  facet normal 0 0 -1
    outer loop
      vertex 0.990177 -4.65841 -11.1125
      vertex 1.02036 -3.14038 -11.1125
      vertex 1.47169 -4.5294 -11.1125
    endloop
  endfacet
  facet normal 0 0 -1
    outer loop
      vertex 0.990177 -4.65841 -11.1125
      vertex 0.686513 -3.22984 -11.1125
      vertex 1.02036 -3.14038 -11.1125
    endloop
  endfacet
  facet normal 0 0 -1
    outer loop
      vertex 0.497814 -4.73639 -11.1125
      vertex 0.686513 -3.22984 -11.1125
      vertex 0.990177 -4.65841 -11.1125
    endloop
  endfacet
  facet normal 0 0 -1
    outer loop
      vertex 0.497814 -4.73639 -11.1125
      vertex 0.345134 -3.28391 -11.1125
      vertex 0.686513 -3.22984 -11.1125
    endloop
  endfacet
  facet normal 0 0 -1
    outer loop
      vertex 0 -4.7625 -11.1125
      vertex 0.345134 -3.28391 -11.1125
      vertex 0.497814 -4.73639 -11.1125
    endloop
  endfacet
  facet normal 0 0 -1
    outer loop
      vertex 0 -4.7625 -11.1125
      vertex 0 -3.30198 -11.1125
      vertex 0.345134 -3.28391 -11.1125
    endloop
  endfacet
  facet normal 0 0 -1
    outer loop
      vertex 0 -4.7625 -11.1125
      vertex -0.345134 -3.28391 -11.1125
      vertex 0 -3.30198 -11.1125
    endloop
  endfacet
  facet normal 0 0 -1
    outer loop
      vertex -0.497814 -4.73639 -11.1125
      vertex -0.345134 -3.28391 -11.1125
      vertex 0 -4.7625 -11.1125
    endloop
  endfacet
  facet normal 0 0 -1
    outer loop
      vertex -0.497814 -4.73639 -11.1125
      vertex -0.686513 -3.22984 -11.1125
      vertex -0.345134 -3.28391 -11.1125
    endloop
  endfacet
  facet normal 0 0 -1
    outer loop
      vertex -0.990177 -4.65841 -11.1125
      vertex -0.686513 -3.22984 -11.1125
      vertex -0.497814 -4.73639 -11.1125
    endloop
  endfacet
  facet normal 0 0 -1
    outer loop
      vertex -0.990177 -4.65841 -11.1125
      vertex -1.02036 -3.14038 -11.1125
      vertex -0.686513 -3.22984 -11.1125
    endloop
  endfacet
  facet normal 0 0 -1
    outer loop
      vertex -1.47169 -4.5294 -11.1125
      vertex -1.02036 -3.14038 -11.1125
      vertex -0.990177 -4.65841 -11.1125
    endloop
  endfacet
  facet normal -0 0 -1
    outer loop
      vertex -1.02036 -3.14038 -11.1125
      vertex -1.47169 -4.5294 -11.1125
      vertex -1.34304 -3.01651 -11.1125
    endloop
  endfacet
  facet normal 0 0 -1
    outer loop
      vertex -1.93707 -4.35075 -11.1125
      vertex -1.34304 -3.01651 -11.1125
      vertex -1.47169 -4.5294 -11.1125
    endloop
  endfacet
  facet normal -0 0 -1
    outer loop
      vertex -1.34304 -3.01651 -11.1125
      vertex -1.93707 -4.35075 -11.1125
      vertex -1.65099 -2.85961 -11.1125
    endloop
  endfacet
  facet normal 0 0 -1
    outer loop
      vertex -2.38125 -4.12443 -11.1125
      vertex -1.65099 -2.85961 -11.1125
      vertex -1.93707 -4.35075 -11.1125
    endloop
  endfacet
  facet normal -0 0 -1
    outer loop
      vertex -1.65099 -2.85961 -11.1125
      vertex -2.38125 -4.12443 -11.1125
      vertex -1.94085 -2.67137 -11.1125
    endloop
  endfacet
  facet normal 0 0 -1
    outer loop
      vertex -2.79932 -3.85294 -11.1125
      vertex -1.94085 -2.67137 -11.1125
      vertex -2.38125 -4.12443 -11.1125
    endloop
  endfacet
  facet normal -0 0 -1
    outer loop
      vertex -1.94085 -2.67137 -11.1125
      vertex -2.79932 -3.85294 -11.1125
      vertex -2.20946 -2.45385 -11.1125
    endloop
  endfacet
  facet normal 0 0 -1
    outer loop
      vertex -3.18672 -3.53922 -11.1125
      vertex -2.20946 -2.45385 -11.1125
      vertex -2.79932 -3.85294 -11.1125
    endloop
  endfacet
  facet normal -0 0 -1
    outer loop
      vertex -2.20946 -2.45385 -11.1125
      vertex -3.18672 -3.53922 -11.1125
      vertex -2.45385 -2.20946 -11.1125
    endloop
  endfacet
  facet normal 0 0 -1
    outer loop
      vertex -3.53922 -3.18672 -11.1125
      vertex -2.45385 -2.20946 -11.1125
      vertex -3.18672 -3.53922 -11.1125
    endloop
  endfacet
  facet normal -0 0 -1
    outer loop
      vertex -2.45385 -2.20946 -11.1125
      vertex -3.53922 -3.18672 -11.1125
      vertex -2.67137 -1.94085 -11.1125
    endloop
  endfacet
  facet normal 0 0 -1
    outer loop
      vertex -3.85294 -2.79932 -11.1125
      vertex -2.67137 -1.94085 -11.1125
      vertex -3.53922 -3.18672 -11.1125
    endloop
  endfacet
  facet normal -0 0 -1
    outer loop
      vertex -2.67137 -1.94085 -11.1125
      vertex -3.85294 -2.79932 -11.1125
      vertex -2.85961 -1.65099 -11.1125
    endloop
  endfacet
  facet normal 0 0 -1
    outer loop
      vertex -4.12443 -2.38123 -11.1125
      vertex -2.85961 -1.65099 -11.1125
      vertex -3.85294 -2.79932 -11.1125
    endloop
  endfacet
  facet normal -0 0 -1
    outer loop
      vertex -2.85961 -1.65099 -11.1125
      vertex -4.12443 -2.38123 -11.1125
      vertex -3.01651 -1.34304 -11.1125
    endloop
  endfacet
  facet normal 0 0 -1
    outer loop
      vertex -4.35075 -1.93707 -11.1125
      vertex -3.01651 -1.34304 -11.1125
      vertex -4.12443 -2.38123 -11.1125
    endloop
  endfacet
  facet normal -0 0 -1
    outer loop
      vertex -3.01651 -1.34304 -11.1125
      vertex -4.35075 -1.93707 -11.1125
      vertex -3.14038 -1.02036 -11.1125
    endloop
  endfacet
  facet normal 0 0 -1
    outer loop
      vertex 3.01651 1.34304 -11.1125
      vertex 4.35075 1.93707 -11.1125
      vertex 3.14038 1.02036 -11.1125
    endloop
  endfacet
  facet normal -0 0 -1
    outer loop
      vertex 4.35075 1.93707 -11.1125
      vertex 3.01651 1.34304 -11.1125
      vertex 4.12443 2.38123 -11.1125
    endloop
  endfacet
  facet normal 0 0 -1
    outer loop
      vertex 2.85961 1.65099 -11.1125
      vertex 4.12443 2.38123 -11.1125
      vertex 3.01651 1.34304 -11.1125
    endloop
  endfacet
  facet normal -0 0 -1
    outer loop
      vertex 4.12443 2.38123 -11.1125
      vertex 2.85961 1.65099 -11.1125
      vertex 3.85294 2.79932 -11.1125
    endloop
  endfacet
  facet normal 0 0 -1
    outer loop
      vertex 2.67137 1.94085 -11.1125
      vertex 3.85294 2.79932 -11.1125
      vertex 2.85961 1.65099 -11.1125
    endloop
  endfacet
  facet normal -0 0 -1
    outer loop
      vertex 3.85294 2.79932 -11.1125
      vertex 2.67137 1.94085 -11.1125
      vertex 3.53922 3.18672 -11.1125
    endloop
  endfacet
  facet normal 0 0 -1
    outer loop
      vertex 2.45385 2.20946 -11.1125
      vertex 3.53922 3.18672 -11.1125
      vertex 2.67137 1.94085 -11.1125
    endloop
  endfacet
  facet normal -0 0 -1
    outer loop
      vertex 3.53922 3.18672 -11.1125
      vertex 2.45385 2.20946 -11.1125
      vertex 3.18672 3.53922 -11.1125
    endloop
  endfacet
  facet normal 0 0 -1
    outer loop
      vertex 2.20946 2.45385 -11.1125
      vertex 3.18672 3.53922 -11.1125
      vertex 2.45385 2.20946 -11.1125
    endloop
  endfacet
  facet normal -0 0 -1
    outer loop
      vertex 3.18672 3.53922 -11.1125
      vertex 2.20946 2.45385 -11.1125
      vertex 2.79932 3.85294 -11.1125
    endloop
  endfacet
  facet normal 0 0 -1
    outer loop
      vertex 1.94085 2.67137 -11.1125
      vertex 2.79932 3.85294 -11.1125
      vertex 2.20946 2.45385 -11.1125
    endloop
  endfacet
  facet normal -0 0 -1
    outer loop
      vertex 2.79932 3.85294 -11.1125
      vertex 1.94085 2.67137 -11.1125
      vertex 2.38125 4.12443 -11.1125
    endloop
  endfacet
  facet normal 0 0 -1
    outer loop
      vertex 1.65099 2.85961 -11.1125
      vertex 2.38125 4.12443 -11.1125
      vertex 1.94085 2.67137 -11.1125
    endloop
  endfacet
  facet normal -0 0 -1
    outer loop
      vertex 2.38125 4.12443 -11.1125
      vertex 1.65099 2.85961 -11.1125
      vertex 1.93707 4.35075 -11.1125
    endloop
  endfacet
  facet normal 0 0 -1
    outer loop
      vertex 1.34304 3.01651 -11.1125
      vertex 1.93707 4.35075 -11.1125
      vertex 1.65099 2.85961 -11.1125
    endloop
  endfacet
  facet normal -0 0 -1
    outer loop
      vertex 1.93707 4.35075 -11.1125
      vertex 1.34304 3.01651 -11.1125
      vertex 1.47169 4.5294 -11.1125
    endloop
  endfacet
  facet normal 0 0 -1
    outer loop
      vertex 1.02036 3.14038 -11.1125
      vertex 1.47169 4.5294 -11.1125
      vertex 1.34304 3.01651 -11.1125
    endloop
  endfacet
  facet normal 0 0 -1
    outer loop
      vertex 1.02036 3.14038 -11.1125
      vertex 0.990177 4.65841 -11.1125
      vertex 1.47169 4.5294 -11.1125
    endloop
  endfacet
  facet normal 0 0 -1
    outer loop
      vertex 0.686513 3.22984 -11.1125
      vertex 0.990177 4.65841 -11.1125
      vertex 1.02036 3.14038 -11.1125
    endloop
  endfacet
  facet normal 0 0 -1
    outer loop
      vertex 0.686513 3.22984 -11.1125
      vertex 0.497814 4.73639 -11.1125
      vertex 0.990177 4.65841 -11.1125
    endloop
  endfacet
  facet normal 0 0 -1
    outer loop
      vertex 0.345134 3.28391 -11.1125
      vertex 0.497814 4.73639 -11.1125
      vertex 0.686513 3.22984 -11.1125
    endloop
  endfacet
  facet normal 0 0 -1
    outer loop
      vertex 0 3.30198 -11.1125
      vertex 0.497814 4.73639 -11.1125
      vertex 0.345134 3.28391 -11.1125
    endloop
  endfacet
  facet normal 0 0 -1
    outer loop
      vertex 0 3.30198 -11.1125
      vertex 0 4.7625 -11.1125
      vertex 0.497814 4.73639 -11.1125
    endloop
  endfacet
  facet normal 0 0 -1
    outer loop
      vertex -0.345134 3.28391 -11.1125
      vertex 0 4.7625 -11.1125
      vertex 0 3.30198 -11.1125
    endloop
  endfacet
  facet normal 0 0 -1
    outer loop
      vertex -0.345134 3.28391 -11.1125
      vertex -0.497814 4.73639 -11.1125
      vertex 0 4.7625 -11.1125
    endloop
  endfacet
  facet normal 0 0 -1
    outer loop
      vertex -0.686513 3.22984 -11.1125
      vertex -0.497814 4.73639 -11.1125
      vertex -0.345134 3.28391 -11.1125
    endloop
  endfacet
  facet normal 0 0 -1
    outer loop
      vertex -0.686513 3.22984 -11.1125
      vertex -0.990177 4.65841 -11.1125
      vertex -0.497814 4.73639 -11.1125
    endloop
  endfacet
  facet normal 0 0 -1
    outer loop
      vertex -1.02036 3.14038 -11.1125
      vertex -0.990177 4.65841 -11.1125
      vertex -0.686513 3.22984 -11.1125
    endloop
  endfacet
  facet normal 0 0 -1
    outer loop
      vertex -1.47169 4.5294 -11.1125
      vertex -1.02036 3.14038 -11.1125
      vertex -1.34304 3.01651 -11.1125
    endloop
  endfacet
  facet normal 0 0 -1
    outer loop
      vertex -1.02036 3.14038 -11.1125
      vertex -1.47169 4.5294 -11.1125
      vertex -0.990177 4.65841 -11.1125
    endloop
  endfacet
  facet normal 0 0 -1
    outer loop
      vertex -1.93707 4.35075 -11.1125
      vertex -1.34304 3.01651 -11.1125
      vertex -1.65099 2.85961 -11.1125
    endloop
  endfacet
  facet normal 0 0 -1
    outer loop
      vertex -1.34304 3.01651 -11.1125
      vertex -1.93707 4.35075 -11.1125
      vertex -1.47169 4.5294 -11.1125
    endloop
  endfacet
  facet normal 0 0 -1
    outer loop
      vertex -2.38123 4.12443 -11.1125
      vertex -1.65099 2.85961 -11.1125
      vertex -1.94085 2.67137 -11.1125
    endloop
  endfacet
  facet normal 0 0 -1
    outer loop
      vertex -2.79932 3.85294 -11.1125
      vertex -1.94085 2.67137 -11.1125
      vertex -2.20946 2.45385 -11.1125
    endloop
  endfacet
  facet normal 0 0 -1
    outer loop
      vertex -1.65099 2.85961 -11.1125
      vertex -2.38123 4.12443 -11.1125
      vertex -1.93707 4.35075 -11.1125
    endloop
  endfacet
  facet normal 0 0 -1
    outer loop
      vertex -3.18672 3.53922 -11.1125
      vertex -2.20946 2.45385 -11.1125
      vertex -2.45385 2.20946 -11.1125
    endloop
  endfacet
  facet normal 0 0 -1
    outer loop
      vertex -3.53922 3.18672 -11.1125
      vertex -2.45385 2.20946 -11.1125
      vertex -2.67137 1.94085 -11.1125
    endloop
  endfacet
  facet normal 0 0 -1
    outer loop
      vertex -1.94085 2.67137 -11.1125
      vertex -2.79932 3.85294 -11.1125
      vertex -2.38123 4.12443 -11.1125
    endloop
  endfacet
  facet normal 0 0 -1
    outer loop
      vertex -3.85294 2.79932 -11.1125
      vertex -2.67137 1.94085 -11.1125
      vertex -2.85961 1.65099 -11.1125
    endloop
  endfacet
  facet normal 0 0 -1
    outer loop
      vertex -4.12443 2.38123 -11.1125
      vertex -2.85961 1.65099 -11.1125
      vertex -3.01651 1.34304 -11.1125
    endloop
  endfacet
  facet normal 0 0 -1
    outer loop
      vertex -4.35075 1.93707 -11.1125
      vertex -3.01651 1.34304 -11.1125
      vertex -3.14038 1.02036 -11.1125
    endloop
  endfacet
  facet normal 0 0 -1
    outer loop
      vertex -2.20946 2.45385 -11.1125
      vertex -3.18672 3.53922 -11.1125
      vertex -2.79932 3.85294 -11.1125
    endloop
  endfacet
  facet normal 0 0 -1
    outer loop
      vertex -4.5294 1.47169 -11.1125
      vertex -3.14038 1.02036 -11.1125
      vertex -3.22984 0.686513 -11.1125
    endloop
  endfacet
  facet normal 0 0 -1
    outer loop
      vertex -4.65841 0.990177 -11.1125
      vertex -3.22984 0.686513 -11.1125
      vertex -3.28391 0.345134 -11.1125
    endloop
  endfacet
  facet normal 0 0 -1
    outer loop
      vertex -4.73639 0.497814 -11.1125
      vertex -3.28391 0.345134 -11.1125
      vertex -3.30198 0 -11.1125
    endloop
  endfacet
  facet normal 0 0 -1
    outer loop
      vertex -4.5294 -1.47169 -11.1125
      vertex -3.14038 -1.02036 -11.1125
      vertex -4.35075 -1.93707 -11.1125
    endloop
  endfacet
  facet normal 0 0 -1
    outer loop
      vertex -2.45385 2.20946 -11.1125
      vertex -3.53922 3.18672 -11.1125
      vertex -3.18672 3.53922 -11.1125
    endloop
  endfacet
  facet normal -0 0 -1
    outer loop
      vertex -3.14038 -1.02036 -11.1125
      vertex -4.5294 -1.47169 -11.1125
      vertex -3.22984 -0.686513 -11.1125
    endloop
  endfacet
  facet normal 0 0 -1
    outer loop
      vertex -2.67137 1.94085 -11.1125
      vertex -3.85294 2.79932 -11.1125
      vertex -3.53922 3.18672 -11.1125
    endloop
  endfacet
  facet normal 0 0 -1
    outer loop
      vertex -4.65841 -0.990177 -11.1125
      vertex -3.22984 -0.686513 -11.1125
      vertex -4.5294 -1.47169 -11.1125
    endloop
  endfacet
  facet normal 0 0 -1
    outer loop
      vertex -2.85961 1.65099 -11.1125
      vertex -4.12443 2.38123 -11.1125
      vertex -3.85294 2.79932 -11.1125
    endloop
  endfacet
  facet normal -0 0 -1
    outer loop
      vertex -3.22984 -0.686513 -11.1125
      vertex -4.65841 -0.990177 -11.1125
      vertex -3.28391 -0.345134 -11.1125
    endloop
  endfacet
  facet normal 0 0 -1
    outer loop
      vertex -3.01651 1.34304 -11.1125
      vertex -4.35075 1.93707 -11.1125
      vertex -4.12443 2.38123 -11.1125
    endloop
  endfacet
  facet normal 0 0 -1
    outer loop
      vertex -4.73639 -0.497814 -11.1125
      vertex -3.28391 -0.345134 -11.1125
      vertex -4.65841 -0.990177 -11.1125
    endloop
  endfacet
  facet normal 0 0 -1
    outer loop
      vertex -3.14038 1.02036 -11.1125
      vertex -4.5294 1.47169 -11.1125
      vertex -4.35075 1.93707 -11.1125
    endloop
  endfacet
  facet normal -0 0 -1
    outer loop
      vertex -3.28391 -0.345134 -11.1125
      vertex -4.73639 -0.497814 -11.1125
      vertex -3.30198 0 -11.1125
    endloop
  endfacet
  facet normal 0 0 -1
    outer loop
      vertex -3.22984 0.686513 -11.1125
      vertex -4.65841 0.990177 -11.1125
      vertex -4.5294 1.47169 -11.1125
    endloop
  endfacet
  facet normal 0 0 -1
    outer loop
      vertex -4.7625 0 -11.1125
      vertex -3.30198 0 -11.1125
      vertex -4.73639 -0.497814 -11.1125
    endloop
  endfacet
  facet normal 0 0 -1
    outer loop
      vertex -3.28391 0.345134 -11.1125
      vertex -4.73639 0.497814 -11.1125
      vertex -4.65841 0.990177 -11.1125
    endloop
  endfacet
  facet normal 0 0 -1
    outer loop
      vertex -3.30198 0 -11.1125
      vertex -4.7625 0 -11.1125
      vertex -4.73639 0.497814 -11.1125
    endloop
  endfacet
  facet normal 0.965929 0.258806 0
    outer loop
      vertex 4.65841 0.990177 11.1125
      vertex 4.5294 1.47169 -11.1125
      vertex 4.5294 1.47169 11.1125
    endloop
  endfacet
  facet normal 0.965929 0.258806 0
    outer loop
      vertex 4.5294 1.47169 -11.1125
      vertex 4.65841 0.990177 11.1125
      vertex 4.65841 0.990177 -11.1125
    endloop
  endfacet
  facet normal 0.987691 0.156419 0
    outer loop
      vertex 4.73639 0.497814 11.1125
      vertex 4.65841 0.990177 -11.1125
      vertex 4.65841 0.990177 11.1125
    endloop
  endfacet
  facet normal 0.987691 0.156419 0
    outer loop
      vertex 4.65841 0.990177 -11.1125
      vertex 4.73639 0.497814 11.1125
      vertex 4.73639 0.497814 -11.1125
    endloop
  endfacet
  facet normal 0.838688 0.544613 0
    outer loop
      vertex 4.12443 2.38123 11.1125
      vertex 3.85294 2.79932 -11.1125
      vertex 3.85294 2.79932 11.1125
    endloop
  endfacet
  facet normal 0.838688 0.544613 0
    outer loop
      vertex 3.85294 2.79932 -11.1125
      vertex 4.12443 2.38123 11.1125
      vertex 4.12443 2.38123 -11.1125
    endloop
  endfacet
  facet normal 0.777143 0.629324 0
    outer loop
      vertex 3.85294 2.79932 11.1125
      vertex 3.53922 3.18672 -11.1125
      vertex 3.53922 3.18672 11.1125
    endloop
  endfacet
  facet normal 0.777143 0.629324 0
    outer loop
      vertex 3.53922 3.18672 -11.1125
      vertex 3.85294 2.79932 11.1125
      vertex 3.85294 2.79932 -11.1125
    endloop
  endfacet
  facet normal 0.891 0.454003 0
    outer loop
      vertex 4.35075 1.93707 11.1125
      vertex 4.12443 2.38123 -11.1125
      vertex 4.12443 2.38123 11.1125
    endloop
  endfacet
  facet normal 0.891 0.454003 0
    outer loop
      vertex 4.12443 2.38123 -11.1125
      vertex 4.35075 1.93707 11.1125
      vertex 4.35075 1.93707 -11.1125
    endloop
  endfacet
  facet normal 0.156419 0.987691 -0
    outer loop
      vertex 0.990177 4.65841 -11.1125
      vertex 0.497814 4.73639 11.1125
      vertex 0.990177 4.65841 11.1125
    endloop
  endfacet
  facet normal 0.156419 0.987691 0
    outer loop
      vertex 0.497814 4.73639 11.1125
      vertex 0.990177 4.65841 -11.1125
      vertex 0.497814 4.73639 -11.1125
    endloop
  endfacet
  facet normal 0.453984 0.89101 -0
    outer loop
      vertex 2.38125 4.12443 -11.1125
      vertex 1.93707 4.35075 11.1125
      vertex 2.38125 4.12443 11.1125
    endloop
  endfacet
  facet normal 0.453984 0.89101 0
    outer loop
      vertex 1.93707 4.35075 11.1125
      vertex 2.38125 4.12443 -11.1125
      vertex 1.93707 4.35075 -11.1125
    endloop
  endfacet
  facet normal 0.629324 0.777143 -0
    outer loop
      vertex 3.18672 3.53922 -11.1125
      vertex 2.79932 3.85294 11.1125
      vertex 3.18672 3.53922 11.1125
    endloop
  endfacet
  facet normal 0.629324 0.777143 0
    outer loop
      vertex 2.79932 3.85294 11.1125
      vertex 3.18672 3.53922 -11.1125
      vertex 2.79932 3.85294 -11.1125
    endloop
  endfacet
  facet normal -0.965929 0.258806 0
    outer loop
      vertex -4.65841 0.990177 -11.1125
      vertex -4.5294 1.47169 11.1125
      vertex -4.5294 1.47169 -11.1125
    endloop
  endfacet
  facet normal -0.965929 0.258806 0
    outer loop
      vertex -4.5294 1.47169 11.1125
      vertex -4.65841 0.990177 -11.1125
      vertex -4.65841 0.990177 11.1125
    endloop
  endfacet
  facet normal -0.777143 0.629324 0
    outer loop
      vertex -3.85294 2.79932 -11.1125
      vertex -3.53922 3.18672 11.1125
      vertex -3.53922 3.18672 -11.1125
    endloop
  endfacet
  facet normal -0.777143 0.629324 0
    outer loop
      vertex -3.53922 3.18672 11.1125
      vertex -3.85294 2.79932 -11.1125
      vertex -3.85294 2.79932 11.1125
    endloop
  endfacet
  facet normal -0.707107 0.707107 0
    outer loop
      vertex -3.53922 3.18672 -11.1125
      vertex -3.18672 3.53922 11.1125
      vertex -3.18672 3.53922 -11.1125
    endloop
  endfacet
  facet normal -0.707107 0.707107 0
    outer loop
      vertex -3.18672 3.53922 11.1125
      vertex -3.53922 3.18672 -11.1125
      vertex -3.53922 3.18672 11.1125
    endloop
  endfacet
  facet normal -0.838688 0.544613 0
    outer loop
      vertex -4.12443 2.38123 -11.1125
      vertex -3.85294 2.79932 11.1125
      vertex -3.85294 2.79932 -11.1125
    endloop
  endfacet
  facet normal -0.838688 0.544613 0
    outer loop
      vertex -3.85294 2.79932 11.1125
      vertex -4.12443 2.38123 -11.1125
      vertex -4.12443 2.38123 11.1125
    endloop
  endfacet
  facet normal -0.933577 0.358377 0
    outer loop
      vertex -4.5294 1.47169 -11.1125
      vertex -4.35075 1.93707 11.1125
      vertex -4.35075 1.93707 -11.1125
    endloop
  endfacet
  facet normal -0.933577 0.358377 0
    outer loop
      vertex -4.35075 1.93707 11.1125
      vertex -4.5294 1.47169 -11.1125
      vertex -4.5294 1.47169 11.1125
    endloop
  endfacet
  facet normal -0.987691 0.156419 0
    outer loop
      vertex -4.73639 0.497814 -11.1125
      vertex -4.65841 0.990177 11.1125
      vertex -4.65841 0.990177 -11.1125
    endloop
  endfacet
  facet normal -0.987691 0.156419 0
    outer loop
      vertex -4.65841 0.990177 11.1125
      vertex -4.73639 0.497814 -11.1125
      vertex -4.73639 0.497814 11.1125
    endloop
  endfacet
  facet normal 0 0 1
    outer loop
      vertex 3.30198 0 11.1125
      vertex 4.7625 0 11.1125
      vertex 4.73639 0.497814 11.1125
    endloop
  endfacet
  facet normal 0 0 1
    outer loop
      vertex 3.28391 0.345134 11.1125
      vertex 4.73639 0.497814 11.1125
      vertex 4.65841 0.990177 11.1125
    endloop
  endfacet
  facet normal 0 0 1
    outer loop
      vertex 4.7625 0 11.1125
      vertex 3.30198 0 11.1125
      vertex 4.73639 -0.497814 11.1125
    endloop
  endfacet
  facet normal 0 0 1
    outer loop
      vertex 3.22984 0.686513 11.1125
      vertex 4.65841 0.990177 11.1125
      vertex 4.5294 1.47169 11.1125
    endloop
  endfacet
  facet normal -0 0 1
    outer loop
      vertex 3.28391 -0.345134 11.1125
      vertex 4.73639 -0.497814 11.1125
      vertex 3.30198 0 11.1125
    endloop
  endfacet
  facet normal 0 0 1
    outer loop
      vertex 3.14038 1.02036 11.1125
      vertex 4.5294 1.47169 11.1125
      vertex 4.35075 1.93707 11.1125
    endloop
  endfacet
  facet normal 0 0 1
    outer loop
      vertex 4.73639 -0.497814 11.1125
      vertex 3.28391 -0.345134 11.1125
      vertex 4.65841 -0.990177 11.1125
    endloop
  endfacet
  facet normal 0 0 1
    outer loop
      vertex 3.01651 1.34304 11.1125
      vertex 4.35075 1.93707 11.1125
      vertex 4.12443 2.38123 11.1125
    endloop
  endfacet
  facet normal -0 0 1
    outer loop
      vertex 3.22984 -0.686513 11.1125
      vertex 4.65841 -0.990177 11.1125
      vertex 3.28391 -0.345134 11.1125
    endloop
  endfacet
  facet normal 0 0 1
    outer loop
      vertex 2.85961 1.65099 11.1125
      vertex 4.12443 2.38123 11.1125
      vertex 3.85294 2.79932 11.1125
    endloop
  endfacet
  facet normal 0 0 1
    outer loop
      vertex 4.65841 -0.990177 11.1125
      vertex 3.22984 -0.686513 11.1125
      vertex 4.5294 -1.47169 11.1125
    endloop
  endfacet
  facet normal 0 0 1
    outer loop
      vertex 2.67137 1.94085 11.1125
      vertex 3.85294 2.79932 11.1125
      vertex 3.53922 3.18672 11.1125
    endloop
  endfacet
  facet normal -0 0 1
    outer loop
      vertex 3.14038 -1.02036 11.1125
      vertex 4.5294 -1.47169 11.1125
      vertex 3.22984 -0.686513 11.1125
    endloop
  endfacet
  facet normal 0 0 1
    outer loop
      vertex 4.5294 -1.47169 11.1125
      vertex 3.14038 -1.02036 11.1125
      vertex 4.35075 -1.93707 11.1125
    endloop
  endfacet
  facet normal 0 0 1
    outer loop
      vertex 4.73639 0.497814 11.1125
      vertex 3.28391 0.345134 11.1125
      vertex 3.30198 0 11.1125
    endloop
  endfacet
  facet normal 0 0 1
    outer loop
      vertex 4.65841 0.990177 11.1125
      vertex 3.22984 0.686513 11.1125
      vertex 3.28391 0.345134 11.1125
    endloop
  endfacet
  facet normal 0 0 1
    outer loop
      vertex 2.45385 2.20946 11.1125
      vertex 3.53922 3.18672 11.1125
      vertex 3.18672 3.53922 11.1125
    endloop
  endfacet
  facet normal 0 0 1
    outer loop
      vertex 4.5294 1.47169 11.1125
      vertex 3.14038 1.02036 11.1125
      vertex 3.22984 0.686513 11.1125
    endloop
  endfacet
  facet normal 0 0 1
    outer loop
      vertex 4.35075 1.93707 11.1125
      vertex 3.01651 1.34304 11.1125
      vertex 3.14038 1.02036 11.1125
    endloop
  endfacet
  facet normal 0 0 1
    outer loop
      vertex 4.12443 2.38123 11.1125
      vertex 2.85961 1.65099 11.1125
      vertex 3.01651 1.34304 11.1125
    endloop
  endfacet
  facet normal 0 0 1
    outer loop
      vertex 2.20946 2.45385 11.1125
      vertex 3.18672 3.53922 11.1125
      vertex 2.79932 3.85294 11.1125
    endloop
  endfacet
  facet normal 0 0 1
    outer loop
      vertex 3.85294 2.79932 11.1125
      vertex 2.67137 1.94085 11.1125
      vertex 2.85961 1.65099 11.1125
    endloop
  endfacet
  facet normal 0 0 1
    outer loop
      vertex 3.53922 3.18672 11.1125
      vertex 2.45385 2.20946 11.1125
      vertex 2.67137 1.94085 11.1125
    endloop
  endfacet
  facet normal 0 0 1
    outer loop
      vertex 1.94085 2.67137 11.1125
      vertex 2.79932 3.85294 11.1125
      vertex 2.38125 4.12443 11.1125
    endloop
  endfacet
  facet normal 0 0 1
    outer loop
      vertex 3.18672 3.53922 11.1125
      vertex 2.20946 2.45385 11.1125
      vertex 2.45385 2.20946 11.1125
    endloop
  endfacet
  facet normal 0 0 1
    outer loop
      vertex 2.79932 3.85294 11.1125
      vertex 1.94085 2.67137 11.1125
      vertex 2.20946 2.45385 11.1125
    endloop
  endfacet
  facet normal 0 0 1
    outer loop
      vertex 1.65099 2.85961 11.1125
      vertex 2.38125 4.12443 11.1125
      vertex 1.93707 4.35075 11.1125
    endloop
  endfacet
  facet normal 0 0 1
    outer loop
      vertex 2.38125 4.12443 11.1125
      vertex 1.65099 2.85961 11.1125
      vertex 1.94085 2.67137 11.1125
    endloop
  endfacet
  facet normal 0 0 1
    outer loop
      vertex 1.34304 3.01651 11.1125
      vertex 1.93707 4.35075 11.1125
      vertex 1.47169 4.5294 11.1125
    endloop
  endfacet
  facet normal 0 0 1
    outer loop
      vertex 1.93707 4.35075 11.1125
      vertex 1.34304 3.01651 11.1125
      vertex 1.65099 2.85961 11.1125
    endloop
  endfacet
  facet normal 0 0 1
    outer loop
      vertex 1.47169 4.5294 11.1125
      vertex 1.02036 3.14038 11.1125
      vertex 1.34304 3.01651 11.1125
    endloop
  endfacet
  facet normal 0 0 1
    outer loop
      vertex 0.990177 4.65841 11.1125
      vertex 1.02036 3.14038 11.1125
      vertex 1.47169 4.5294 11.1125
    endloop
  endfacet
  facet normal 0 0 1
    outer loop
      vertex 0.990177 4.65841 11.1125
      vertex 0.686513 3.22984 11.1125
      vertex 1.02036 3.14038 11.1125
    endloop
  endfacet
  facet normal 0 0 1
    outer loop
      vertex 0.497814 4.73639 11.1125
      vertex 0.686513 3.22984 11.1125
      vertex 0.990177 4.65841 11.1125
    endloop
  endfacet
  facet normal 0 0 1
    outer loop
      vertex 0.497814 4.73639 11.1125
      vertex 0.345134 3.28391 11.1125
      vertex 0.686513 3.22984 11.1125
    endloop
  endfacet
  facet normal 0 0 1
    outer loop
      vertex 0 4.7625 11.1125
      vertex 0.345134 3.28391 11.1125
      vertex 0.497814 4.73639 11.1125
    endloop
  endfacet
  facet normal 0 0 1
    outer loop
      vertex 0 4.7625 11.1125
      vertex 0 3.30198 11.1125
      vertex 0.345134 3.28391 11.1125
    endloop
  endfacet
  facet normal 0 0 1
    outer loop
      vertex 0 4.7625 11.1125
      vertex -0.345134 3.28391 11.1125
      vertex 0 3.30198 11.1125
    endloop
  endfacet
  facet normal -0 0 1
    outer loop
      vertex -0.497814 4.73639 11.1125
      vertex -0.345134 3.28391 11.1125
      vertex 0 4.7625 11.1125
    endloop
  endfacet
  facet normal 0 0 1
    outer loop
      vertex -0.497814 4.73639 11.1125
      vertex -0.686513 3.22984 11.1125
      vertex -0.345134 3.28391 11.1125
    endloop
  endfacet
  facet normal -0 0 1
    outer loop
      vertex -0.990177 4.65841 11.1125
      vertex -0.686513 3.22984 11.1125
      vertex -0.497814 4.73639 11.1125
    endloop
  endfacet
  facet normal 0 0 1
    outer loop
      vertex -0.990177 4.65841 11.1125
      vertex -1.02036 3.14038 11.1125
      vertex -0.686513 3.22984 11.1125
    endloop
  endfacet
  facet normal -0 0 1
    outer loop
      vertex -1.47169 4.5294 11.1125
      vertex -1.02036 3.14038 11.1125
      vertex -0.990177 4.65841 11.1125
    endloop
  endfacet
  facet normal 0 0 1
    outer loop
      vertex -1.02036 3.14038 11.1125
      vertex -1.47169 4.5294 11.1125
      vertex -1.34304 3.01651 11.1125
    endloop
  endfacet
  facet normal -0 0 1
    outer loop
      vertex -1.93707 4.35075 11.1125
      vertex -1.34304 3.01651 11.1125
      vertex -1.47169 4.5294 11.1125
    endloop
  endfacet
  facet normal 0 0 1
    outer loop
      vertex -1.34304 3.01651 11.1125
      vertex -1.93707 4.35075 11.1125
      vertex -1.65099 2.85961 11.1125
    endloop
  endfacet
  facet normal -0 0 1
    outer loop
      vertex -2.38123 4.12443 11.1125
      vertex -1.65099 2.85961 11.1125
      vertex -1.93707 4.35075 11.1125
    endloop
  endfacet
  facet normal 0 0 1
    outer loop
      vertex -1.65099 2.85961 11.1125
      vertex -2.38123 4.12443 11.1125
      vertex -1.94085 2.67137 11.1125
    endloop
  endfacet
  facet normal -0 0 1
    outer loop
      vertex -2.79932 3.85294 11.1125
      vertex -1.94085 2.67137 11.1125
      vertex -2.38123 4.12443 11.1125
    endloop
  endfacet
  facet normal 0 0 1
    outer loop
      vertex -1.94085 2.67137 11.1125
      vertex -2.79932 3.85294 11.1125
      vertex -2.20946 2.45385 11.1125
    endloop
  endfacet
  facet normal -0 0 1
    outer loop
      vertex -3.18672 3.53922 11.1125
      vertex -2.20946 2.45385 11.1125
      vertex -2.79932 3.85294 11.1125
    endloop
  endfacet
  facet normal 0 0 1
    outer loop
      vertex -2.20946 2.45385 11.1125
      vertex -3.18672 3.53922 11.1125
      vertex -2.45385 2.20946 11.1125
    endloop
  endfacet
  facet normal -0 0 1
    outer loop
      vertex -3.53922 3.18672 11.1125
      vertex -2.45385 2.20946 11.1125
      vertex -3.18672 3.53922 11.1125
    endloop
  endfacet
  facet normal 0 0 1
    outer loop
      vertex -2.45385 2.20946 11.1125
      vertex -3.53922 3.18672 11.1125
      vertex -2.67137 1.94085 11.1125
    endloop
  endfacet
  facet normal -0 0 1
    outer loop
      vertex -3.85294 2.79932 11.1125
      vertex -2.67137 1.94085 11.1125
      vertex -3.53922 3.18672 11.1125
    endloop
  endfacet
  facet normal 0 0 1
    outer loop
      vertex -2.67137 1.94085 11.1125
      vertex -3.85294 2.79932 11.1125
      vertex -2.85961 1.65099 11.1125
    endloop
  endfacet
  facet normal -0 0 1
    outer loop
      vertex -4.12443 2.38123 11.1125
      vertex -2.85961 1.65099 11.1125
      vertex -3.85294 2.79932 11.1125
    endloop
  endfacet
  facet normal 0 0 1
    outer loop
      vertex -2.85961 1.65099 11.1125
      vertex -4.12443 2.38123 11.1125
      vertex -3.01651 1.34304 11.1125
    endloop
  endfacet
  facet normal -0 0 1
    outer loop
      vertex -4.35075 1.93707 11.1125
      vertex -3.01651 1.34304 11.1125
      vertex -4.12443 2.38123 11.1125
    endloop
  endfacet
  facet normal 0 0 1
    outer loop
      vertex -3.01651 1.34304 11.1125
      vertex -4.35075 1.93707 11.1125
      vertex -3.14038 1.02036 11.1125
    endloop
  endfacet
  facet normal -0 0 1
    outer loop
      vertex 3.01651 -1.34304 11.1125
      vertex 4.35075 -1.93707 11.1125
      vertex 3.14038 -1.02036 11.1125
    endloop
  endfacet
  facet normal 0 0 1
    outer loop
      vertex 4.35075 -1.93707 11.1125
      vertex 3.01651 -1.34304 11.1125
      vertex 4.12443 -2.38123 11.1125
    endloop
  endfacet
  facet normal -0 0 1
    outer loop
      vertex 2.85961 -1.65099 11.1125
      vertex 4.12443 -2.38123 11.1125
      vertex 3.01651 -1.34304 11.1125
    endloop
  endfacet
  facet normal 0 0 1
    outer loop
      vertex 4.12443 -2.38123 11.1125
      vertex 2.85961 -1.65099 11.1125
      vertex 3.85294 -2.79932 11.1125
    endloop
  endfacet
  facet normal -0 0 1
    outer loop
      vertex 2.67137 -1.94085 11.1125
      vertex 3.85294 -2.79932 11.1125
      vertex 2.85961 -1.65099 11.1125
    endloop
  endfacet
  facet normal 0 0 1
    outer loop
      vertex 3.85294 -2.79932 11.1125
      vertex 2.67137 -1.94085 11.1125
      vertex 3.53922 -3.18672 11.1125
    endloop
  endfacet
  facet normal -0 0 1
    outer loop
      vertex 2.45385 -2.20946 11.1125
      vertex 3.53922 -3.18672 11.1125
      vertex 2.67137 -1.94085 11.1125
    endloop
  endfacet
  facet normal 0 0 1
    outer loop
      vertex 3.53922 -3.18672 11.1125
      vertex 2.45385 -2.20946 11.1125
      vertex 3.18672 -3.53922 11.1125
    endloop
  endfacet
  facet normal -0 0 1
    outer loop
      vertex 2.20946 -2.45385 11.1125
      vertex 3.18672 -3.53922 11.1125
      vertex 2.45385 -2.20946 11.1125
    endloop
  endfacet
  facet normal 0 0 1
    outer loop
      vertex 3.18672 -3.53922 11.1125
      vertex 2.20946 -2.45385 11.1125
      vertex 2.79932 -3.85294 11.1125
    endloop
  endfacet
  facet normal -0 0 1
    outer loop
      vertex 1.94085 -2.67137 11.1125
      vertex 2.79932 -3.85294 11.1125
      vertex 2.20946 -2.45385 11.1125
    endloop
  endfacet
  facet normal 0 0 1
    outer loop
      vertex 2.79932 -3.85294 11.1125
      vertex 1.94085 -2.67137 11.1125
      vertex 2.38125 -4.12443 11.1125
    endloop
  endfacet
  facet normal -0 0 1
    outer loop
      vertex 1.65099 -2.85961 11.1125
      vertex 2.38125 -4.12443 11.1125
      vertex 1.94085 -2.67137 11.1125
    endloop
  endfacet
  facet normal 0 0 1
    outer loop
      vertex 2.38125 -4.12443 11.1125
      vertex 1.65099 -2.85961 11.1125
      vertex 1.93707 -4.35075 11.1125
    endloop
  endfacet
  facet normal -0 0 1
    outer loop
      vertex 1.34304 -3.01651 11.1125
      vertex 1.93707 -4.35075 11.1125
      vertex 1.65099 -2.85961 11.1125
    endloop
  endfacet
  facet normal 0 0 1
    outer loop
      vertex 1.93707 -4.35075 11.1125
      vertex 1.34304 -3.01651 11.1125
      vertex 1.47169 -4.5294 11.1125
    endloop
  endfacet
  facet normal -0 0 1
    outer loop
      vertex 1.02036 -3.14038 11.1125
      vertex 1.47169 -4.5294 11.1125
      vertex 1.34304 -3.01651 11.1125
    endloop
  endfacet
  facet normal 0 0 1
    outer loop
      vertex 1.02036 -3.14038 11.1125
      vertex 0.990177 -4.65841 11.1125
      vertex 1.47169 -4.5294 11.1125
    endloop
  endfacet
  facet normal -0 0 1
    outer loop
      vertex 0.686513 -3.22984 11.1125
      vertex 0.990177 -4.65841 11.1125
      vertex 1.02036 -3.14038 11.1125
    endloop
  endfacet
  facet normal 0 0 1
    outer loop
      vertex 0.686513 -3.22984 11.1125
      vertex 0.497814 -4.73639 11.1125
      vertex 0.990177 -4.65841 11.1125
    endloop
  endfacet
  facet normal -0 0 1
    outer loop
      vertex 0.345134 -3.28391 11.1125
      vertex 0.497814 -4.73639 11.1125
      vertex 0.686513 -3.22984 11.1125
    endloop
  endfacet
  facet normal -0 0 1
    outer loop
      vertex 0 -3.30198 11.1125
      vertex 0.497814 -4.73639 11.1125
      vertex 0.345134 -3.28391 11.1125
    endloop
  endfacet
  facet normal 0 0 1
    outer loop
      vertex 0 -3.30198 11.1125
      vertex 0 -4.7625 11.1125
      vertex 0.497814 -4.73639 11.1125
    endloop
  endfacet
  facet normal 0 0 1
    outer loop
      vertex -0.345134 -3.28391 11.1125
      vertex 0 -4.7625 11.1125
      vertex 0 -3.30198 11.1125
    endloop
  endfacet
  facet normal 0 0 1
    outer loop
      vertex -0.345134 -3.28391 11.1125
      vertex -0.497814 -4.73639 11.1125
      vertex 0 -4.7625 11.1125
    endloop
  endfacet
  facet normal 0 0 1
    outer loop
      vertex -0.686513 -3.22984 11.1125
      vertex -0.497814 -4.73639 11.1125
      vertex -0.345134 -3.28391 11.1125
    endloop
  endfacet
  facet normal 0 0 1
    outer loop
      vertex -0.686513 -3.22984 11.1125
      vertex -0.990177 -4.65841 11.1125
      vertex -0.497814 -4.73639 11.1125
    endloop
  endfacet
  facet normal 0 0 1
    outer loop
      vertex -1.02036 -3.14038 11.1125
      vertex -0.990177 -4.65841 11.1125
      vertex -0.686513 -3.22984 11.1125
    endloop
  endfacet
  facet normal 0 0 1
    outer loop
      vertex -1.47169 -4.5294 11.1125
      vertex -1.02036 -3.14038 11.1125
      vertex -1.34304 -3.01651 11.1125
    endloop
  endfacet
  facet normal 0 0 1
    outer loop
      vertex -1.02036 -3.14038 11.1125
      vertex -1.47169 -4.5294 11.1125
      vertex -0.990177 -4.65841 11.1125
    endloop
  endfacet
  facet normal 0 0 1
    outer loop
      vertex -1.93707 -4.35075 11.1125
      vertex -1.34304 -3.01651 11.1125
      vertex -1.65099 -2.85961 11.1125
    endloop
  endfacet
  facet normal 0 0 1
    outer loop
      vertex -1.34304 -3.01651 11.1125
      vertex -1.93707 -4.35075 11.1125
      vertex -1.47169 -4.5294 11.1125
    endloop
  endfacet
  facet normal 0 0 1
    outer loop
      vertex -2.38125 -4.12443 11.1125
      vertex -1.65099 -2.85961 11.1125
      vertex -1.94085 -2.67137 11.1125
    endloop
  endfacet
  facet normal 0 0 1
    outer loop
      vertex -2.79932 -3.85294 11.1125
      vertex -1.94085 -2.67137 11.1125
      vertex -2.20946 -2.45385 11.1125
    endloop
  endfacet
  facet normal 0 0 1
    outer loop
      vertex -1.65099 -2.85961 11.1125
      vertex -2.38125 -4.12443 11.1125
      vertex -1.93707 -4.35075 11.1125
    endloop
  endfacet
  facet normal 0 0 1
    outer loop
      vertex -3.18672 -3.53922 11.1125
      vertex -2.20946 -2.45385 11.1125
      vertex -2.45385 -2.20946 11.1125
    endloop
  endfacet
  facet normal 0 0 1
    outer loop
      vertex -3.53922 -3.18672 11.1125
      vertex -2.45385 -2.20946 11.1125
      vertex -2.67137 -1.94085 11.1125
    endloop
  endfacet
  facet normal 0 0 1
    outer loop
      vertex -1.94085 -2.67137 11.1125
      vertex -2.79932 -3.85294 11.1125
      vertex -2.38125 -4.12443 11.1125
    endloop
  endfacet
  facet normal 0 0 1
    outer loop
      vertex -3.85294 -2.79932 11.1125
      vertex -2.67137 -1.94085 11.1125
      vertex -2.85961 -1.65099 11.1125
    endloop
  endfacet
  facet normal 0 0 1
    outer loop
      vertex -4.12443 -2.38123 11.1125
      vertex -2.85961 -1.65099 11.1125
      vertex -3.01651 -1.34304 11.1125
    endloop
  endfacet
  facet normal 0 0 1
    outer loop
      vertex -4.35075 -1.93707 11.1125
      vertex -3.01651 -1.34304 11.1125
      vertex -3.14038 -1.02036 11.1125
    endloop
  endfacet
  facet normal 0 0 1
    outer loop
      vertex -2.20946 -2.45385 11.1125
      vertex -3.18672 -3.53922 11.1125
      vertex -2.79932 -3.85294 11.1125
    endloop
  endfacet
  facet normal 0 0 1
    outer loop
      vertex -4.5294 -1.47169 11.1125
      vertex -3.14038 -1.02036 11.1125
      vertex -3.22984 -0.686513 11.1125
    endloop
  endfacet
  facet normal 0 0 1
    outer loop
      vertex -4.65841 -0.990177 11.1125
      vertex -3.22984 -0.686513 11.1125
      vertex -3.28391 -0.345134 11.1125
    endloop
  endfacet
  facet normal 0 0 1
    outer loop
      vertex -4.73639 -0.497814 11.1125
      vertex -3.28391 -0.345134 11.1125
      vertex -3.30198 0 11.1125
    endloop
  endfacet
  facet normal -0 0 1
    outer loop
      vertex -4.5294 1.47169 11.1125
      vertex -3.14038 1.02036 11.1125
      vertex -4.35075 1.93707 11.1125
    endloop
  endfacet
  facet normal 0 0 1
    outer loop
      vertex -2.45385 -2.20946 11.1125
      vertex -3.53922 -3.18672 11.1125
      vertex -3.18672 -3.53922 11.1125
    endloop
  endfacet
  facet normal 0 0 1
    outer loop
      vertex -3.14038 1.02036 11.1125
      vertex -4.5294 1.47169 11.1125
      vertex -3.22984 0.686513 11.1125
    endloop
  endfacet
  facet normal 0 0 1
    outer loop
      vertex -2.67137 -1.94085 11.1125
      vertex -3.85294 -2.79932 11.1125
      vertex -3.53922 -3.18672 11.1125
    endloop
  endfacet
  facet normal -0 0 1
    outer loop
      vertex -4.65841 0.990177 11.1125
      vertex -3.22984 0.686513 11.1125
      vertex -4.5294 1.47169 11.1125
    endloop
  endfacet
  facet normal 0 0 1
    outer loop
      vertex -2.85961 -1.65099 11.1125
      vertex -4.12443 -2.38123 11.1125
      vertex -3.85294 -2.79932 11.1125
    endloop
  endfacet
  facet normal 0 0 1
    outer loop
      vertex -3.22984 0.686513 11.1125
      vertex -4.65841 0.990177 11.1125
      vertex -3.28391 0.345134 11.1125
    endloop
  endfacet
  facet normal 0 0 1
    outer loop
      vertex -3.01651 -1.34304 11.1125
      vertex -4.35075 -1.93707 11.1125
      vertex -4.12443 -2.38123 11.1125
    endloop
  endfacet
  facet normal -0 0 1
    outer loop
      vertex -4.73639 0.497814 11.1125
      vertex -3.28391 0.345134 11.1125
      vertex -4.65841 0.990177 11.1125
    endloop
  endfacet
  facet normal 0 0 1
    outer loop
      vertex -3.14038 -1.02036 11.1125
      vertex -4.5294 -1.47169 11.1125
      vertex -4.35075 -1.93707 11.1125
    endloop
  endfacet
  facet normal 0 0 1
    outer loop
      vertex -3.28391 0.345134 11.1125
      vertex -4.73639 0.497814 11.1125
      vertex -3.30198 0 11.1125
    endloop
  endfacet
  facet normal 0 0 1
    outer loop
      vertex -3.22984 -0.686513 11.1125
      vertex -4.65841 -0.990177 11.1125
      vertex -4.5294 -1.47169 11.1125
    endloop
  endfacet
  facet normal 0 0 1
    outer loop
      vertex -4.7625 0 11.1125
      vertex -3.30198 0 11.1125
      vertex -4.73639 0.497814 11.1125
    endloop
  endfacet
  facet normal 0 0 1
    outer loop
      vertex -3.28391 -0.345134 11.1125
      vertex -4.73639 -0.497814 11.1125
      vertex -4.65841 -0.990177 11.1125
    endloop
  endfacet
  facet normal 0 0 1
    outer loop
      vertex -3.30198 0 11.1125
      vertex -4.7625 0 11.1125
      vertex -4.73639 -0.497814 11.1125
    endloop
  endfacet
  facet normal -0.454003 0.891 0
    outer loop
      vertex -1.93707 4.35075 -11.1125
      vertex -2.38123 4.12443 11.1125
      vertex -1.93707 4.35075 11.1125
    endloop
  endfacet
  facet normal -0.454003 0.891 0
    outer loop
      vertex -2.38123 4.12443 11.1125
      vertex -1.93707 4.35075 -11.1125
      vertex -2.38123 4.12443 -11.1125
    endloop
  endfacet
  facet normal -0.358377 0.933577 0
    outer loop
      vertex -1.47169 4.5294 -11.1125
      vertex -1.93707 4.35075 11.1125
      vertex -1.47169 4.5294 11.1125
    endloop
  endfacet
  facet normal -0.358377 0.933577 0
    outer loop
      vertex -1.93707 4.35075 11.1125
      vertex -1.47169 4.5294 -11.1125
      vertex -1.93707 4.35075 -11.1125
    endloop
  endfacet
  facet normal -0.544613 0.838688 0
    outer loop
      vertex -2.38123 4.12443 -11.1125
      vertex -2.79932 3.85294 11.1125
      vertex -2.38123 4.12443 11.1125
    endloop
  endfacet
  facet normal -0.544613 0.838688 0
    outer loop
      vertex -2.79932 3.85294 11.1125
      vertex -2.38123 4.12443 -11.1125
      vertex -2.79932 3.85294 -11.1125
    endloop
  endfacet
  facet normal -0.0523825 0.998627 0
    outer loop
      vertex 0 4.7625 -11.1125
      vertex -0.497814 4.73639 11.1125
      vertex 0 4.7625 11.1125
    endloop
  endfacet
  facet normal -0.0523825 0.998627 0
    outer loop
      vertex -0.497814 4.73639 11.1125
      vertex 0 4.7625 -11.1125
      vertex -0.497814 4.73639 -11.1125
    endloop
  endfacet
  facet normal 0.998627 -0.0523825 0
    outer loop
      vertex 4.73639 -0.497814 11.1125
      vertex 4.7625 0 -11.1125
      vertex 4.7625 0 11.1125
    endloop
  endfacet
  facet normal 0.998627 -0.0523825 0
    outer loop
      vertex 4.7625 0 -11.1125
      vertex 4.73639 -0.497814 11.1125
      vertex 4.73639 -0.497814 -11.1125
    endloop
  endfacet
  facet normal 0.0523825 -0.998627 0
    outer loop
      vertex 0 -4.7625 -11.1125
      vertex 0.497814 -4.73639 11.1125
      vertex 0 -4.7625 11.1125
    endloop
  endfacet
  facet normal 0.0523825 -0.998627 0
    outer loop
      vertex 0.497814 -4.73639 11.1125
      vertex 0 -4.7625 -11.1125
      vertex 0.497814 -4.73639 -11.1125
    endloop
  endfacet
  facet normal 0.258806 -0.965929 0
    outer loop
      vertex 0.990177 -4.65841 -11.1125
      vertex 1.47169 -4.5294 11.1125
      vertex 0.990177 -4.65841 11.1125
    endloop
  endfacet
  facet normal 0.258806 -0.965929 0
    outer loop
      vertex 1.47169 -4.5294 11.1125
      vertex 0.990177 -4.65841 -11.1125
      vertex 1.47169 -4.5294 -11.1125
    endloop
  endfacet
  facet normal 0.629324 -0.777143 0
    outer loop
      vertex 2.79932 -3.85294 -11.1125
      vertex 3.18672 -3.53922 11.1125
      vertex 2.79932 -3.85294 11.1125
    endloop
  endfacet
  facet normal 0.629324 -0.777143 0
    outer loop
      vertex 3.18672 -3.53922 11.1125
      vertex 2.79932 -3.85294 -11.1125
      vertex 3.18672 -3.53922 -11.1125
    endloop
  endfacet
  facet normal 0.453984 -0.89101 0
    outer loop
      vertex 1.93707 -4.35075 -11.1125
      vertex 2.38125 -4.12443 11.1125
      vertex 1.93707 -4.35075 11.1125
    endloop
  endfacet
  facet normal 0.453984 -0.89101 0
    outer loop
      vertex 2.38125 -4.12443 11.1125
      vertex 1.93707 -4.35075 -11.1125
      vertex 2.38125 -4.12443 -11.1125
    endloop
  endfacet
  facet normal 0.777143 -0.629324 0
    outer loop
      vertex 3.53922 -3.18672 11.1125
      vertex 3.85294 -2.79932 -11.1125
      vertex 3.85294 -2.79932 11.1125
    endloop
  endfacet
  facet normal 0.777143 -0.629324 0
    outer loop
      vertex 3.85294 -2.79932 -11.1125
      vertex 3.53922 -3.18672 11.1125
      vertex 3.53922 -3.18672 -11.1125
    endloop
  endfacet
  facet normal 0.891 -0.454003 0
    outer loop
      vertex 4.12443 -2.38123 11.1125
      vertex 4.35075 -1.93707 -11.1125
      vertex 4.35075 -1.93707 11.1125
    endloop
  endfacet
  facet normal 0.891 -0.454003 0
    outer loop
      vertex 4.35075 -1.93707 -11.1125
      vertex 4.12443 -2.38123 11.1125
      vertex 4.12443 -2.38123 -11.1125
    endloop
  endfacet
  facet normal -0.707107 -0.707107 0
    outer loop
      vertex -3.18672 -3.53922 -11.1125
      vertex -3.53922 -3.18672 11.1125
      vertex -3.53922 -3.18672 -11.1125
    endloop
  endfacet
  facet normal -0.707107 -0.707107 0
    outer loop
      vertex -3.53922 -3.18672 11.1125
      vertex -3.18672 -3.53922 -11.1125
      vertex -3.18672 -3.53922 11.1125
    endloop
  endfacet
  facet normal -0.544635 -0.838673 0
    outer loop
      vertex -2.79932 -3.85294 -11.1125
      vertex -2.38125 -4.12443 11.1125
      vertex -2.79932 -3.85294 11.1125
    endloop
  endfacet
  facet normal -0.544635 -0.838673 -0
    outer loop
      vertex -2.38125 -4.12443 11.1125
      vertex -2.79932 -3.85294 -11.1125
      vertex -2.38125 -4.12443 -11.1125
    endloop
  endfacet
  facet normal -0.358377 -0.933577 0
    outer loop
      vertex -1.93707 -4.35075 -11.1125
      vertex -1.47169 -4.5294 11.1125
      vertex -1.93707 -4.35075 11.1125
    endloop
  endfacet
  facet normal -0.358377 -0.933577 -0
    outer loop
      vertex -1.47169 -4.5294 11.1125
      vertex -1.93707 -4.35075 -11.1125
      vertex -1.47169 -4.5294 -11.1125
    endloop
  endfacet
  facet normal -0.156419 -0.987691 0
    outer loop
      vertex -0.990177 -4.65841 -11.1125
      vertex -0.497814 -4.73639 11.1125
      vertex -0.990177 -4.65841 11.1125
    endloop
  endfacet
  facet normal -0.156419 -0.987691 -0
    outer loop
      vertex -0.497814 -4.73639 11.1125
      vertex -0.990177 -4.65841 -11.1125
      vertex -0.497814 -4.73639 -11.1125
    endloop
  endfacet
  facet normal -0.933577 -0.358377 0
    outer loop
      vertex -4.35075 -1.93707 -11.1125
      vertex -4.5294 -1.47169 11.1125
      vertex -4.5294 -1.47169 -11.1125
    endloop
  endfacet
  facet normal -0.933577 -0.358377 0
    outer loop
      vertex -4.5294 -1.47169 11.1125
      vertex -4.35075 -1.93707 -11.1125
      vertex -4.35075 -1.93707 11.1125
    endloop
  endfacet
  facet normal -0.838688 -0.544613 0
    outer loop
      vertex -3.85294 -2.79932 -11.1125
      vertex -4.12443 -2.38123 11.1125
      vertex -4.12443 -2.38123 -11.1125
    endloop
  endfacet
  facet normal -0.838688 -0.544613 0
    outer loop
      vertex -4.12443 -2.38123 11.1125
      vertex -3.85294 -2.79932 -11.1125
      vertex -3.85294 -2.79932 11.1125
    endloop
  endfacet
  facet normal -0.965929 -0.258806 0
    outer loop
      vertex -4.5294 -1.47169 -11.1125
      vertex -4.65841 -0.990177 11.1125
      vertex -4.65841 -0.990177 -11.1125
    endloop
  endfacet
  facet normal -0.965929 -0.258806 0
    outer loop
      vertex -4.65841 -0.990177 11.1125
      vertex -4.5294 -1.47169 -11.1125
      vertex -4.5294 -1.47169 11.1125
    endloop
  endfacet
  facet normal -0.998627 -0.0523825 0
    outer loop
      vertex -4.73639 -0.497814 -11.1125
      vertex -4.7625 0 11.1125
      vertex -4.7625 0 -11.1125
    endloop
  endfacet
  facet normal -0.998627 -0.0523825 0
    outer loop
      vertex -4.7625 0 11.1125
      vertex -4.73639 -0.497814 -11.1125
      vertex -4.73639 -0.497814 11.1125
    endloop
  endfacet
  facet normal 0.156419 -0.987691 0
    outer loop
      vertex 0.497814 -4.73639 -11.1125
      vertex 0.990177 -4.65841 11.1125
      vertex 0.497814 -4.73639 11.1125
    endloop
  endfacet
  facet normal 0.156419 -0.987691 0
    outer loop
      vertex 0.990177 -4.65841 11.1125
      vertex 0.497814 -4.73639 -11.1125
      vertex 0.990177 -4.65841 -11.1125
    endloop
  endfacet
  facet normal 0.358377 -0.933577 0
    outer loop
      vertex 1.47169 -4.5294 -11.1125
      vertex 1.93707 -4.35075 11.1125
      vertex 1.47169 -4.5294 11.1125
    endloop
  endfacet
  facet normal 0.358377 -0.933577 0
    outer loop
      vertex 1.93707 -4.35075 11.1125
      vertex 1.47169 -4.5294 -11.1125
      vertex 1.93707 -4.35075 -11.1125
    endloop
  endfacet
  facet normal 0.707107 -0.707107 0
    outer loop
      vertex 3.18672 -3.53922 11.1125
      vertex 3.53922 -3.18672 -11.1125
      vertex 3.53922 -3.18672 11.1125
    endloop
  endfacet
  facet normal 0.707107 -0.707107 0
    outer loop
      vertex 3.53922 -3.18672 -11.1125
      vertex 3.18672 -3.53922 11.1125
      vertex 3.18672 -3.53922 -11.1125
    endloop
  endfacet
  facet normal 0.544635 -0.838673 0
    outer loop
      vertex 2.38125 -4.12443 -11.1125
      vertex 2.79932 -3.85294 11.1125
      vertex 2.38125 -4.12443 11.1125
    endloop
  endfacet
  facet normal 0.544635 -0.838673 0
    outer loop
      vertex 2.79932 -3.85294 11.1125
      vertex 2.38125 -4.12443 -11.1125
      vertex 2.79932 -3.85294 -11.1125
    endloop
  endfacet
  facet normal 0.838688 -0.544613 0
    outer loop
      vertex 3.85294 -2.79932 11.1125
      vertex 4.12443 -2.38123 -11.1125
      vertex 4.12443 -2.38123 11.1125
    endloop
  endfacet
  facet normal 0.838688 -0.544613 0
    outer loop
      vertex 4.12443 -2.38123 -11.1125
      vertex 3.85294 -2.79932 11.1125
      vertex 3.85294 -2.79932 -11.1125
    endloop
  endfacet
  facet normal 0.987691 -0.156419 0
    outer loop
      vertex 4.65841 -0.990177 11.1125
      vertex 4.73639 -0.497814 -11.1125
      vertex 4.73639 -0.497814 11.1125
    endloop
  endfacet
  facet normal 0.987691 -0.156419 0
    outer loop
      vertex 4.73639 -0.497814 -11.1125
      vertex 4.65841 -0.990177 11.1125
      vertex 4.65841 -0.990177 -11.1125
    endloop
  endfacet
  facet normal -0.629324 -0.777143 0
    outer loop
      vertex -3.18672 -3.53922 -11.1125
      vertex -2.79932 -3.85294 11.1125
      vertex -3.18672 -3.53922 11.1125
    endloop
  endfacet
  facet normal -0.629324 -0.777143 -0
    outer loop
      vertex -2.79932 -3.85294 11.1125
      vertex -3.18672 -3.53922 -11.1125
      vertex -2.79932 -3.85294 -11.1125
    endloop
  endfacet
  facet normal -0.453984 -0.89101 0
    outer loop
      vertex -2.38125 -4.12443 -11.1125
      vertex -1.93707 -4.35075 11.1125
      vertex -2.38125 -4.12443 11.1125
    endloop
  endfacet
  facet normal -0.453984 -0.89101 -0
    outer loop
      vertex -1.93707 -4.35075 11.1125
      vertex -2.38125 -4.12443 -11.1125
      vertex -1.93707 -4.35075 -11.1125
    endloop
  endfacet
  facet normal -0.258806 -0.965929 0
    outer loop
      vertex -1.47169 -4.5294 -11.1125
      vertex -0.990177 -4.65841 11.1125
      vertex -1.47169 -4.5294 11.1125
    endloop
  endfacet
  facet normal -0.258806 -0.965929 -0
    outer loop
      vertex -0.990177 -4.65841 11.1125
      vertex -1.47169 -4.5294 -11.1125
      vertex -0.990177 -4.65841 -11.1125
    endloop
  endfacet
  facet normal -0.891 -0.454003 0
    outer loop
      vertex -4.12443 -2.38123 -11.1125
      vertex -4.35075 -1.93707 11.1125
      vertex -4.35075 -1.93707 -11.1125
    endloop
  endfacet
  facet normal -0.891 -0.454003 0
    outer loop
      vertex -4.35075 -1.93707 11.1125
      vertex -4.12443 -2.38123 -11.1125
      vertex -4.12443 -2.38123 11.1125
    endloop
  endfacet
  facet normal -0.987691 -0.156419 0
    outer loop
      vertex -4.65841 -0.990177 -11.1125
      vertex -4.73639 -0.497814 11.1125
      vertex -4.73639 -0.497814 -11.1125
    endloop
  endfacet
  facet normal -0.987691 -0.156419 0
    outer loop
      vertex -4.73639 -0.497814 11.1125
      vertex -4.65841 -0.990177 -11.1125
      vertex -4.65841 -0.990177 11.1125
    endloop
  endfacet
  facet normal -0.998632 -0.0522862 0
    outer loop
      vertex 3.30198 0 -11.1125
      vertex 3.28391 0.345134 11.1125
      vertex 3.28391 0.345134 -11.1125
    endloop
  endfacet
  facet normal -0.998632 -0.0522862 0
    outer loop
      vertex 3.28391 0.345134 11.1125
      vertex 3.30198 0 -11.1125
      vertex 3.30198 0 11.1125
    endloop
  endfacet
  facet normal 0.998632 -0.0522862 0
    outer loop
      vertex -3.30198 0 11.1125
      vertex -3.28391 0.345134 -11.1125
      vertex -3.28391 0.345134 11.1125
    endloop
  endfacet
  facet normal 0.998632 -0.0522862 0
    outer loop
      vertex -3.28391 0.345134 -11.1125
      vertex -3.30198 0 11.1125
      vertex -3.30198 0 -11.1125
    endloop
  endfacet
  facet normal 0.0522862 -0.998632 0
    outer loop
      vertex -0.345134 3.28391 -11.1125
      vertex 0 3.30198 11.1125
      vertex -0.345134 3.28391 11.1125
    endloop
  endfacet
  facet normal 0.0522862 -0.998632 0
    outer loop
      vertex 0 3.30198 11.1125
      vertex -0.345134 3.28391 -11.1125
      vertex 0 3.30198 -11.1125
    endloop
  endfacet
  facet normal -0.0522862 0.998632 0
    outer loop
      vertex 0.345134 -3.28391 -11.1125
      vertex 0 -3.30198 11.1125
      vertex 0.345134 -3.28391 11.1125
    endloop
  endfacet
  facet normal -0.0522862 0.998632 0
    outer loop
      vertex 0 -3.30198 11.1125
      vertex 0.345134 -3.28391 -11.1125
      vertex 0 -3.30198 -11.1125
    endloop
  endfacet
  facet normal -0.629333 -0.777135 0
    outer loop
      vertex 1.94085 2.67137 -11.1125
      vertex 2.20946 2.45385 11.1125
      vertex 1.94085 2.67137 11.1125
    endloop
  endfacet
  facet normal -0.629333 -0.777135 -0
    outer loop
      vertex 2.20946 2.45385 11.1125
      vertex 1.94085 2.67137 -11.1125
      vertex 2.20946 2.45385 -11.1125
    endloop
  endfacet
  facet normal 0.707107 -0.707107 0
    outer loop
      vertex -2.45385 2.20946 11.1125
      vertex -2.20946 2.45385 -11.1125
      vertex -2.20946 2.45385 11.1125
    endloop
  endfacet
  facet normal 0.707107 -0.707107 0
    outer loop
      vertex -2.20946 2.45385 -11.1125
      vertex -2.45385 2.20946 11.1125
      vertex -2.45385 2.20946 -11.1125
    endloop
  endfacet
  facet normal 0.453957 -0.891023 0
    outer loop
      vertex -1.65099 2.85961 -11.1125
      vertex -1.34304 3.01651 11.1125
      vertex -1.65099 2.85961 11.1125
    endloop
  endfacet
  facet normal 0.453957 -0.891023 0
    outer loop
      vertex -1.34304 3.01651 11.1125
      vertex -1.65099 2.85961 -11.1125
      vertex -1.34304 3.01651 -11.1125
    endloop
  endfacet
  facet normal -0.891023 -0.453957 0
    outer loop
      vertex 3.01651 1.34304 -11.1125
      vertex 2.85961 1.65099 11.1125
      vertex 2.85961 1.65099 -11.1125
    endloop
  endfacet
  facet normal -0.891023 -0.453957 0
    outer loop
      vertex 2.85961 1.65099 11.1125
      vertex 3.01651 1.34304 -11.1125
      vertex 3.01651 1.34304 11.1125
    endloop
  endfacet
  facet normal -0.258827 -0.965924 0
    outer loop
      vertex 0.686513 3.22984 -11.1125
      vertex 1.02036 3.14038 11.1125
      vertex 0.686513 3.22984 11.1125
    endloop
  endfacet
  facet normal -0.258827 -0.965924 -0
    outer loop
      vertex 1.02036 3.14038 11.1125
      vertex 0.686513 3.22984 -11.1125
      vertex 1.02036 3.14038 -11.1125
    endloop
  endfacet
  facet normal -0.156427 -0.98769 0
    outer loop
      vertex 0.345134 3.28391 -11.1125
      vertex 0.686513 3.22984 11.1125
      vertex 0.345134 3.28391 11.1125
    endloop
  endfacet
  facet normal -0.156427 -0.98769 -0
    outer loop
      vertex 0.686513 3.22984 11.1125
      vertex 0.345134 3.28391 -11.1125
      vertex 0.686513 3.22984 -11.1125
    endloop
  endfacet
  facet normal -0.453957 -0.891023 0
    outer loop
      vertex 1.34304 3.01651 -11.1125
      vertex 1.65099 2.85961 11.1125
      vertex 1.34304 3.01651 11.1125
    endloop
  endfacet
  facet normal -0.453957 -0.891023 -0
    outer loop
      vertex 1.65099 2.85961 11.1125
      vertex 1.34304 3.01651 -11.1125
      vertex 1.65099 2.85961 -11.1125
    endloop
  endfacet
  facet normal 0.891023 -0.453957 0
    outer loop
      vertex -3.01651 1.34304 11.1125
      vertex -2.85961 1.65099 -11.1125
      vertex -2.85961 1.65099 11.1125
    endloop
  endfacet
  facet normal 0.891023 -0.453957 0
    outer loop
      vertex -2.85961 1.65099 -11.1125
      vertex -3.01651 1.34304 11.1125
      vertex -3.01651 1.34304 -11.1125
    endloop
  endfacet
  facet normal 0.838665 -0.544648 0
    outer loop
      vertex -2.85961 1.65099 11.1125
      vertex -2.67137 1.94085 -11.1125
      vertex -2.67137 1.94085 11.1125
    endloop
  endfacet
  facet normal 0.838665 -0.544648 0
    outer loop
      vertex -2.67137 1.94085 -11.1125
      vertex -2.85961 1.65099 11.1125
      vertex -2.85961 1.65099 -11.1125
    endloop
  endfacet
  facet normal 0.544648 -0.838665 0
    outer loop
      vertex -1.94085 2.67137 -11.1125
      vertex -1.65099 2.85961 11.1125
      vertex -1.94085 2.67137 11.1125
    endloop
  endfacet
  facet normal 0.544648 -0.838665 0
    outer loop
      vertex -1.65099 2.85961 11.1125
      vertex -1.94085 2.67137 -11.1125
      vertex -1.65099 2.85961 -11.1125
    endloop
  endfacet
  facet normal 0.258827 -0.965924 0
    outer loop
      vertex -1.02036 3.14038 -11.1125
      vertex -0.686513 3.22984 11.1125
      vertex -1.02036 3.14038 11.1125
    endloop
  endfacet
  facet normal 0.258827 -0.965924 0
    outer loop
      vertex -0.686513 3.22984 11.1125
      vertex -1.02036 3.14038 -11.1125
      vertex -0.686513 3.22984 -11.1125
    endloop
  endfacet
  facet normal 0.933567 0.358402 0
    outer loop
      vertex -3.01651 -1.34304 11.1125
      vertex -3.14038 -1.02036 -11.1125
      vertex -3.14038 -1.02036 11.1125
    endloop
  endfacet
  facet normal 0.933567 0.358402 0
    outer loop
      vertex -3.14038 -1.02036 -11.1125
      vertex -3.01651 -1.34304 11.1125
      vertex -3.01651 -1.34304 -11.1125
    endloop
  endfacet
  facet normal -0.156427 0.98769 0
    outer loop
      vertex 0.686513 -3.22984 -11.1125
      vertex 0.345134 -3.28391 11.1125
      vertex 0.686513 -3.22984 11.1125
    endloop
  endfacet
  facet normal -0.156427 0.98769 0
    outer loop
      vertex 0.345134 -3.28391 11.1125
      vertex 0.686513 -3.22984 -11.1125
      vertex 0.345134 -3.28391 -11.1125
    endloop
  endfacet
  facet normal -0.965924 -0.258827 0
    outer loop
      vertex 3.22984 0.686513 -11.1125
      vertex 3.14038 1.02036 11.1125
      vertex 3.14038 1.02036 -11.1125
    endloop
  endfacet
  facet normal -0.965924 -0.258827 0
    outer loop
      vertex 3.14038 1.02036 11.1125
      vertex 3.22984 0.686513 -11.1125
      vertex 3.22984 0.686513 11.1125
    endloop
  endfacet
  facet normal -0.98769 -0.156427 0
    outer loop
      vertex 3.28391 0.345134 -11.1125
      vertex 3.22984 0.686513 11.1125
      vertex 3.22984 0.686513 -11.1125
    endloop
  endfacet
  facet normal -0.98769 -0.156427 0
    outer loop
      vertex 3.22984 0.686513 11.1125
      vertex 3.28391 0.345134 -11.1125
      vertex 3.28391 0.345134 11.1125
    endloop
  endfacet
  facet normal -0.933567 -0.358402 0
    outer loop
      vertex 3.14038 1.02036 -11.1125
      vertex 3.01651 1.34304 11.1125
      vertex 3.01651 1.34304 -11.1125
    endloop
  endfacet
  facet normal -0.933567 -0.358402 0
    outer loop
      vertex 3.01651 1.34304 11.1125
      vertex 3.14038 1.02036 -11.1125
      vertex 3.14038 1.02036 11.1125
    endloop
  endfacet
  facet normal -0.777135 -0.629333 0
    outer loop
      vertex 2.67137 1.94085 -11.1125
      vertex 2.45385 2.20946 11.1125
      vertex 2.45385 2.20946 -11.1125
    endloop
  endfacet
  facet normal -0.777135 -0.629333 0
    outer loop
      vertex 2.45385 2.20946 11.1125
      vertex 2.67137 1.94085 -11.1125
      vertex 2.67137 1.94085 11.1125
    endloop
  endfacet
  facet normal -0.707107 -0.707107 0
    outer loop
      vertex 2.45385 2.20946 -11.1125
      vertex 2.20946 2.45385 11.1125
      vertex 2.20946 2.45385 -11.1125
    endloop
  endfacet
  facet normal -0.707107 -0.707107 0
    outer loop
      vertex 2.20946 2.45385 11.1125
      vertex 2.45385 2.20946 -11.1125
      vertex 2.45385 2.20946 11.1125
    endloop
  endfacet
  facet normal -0.838665 -0.544648 0
    outer loop
      vertex 2.85961 1.65099 -11.1125
      vertex 2.67137 1.94085 11.1125
      vertex 2.67137 1.94085 -11.1125
    endloop
  endfacet
  facet normal -0.838665 -0.544648 0
    outer loop
      vertex 2.67137 1.94085 11.1125
      vertex 2.85961 1.65099 -11.1125
      vertex 2.85961 1.65099 11.1125
    endloop
  endfacet
  facet normal -0.0522862 -0.998632 0
    outer loop
      vertex 0 3.30198 -11.1125
      vertex 0.345134 3.28391 11.1125
      vertex 0 3.30198 11.1125
    endloop
  endfacet
  facet normal -0.0522862 -0.998632 -0
    outer loop
      vertex 0.345134 3.28391 11.1125
      vertex 0 3.30198 -11.1125
      vertex 0.345134 3.28391 -11.1125
    endloop
  endfacet
  facet normal -0.544648 -0.838665 0
    outer loop
      vertex 1.65099 2.85961 -11.1125
      vertex 1.94085 2.67137 11.1125
      vertex 1.65099 2.85961 11.1125
    endloop
  endfacet
  facet normal -0.544648 -0.838665 -0
    outer loop
      vertex 1.94085 2.67137 11.1125
      vertex 1.65099 2.85961 -11.1125
      vertex 1.94085 2.67137 -11.1125
    endloop
  endfacet
  facet normal 0.933567 -0.358402 0
    outer loop
      vertex -3.14038 1.02036 11.1125
      vertex -3.01651 1.34304 -11.1125
      vertex -3.01651 1.34304 11.1125
    endloop
  endfacet
  facet normal 0.933567 -0.358402 0
    outer loop
      vertex -3.01651 1.34304 -11.1125
      vertex -3.14038 1.02036 11.1125
      vertex -3.14038 1.02036 -11.1125
    endloop
  endfacet
  facet normal 0.965924 -0.258827 0
    outer loop
      vertex -3.22984 0.686513 11.1125
      vertex -3.14038 1.02036 -11.1125
      vertex -3.14038 1.02036 11.1125
    endloop
  endfacet
  facet normal 0.965924 -0.258827 0
    outer loop
      vertex -3.14038 1.02036 -11.1125
      vertex -3.22984 0.686513 11.1125
      vertex -3.22984 0.686513 -11.1125
    endloop
  endfacet
  facet normal 0.98769 -0.156427 0
    outer loop
      vertex -3.28391 0.345134 11.1125
      vertex -3.22984 0.686513 -11.1125
      vertex -3.22984 0.686513 11.1125
    endloop
  endfacet
  facet normal 0.98769 -0.156427 0
    outer loop
      vertex -3.22984 0.686513 -11.1125
      vertex -3.28391 0.345134 11.1125
      vertex -3.28391 0.345134 -11.1125
    endloop
  endfacet
  facet normal 0.629333 -0.777135 0
    outer loop
      vertex -2.20946 2.45385 -11.1125
      vertex -1.94085 2.67137 11.1125
      vertex -2.20946 2.45385 11.1125
    endloop
  endfacet
  facet normal 0.629333 -0.777135 0
    outer loop
      vertex -1.94085 2.67137 11.1125
      vertex -2.20946 2.45385 -11.1125
      vertex -1.94085 2.67137 -11.1125
    endloop
  endfacet
  facet normal 0.156427 -0.98769 0
    outer loop
      vertex -0.686513 3.22984 -11.1125
      vertex -0.345134 3.28391 11.1125
      vertex -0.686513 3.22984 11.1125
    endloop
  endfacet
  facet normal 0.156427 -0.98769 0
    outer loop
      vertex -0.345134 3.28391 11.1125
      vertex -0.686513 3.22984 -11.1125
      vertex -0.345134 3.28391 -11.1125
    endloop
  endfacet
  facet normal -0.98769 0.156427 0
    outer loop
      vertex 3.22984 -0.686513 -11.1125
      vertex 3.28391 -0.345134 11.1125
      vertex 3.28391 -0.345134 -11.1125
    endloop
  endfacet
  facet normal -0.98769 0.156427 0
    outer loop
      vertex 3.28391 -0.345134 11.1125
      vertex 3.22984 -0.686513 -11.1125
      vertex 3.22984 -0.686513 11.1125
    endloop
  endfacet
  facet normal -0.998632 0.0522862 0
    outer loop
      vertex 3.28391 -0.345134 -11.1125
      vertex 3.30198 0 11.1125
      vertex 3.30198 0 -11.1125
    endloop
  endfacet
  facet normal -0.998632 0.0522862 0
    outer loop
      vertex 3.30198 0 11.1125
      vertex 3.28391 -0.345134 -11.1125
      vertex 3.28391 -0.345134 11.1125
    endloop
  endfacet
  facet normal -0.777135 0.629333 0
    outer loop
      vertex 2.45385 -2.20946 -11.1125
      vertex 2.67137 -1.94085 11.1125
      vertex 2.67137 -1.94085 -11.1125
    endloop
  endfacet
  facet normal -0.777135 0.629333 0
    outer loop
      vertex 2.67137 -1.94085 11.1125
      vertex 2.45385 -2.20946 -11.1125
      vertex 2.45385 -2.20946 11.1125
    endloop
  endfacet
  facet normal -0.933567 0.358402 0
    outer loop
      vertex 3.01651 -1.34304 -11.1125
      vertex 3.14038 -1.02036 11.1125
      vertex 3.14038 -1.02036 -11.1125
    endloop
  endfacet
  facet normal -0.933567 0.358402 0
    outer loop
      vertex 3.14038 -1.02036 11.1125
      vertex 3.01651 -1.34304 -11.1125
      vertex 3.01651 -1.34304 11.1125
    endloop
  endfacet
  facet normal 0.358402 0.933567 -0
    outer loop
      vertex -1.02036 -3.14038 -11.1125
      vertex -1.34304 -3.01651 11.1125
      vertex -1.02036 -3.14038 11.1125
    endloop
  endfacet
  facet normal 0.358402 0.933567 0
    outer loop
      vertex -1.34304 -3.01651 11.1125
      vertex -1.02036 -3.14038 -11.1125
      vertex -1.34304 -3.01651 -11.1125
    endloop
  endfacet
  facet normal 0.998632 0.0522862 0
    outer loop
      vertex -3.28391 -0.345134 11.1125
      vertex -3.30198 0 -11.1125
      vertex -3.30198 0 11.1125
    endloop
  endfacet
  facet normal 0.998632 0.0522862 0
    outer loop
      vertex -3.30198 0 -11.1125
      vertex -3.28391 -0.345134 11.1125
      vertex -3.28391 -0.345134 -11.1125
    endloop
  endfacet
  facet normal -0.358402 0.933567 0
    outer loop
      vertex 1.34304 -3.01651 -11.1125
      vertex 1.02036 -3.14038 11.1125
      vertex 1.34304 -3.01651 11.1125
    endloop
  endfacet
  facet normal -0.358402 0.933567 0
    outer loop
      vertex 1.02036 -3.14038 11.1125
      vertex 1.34304 -3.01651 -11.1125
      vertex 1.02036 -3.14038 -11.1125
    endloop
  endfacet
  facet normal -0.358402 -0.933567 0
    outer loop
      vertex 1.02036 3.14038 -11.1125
      vertex 1.34304 3.01651 11.1125
      vertex 1.02036 3.14038 11.1125
    endloop
  endfacet
  facet normal -0.358402 -0.933567 -0
    outer loop
      vertex 1.34304 3.01651 11.1125
      vertex 1.02036 3.14038 -11.1125
      vertex 1.34304 3.01651 -11.1125
    endloop
  endfacet
  facet normal 0.777135 -0.629333 0
    outer loop
      vertex -2.67137 1.94085 11.1125
      vertex -2.45385 2.20946 -11.1125
      vertex -2.45385 2.20946 11.1125
    endloop
  endfacet
  facet normal 0.777135 -0.629333 0
    outer loop
      vertex -2.45385 2.20946 -11.1125
      vertex -2.67137 1.94085 11.1125
      vertex -2.67137 1.94085 -11.1125
    endloop
  endfacet
  facet normal 0.358402 -0.933567 0
    outer loop
      vertex -1.34304 3.01651 -11.1125
      vertex -1.02036 3.14038 11.1125
      vertex -1.34304 3.01651 11.1125
    endloop
  endfacet
  facet normal 0.358402 -0.933567 0
    outer loop
      vertex -1.02036 3.14038 11.1125
      vertex -1.34304 3.01651 -11.1125
      vertex -1.02036 3.14038 -11.1125
    endloop
  endfacet
  facet normal -0.838665 0.544648 0
    outer loop
      vertex 2.67137 -1.94085 -11.1125
      vertex 2.85961 -1.65099 11.1125
      vertex 2.85961 -1.65099 -11.1125
    endloop
  endfacet
  facet normal -0.838665 0.544648 0
    outer loop
      vertex 2.85961 -1.65099 11.1125
      vertex 2.67137 -1.94085 -11.1125
      vertex 2.67137 -1.94085 11.1125
    endloop
  endfacet
  facet normal -0.544648 0.838665 0
    outer loop
      vertex 1.94085 -2.67137 -11.1125
      vertex 1.65099 -2.85961 11.1125
      vertex 1.94085 -2.67137 11.1125
    endloop
  endfacet
  facet normal -0.544648 0.838665 0
    outer loop
      vertex 1.65099 -2.85961 11.1125
      vertex 1.94085 -2.67137 -11.1125
      vertex 1.65099 -2.85961 -11.1125
    endloop
  endfacet
  facet normal 0.258827 0.965924 -0
    outer loop
      vertex -0.686513 -3.22984 -11.1125
      vertex -1.02036 -3.14038 11.1125
      vertex -0.686513 -3.22984 11.1125
    endloop
  endfacet
  facet normal 0.258827 0.965924 0
    outer loop
      vertex -1.02036 -3.14038 11.1125
      vertex -0.686513 -3.22984 -11.1125
      vertex -1.02036 -3.14038 -11.1125
    endloop
  endfacet
  facet normal 0.777135 0.629333 0
    outer loop
      vertex -2.45385 -2.20946 11.1125
      vertex -2.67137 -1.94085 -11.1125
      vertex -2.67137 -1.94085 11.1125
    endloop
  endfacet
  facet normal 0.777135 0.629333 0
    outer loop
      vertex -2.67137 -1.94085 -11.1125
      vertex -2.45385 -2.20946 11.1125
      vertex -2.45385 -2.20946 -11.1125
    endloop
  endfacet
  facet normal -0.453957 0.891023 0
    outer loop
      vertex 1.65099 -2.85961 -11.1125
      vertex 1.34304 -3.01651 11.1125
      vertex 1.65099 -2.85961 11.1125
    endloop
  endfacet
  facet normal -0.453957 0.891023 0
    outer loop
      vertex 1.34304 -3.01651 11.1125
      vertex 1.65099 -2.85961 -11.1125
      vertex 1.34304 -3.01651 -11.1125
    endloop
  endfacet
  facet normal -0.258827 0.965924 0
    outer loop
      vertex 1.02036 -3.14038 -11.1125
      vertex 0.686513 -3.22984 11.1125
      vertex 1.02036 -3.14038 11.1125
    endloop
  endfacet
  facet normal -0.258827 0.965924 0
    outer loop
      vertex 0.686513 -3.22984 11.1125
      vertex 1.02036 -3.14038 -11.1125
      vertex 0.686513 -3.22984 -11.1125
    endloop
  endfacet
  facet normal -0.965924 0.258827 0
    outer loop
      vertex 3.14038 -1.02036 -11.1125
      vertex 3.22984 -0.686513 11.1125
      vertex 3.22984 -0.686513 -11.1125
    endloop
  endfacet
  facet normal -0.965924 0.258827 0
    outer loop
      vertex 3.22984 -0.686513 11.1125
      vertex 3.14038 -1.02036 -11.1125
      vertex 3.14038 -1.02036 11.1125
    endloop
  endfacet
  facet normal -0.891023 0.453957 0
    outer loop
      vertex 2.85961 -1.65099 -11.1125
      vertex 3.01651 -1.34304 11.1125
      vertex 3.01651 -1.34304 -11.1125
    endloop
  endfacet
  facet normal -0.891023 0.453957 0
    outer loop
      vertex 3.01651 -1.34304 11.1125
      vertex 2.85961 -1.65099 -11.1125
      vertex 2.85961 -1.65099 11.1125
    endloop
  endfacet
  facet normal 0.707107 0.707107 0
    outer loop
      vertex -2.20946 -2.45385 11.1125
      vertex -2.45385 -2.20946 -11.1125
      vertex -2.45385 -2.20946 11.1125
    endloop
  endfacet
  facet normal 0.707107 0.707107 0
    outer loop
      vertex -2.45385 -2.20946 -11.1125
      vertex -2.20946 -2.45385 11.1125
      vertex -2.20946 -2.45385 -11.1125
    endloop
  endfacet
  facet normal 0.891023 0.453957 0
    outer loop
      vertex -2.85961 -1.65099 11.1125
      vertex -3.01651 -1.34304 -11.1125
      vertex -3.01651 -1.34304 11.1125
    endloop
  endfacet
  facet normal 0.891023 0.453957 0
    outer loop
      vertex -3.01651 -1.34304 -11.1125
      vertex -2.85961 -1.65099 11.1125
      vertex -2.85961 -1.65099 -11.1125
    endloop
  endfacet
  facet normal 0.965924 0.258827 0
    outer loop
      vertex -3.14038 -1.02036 11.1125
      vertex -3.22984 -0.686513 -11.1125
      vertex -3.22984 -0.686513 11.1125
    endloop
  endfacet
  facet normal 0.965924 0.258827 0
    outer loop
      vertex -3.22984 -0.686513 -11.1125
      vertex -3.14038 -1.02036 11.1125
      vertex -3.14038 -1.02036 -11.1125
    endloop
  endfacet
  facet normal 0.98769 0.156427 0
    outer loop
      vertex -3.22984 -0.686513 11.1125
      vertex -3.28391 -0.345134 -11.1125
      vertex -3.28391 -0.345134 11.1125
    endloop
  endfacet
  facet normal 0.98769 0.156427 0
    outer loop
      vertex -3.28391 -0.345134 -11.1125
      vertex -3.22984 -0.686513 11.1125
      vertex -3.22984 -0.686513 -11.1125
    endloop
  endfacet
  facet normal -0.707107 0.707107 0
    outer loop
      vertex 2.20946 -2.45385 -11.1125
      vertex 2.45385 -2.20946 11.1125
      vertex 2.45385 -2.20946 -11.1125
    endloop
  endfacet
  facet normal -0.707107 0.707107 0
    outer loop
      vertex 2.45385 -2.20946 11.1125
      vertex 2.20946 -2.45385 -11.1125
      vertex 2.20946 -2.45385 11.1125
    endloop
  endfacet
  facet normal -0.629333 0.777135 0
    outer loop
      vertex 2.20946 -2.45385 -11.1125
      vertex 1.94085 -2.67137 11.1125
      vertex 2.20946 -2.45385 11.1125
    endloop
  endfacet
  facet normal -0.629333 0.777135 0
    outer loop
      vertex 1.94085 -2.67137 11.1125
      vertex 2.20946 -2.45385 -11.1125
      vertex 1.94085 -2.67137 -11.1125
    endloop
  endfacet
  facet normal 0.156427 0.98769 -0
    outer loop
      vertex -0.345134 -3.28391 -11.1125
      vertex -0.686513 -3.22984 11.1125
      vertex -0.345134 -3.28391 11.1125
    endloop
  endfacet
  facet normal 0.156427 0.98769 0
    outer loop
      vertex -0.686513 -3.22984 11.1125
      vertex -0.345134 -3.28391 -11.1125
      vertex -0.686513 -3.22984 -11.1125
    endloop
  endfacet
  facet normal 0.0522862 0.998632 -0
    outer loop
      vertex 0 -3.30198 -11.1125
      vertex -0.345134 -3.28391 11.1125
      vertex 0 -3.30198 11.1125
    endloop
  endfacet
  facet normal 0.0522862 0.998632 0
    outer loop
      vertex -0.345134 -3.28391 11.1125
      vertex 0 -3.30198 -11.1125
      vertex -0.345134 -3.28391 -11.1125
    endloop
  endfacet
  facet normal 0.629333 0.777135 -0
    outer loop
      vertex -1.94085 -2.67137 -11.1125
      vertex -2.20946 -2.45385 11.1125
      vertex -1.94085 -2.67137 11.1125
    endloop
  endfacet
  facet normal 0.629333 0.777135 0
    outer loop
      vertex -2.20946 -2.45385 11.1125
      vertex -1.94085 -2.67137 -11.1125
      vertex -2.20946 -2.45385 -11.1125
    endloop
  endfacet
  facet normal 0.838665 0.544648 0
    outer loop
      vertex -2.67137 -1.94085 11.1125
      vertex -2.85961 -1.65099 -11.1125
      vertex -2.85961 -1.65099 11.1125
    endloop
  endfacet
  facet normal 0.838665 0.544648 0
    outer loop
      vertex -2.85961 -1.65099 -11.1125
      vertex -2.67137 -1.94085 11.1125
      vertex -2.67137 -1.94085 -11.1125
    endloop
  endfacet
  facet normal 0.453957 0.891023 -0
    outer loop
      vertex -1.34304 -3.01651 -11.1125
      vertex -1.65099 -2.85961 11.1125
      vertex -1.34304 -3.01651 11.1125
    endloop
  endfacet
  facet normal 0.453957 0.891023 0
    outer loop
      vertex -1.65099 -2.85961 11.1125
      vertex -1.34304 -3.01651 -11.1125
      vertex -1.65099 -2.85961 -11.1125
    endloop
  endfacet
  facet normal 0.544648 0.838665 -0
    outer loop
      vertex -1.65099 -2.85961 -11.1125
      vertex -1.94085 -2.67137 11.1125
      vertex -1.65099 -2.85961 11.1125
    endloop
  endfacet
  facet normal 0.544648 0.838665 0
    outer loop
      vertex -1.94085 -2.67137 11.1125
      vertex -1.65099 -2.85961 -11.1125
      vertex -1.94085 -2.67137 -11.1125
    endloop
  endfacet
endsolid OpenSCAD_Model
