<?xml version="1.0" standalone="no"?>
<!DOCTYPE svg PUBLIC "-//W3C//DTD SVG 1.1//EN" "http://www.w3.org/Graphics/SVG/1.1/DTD/svg11.dtd">
<svg width="116mm" height="116mm" viewBox="-58 -58 116 116" xmlns="http://www.w3.org/2000/svg" version="1.1">
<title>OpenSCAD Model</title>
<path d="
M 57.15,23.6722 L 57.15,-23.6722 L 23.6722,-57.15 L -23.6722,-57.15 L -57.15,-23.6722 L -57.15,23.6722
 L -23.6722,57.15 L 23.6722,57.15 z
M 0.607715,-27.0398 L -0.206577,-26.9367 L -0.970096,-27.239 L -1.49371,-27.8719 L -1.64757,-28.6785 L -1.39371,-29.4594
 L -0.7953,-30.0214 L 0,-30.2257 L 0.7953,-30.0214 L 1.39371,-29.4594 L 1.64757,-28.6785 L 1.49371,-27.8719
 L 0.970096,-27.239 z
M 0.607715,30.1098 L -0.206577,30.2129 L -0.970096,29.9106 L -1.49371,29.2777 L -1.64757,28.4711 L -1.39371,27.6902
 L -0.7953,27.1282 L 0,26.9239 L 0.7953,27.1282 L 1.39371,27.6902 L 1.64757,28.4711 L 1.49371,29.2777
 L 0.970096,29.9106 z
" stroke="black" fill="lightgray" stroke-width="0.5"/>
</svg>
