  0
SECTION
  2
BLOCKS
  0
ENDSEC
  0
SECTION
  2
ENTITIES
  0
LINE
  8
0
 10
101.6
 20
-42.0839
 11
101.6
 21
42.0839
  0
LINE
  8
0
 10
101.6
 20
42.0839
 11
42.0839
 21
101.6
  0
LINE
  8
0
 10
42.0839
 20
101.6
 11
-42.0839
 21
101.6
  0
LINE
  8
0
 10
-42.0839
 20
101.6
 11
-101.6
 21
42.0839
  0
LINE
  8
0
 10
-101.6
 20
42.0839
 11
-101.6
 21
-42.0839
  0
LINE
  8
0
 10
-101.6
 20
-42.0839
 11
-42.0839
 21
-101.6
  0
LINE
  8
0
 10
-42.0839
 20
-101.6
 11
42.0839
 21
-101.6
  0
LINE
  8
0
 10
42.0839
 20
-101.6
 11
101.6
 21
-42.0839
  0
LINE
  8
0
 10
0.607715
 20
49.2648
 11
-0.206577
 21
49.1617
  0
LINE
  8
0
 10
-0.206577
 20
49.1617
 11
-0.970096
 21
49.464
  0
LINE
  8
0
 10
-0.970096
 20
49.464
 11
-1.49371
 21
50.0969
  0
LINE
  8
0
 10
-1.49371
 20
50.0969
 11
-1.64757
 21
50.9035
  0
LINE
  8
0
 10
-1.64757
 20
50.9035
 11
-1.39371
 21
51.6844
  0
LINE
  8
0
 10
-1.39371
 20
51.6844
 11
-0.7953
 21
52.2464
  0
LINE
  8
0
 10
-0.7953
 20
52.2464
 11
0
 21
52.4507
  0
LINE
  8
0
 10
0
 20
52.4507
 11
0.7953
 21
52.2464
  0
LINE
  8
0
 10
0.7953
 20
52.2464
 11
1.39371
 21
51.6844
  0
LINE
  8
0
 10
1.39371
 20
51.6844
 11
1.64757
 21
50.9035
  0
LINE
  8
0
 10
1.64757
 20
50.9035
 11
1.49371
 21
50.0969
  0
LINE
  8
0
 10
1.49371
 20
50.0969
 11
0.970096
 21
49.464
  0
LINE
  8
0
 10
0.970096
 20
49.464
 11
0.607715
 21
49.2648
  0
LINE
  8
0
 10
0.607715
 20
-52.3348
 11
-0.206577
 21
-52.4379
  0
LINE
  8
0
 10
-0.206577
 20
-52.4379
 11
-0.970096
 21
-52.1356
  0
LINE
  8
0
 10
-0.970096
 20
-52.1356
 11
-1.49371
 21
-51.5027
  0
LINE
  8
0
 10
-1.49371
 20
-51.5027
 11
-1.64757
 21
-50.6961
  0
LINE
  8
0
 10
-1.64757
 20
-50.6961
 11
-1.39371
 21
-49.9152
  0
LINE
  8
0
 10
-1.39371
 20
-49.9152
 11
-0.7953
 21
-49.3532
  0
LINE
  8
0
 10
-0.7953
 20
-49.3532
 11
0
 21
-49.1489
  0
LINE
  8
0
 10
0
 20
-49.1489
 11
0.7953
 21
-49.3532
  0
LINE
  8
0
 10
0.7953
 20
-49.3532
 11
1.39371
 21
-49.9152
  0
LINE
  8
0
 10
1.39371
 20
-49.9152
 11
1.64757
 21
-50.6961
  0
LINE
  8
0
 10
1.64757
 20
-50.6961
 11
1.49371
 21
-51.5027
  0
LINE
  8
0
 10
1.49371
 20
-51.5027
 11
0.970096
 21
-52.1356
  0
LINE
  8
0
 10
0.970096
 20
-52.1356
 11
0.607715
 21
-52.3348
  0
ENDSEC
  0
SECTION
  2
OBJECTS
  0
DICTIONARY
  0
ENDSEC
  0
EOF
