<?xml version="1.0" standalone="no"?>
<!DOCTYPE svg PUBLIC "-//W3C//DTD SVG 1.1//EN" "http://www.w3.org/Graphics/SVG/1.1/DTD/svg11.dtd">
<svg width="204mm" height="204mm" viewBox="-102 -102 204 204" xmlns="http://www.w3.org/2000/svg" version="1.1">
<title>OpenSCAD Model</title>
<path d="
M 101.6,42.0839 L 101.6,-42.0839 L 42.0839,-101.6 L -42.0839,-101.6 L -101.6,-42.0839 L -101.6,42.0839
 L -42.0839,101.6 L 42.0839,101.6 z
M 0.607715,-49.2648 L -0.206577,-49.1617 L -0.970096,-49.464 L -1.49371,-50.0969 L -1.64757,-50.9035 L -1.39371,-51.6844
 L -0.7953,-52.2464 L 0,-52.4507 L 0.7953,-52.2464 L 1.39371,-51.6844 L 1.64757,-50.9035 L 1.49371,-50.0969
 L 0.970096,-49.464 z
M 0.607715,52.3348 L -0.206577,52.4379 L -0.970096,52.1356 L -1.49371,51.5027 L -1.64757,50.6961 L -1.39371,49.9152
 L -0.7953,49.3532 L 0,49.1489 L 0.7953,49.3532 L 1.39371,49.9152 L 1.64757,50.6961 L 1.49371,51.5027
 L 0.970096,52.1356 z
" stroke="black" fill="lightgray" stroke-width="0.5"/>
</svg>
