<?xml version="1.0" encoding="UTF-8" standalone="no"?>
<svg width="1285.17mm" height="663.222mm"
 viewBox="0 0 3643 1880"
 xmlns="http://www.w3.org/2000/svg" xmlns:xlink="http://www.w3.org/1999/xlink"  version="1.2" baseProfile="tiny">
<title>Qt SVG Document</title>
<desc>Generated with Qt</desc>
<defs>
</defs>
<g fill="none" stroke="black" stroke-width="1" fill-rule="evenodd" stroke-linecap="square" stroke-linejoin="bevel" >

<g fill="#ffffff" fill-opacity="1" stroke="none" transform="matrix(1,0,0,1,0,0)"
font-family="Ubuntu" font-size="11" font-weight="400" font-style="normal" 
>
<rect x="0" y="0" width="3643" height="1880"/>
</g>

<g fill="none" stroke="#000000" stroke-opacity="1" stroke-width="1" stroke-linecap="round" stroke-linejoin="round" transform="matrix(1,0,0,1,0,0)"
font-family="Ubuntu" font-size="11" font-weight="400" font-style="normal" 
>
<polyline fill="none" vector-effect="non-scaling-stroke" points="2876,667 2857,682 " />
<polyline fill="none" vector-effect="non-scaling-stroke" points="2599,390 3102,5 " />
<polyline fill="none" vector-effect="non-scaling-stroke" points="2857,682 2834,691 " />
<polyline fill="none" vector-effect="non-scaling-stroke" points="2891,648 2876,667 " />
<polyline fill="none" vector-effect="non-scaling-stroke" points="2834,691 2810,695 " />
<polyline fill="none" vector-effect="non-scaling-stroke" points="2810,695 2786,691 " />
<polyline fill="none" vector-effect="non-scaling-stroke" points="2786,691 2764,682 " />
<polyline fill="none" vector-effect="non-scaling-stroke" points="2744,667 2730,648 " />
<polyline fill="none" vector-effect="non-scaling-stroke" points="2730,648 2720,626 " />
<polyline fill="none" vector-effect="non-scaling-stroke" points="2764,682 2744,667 " />
<polyline fill="none" vector-effect="non-scaling-stroke" points="2720,577 2730,555 " />
<polyline fill="none" vector-effect="non-scaling-stroke" points="2717,601 2720,577 " />
<polyline fill="none" vector-effect="non-scaling-stroke" points="2764,521 2786,511 " />
<polyline fill="none" vector-effect="non-scaling-stroke" points="2786,511 2810,508 " />
<polyline fill="none" vector-effect="non-scaling-stroke" points="2720,626 2717,601 " />
<polyline fill="none" vector-effect="non-scaling-stroke" points="2730,555 2744,535 " />
<polyline fill="none" vector-effect="non-scaling-stroke" points="3098,679 3109,601 " />
<polyline fill="none" vector-effect="non-scaling-stroke" points="2522,679 2552,751 " />
<polyline fill="none" vector-effect="non-scaling-stroke" points="2599,812 2661,860 " />
<polyline fill="none" vector-effect="non-scaling-stroke" points="2552,751 2599,812 " />
<polyline fill="none" vector-effect="non-scaling-stroke" points="2599,390 2552,452 " />
<polyline fill="none" vector-effect="non-scaling-stroke" points="2552,452 2522,524 " />
<polyline fill="none" vector-effect="non-scaling-stroke" points="2512,601 2522,679 " />
<polyline fill="none" vector-effect="non-scaling-stroke" points="2661,860 2733,890 " />
<polyline fill="none" vector-effect="non-scaling-stroke" points="2733,890 2810,900 " />
<polyline fill="none" vector-effect="non-scaling-stroke" points="2810,900 2887,890 " />
<polyline fill="none" vector-effect="non-scaling-stroke" points="2887,890 2959,860 " />
<polyline fill="none" vector-effect="non-scaling-stroke" points="2522,524 2512,601 " />
<polyline fill="none" vector-effect="non-scaling-stroke" points="2959,860 3021,812 " />
<polyline fill="none" vector-effect="non-scaling-stroke" points="3021,812 3069,751 " />
<polyline fill="none" vector-effect="non-scaling-stroke" points="3069,751 3098,679 " />
<polyline fill="none" vector-effect="non-scaling-stroke" points="3109,601 3631,601 " />
<polyline fill="none" vector-effect="non-scaling-stroke" points="3631,5 3102,5 " />
<polyline fill="none" vector-effect="non-scaling-stroke" points="2834,511 2857,521 " />
<polyline fill="none" vector-effect="non-scaling-stroke" points="2891,555 2900,577 " />
<polyline fill="none" vector-effect="non-scaling-stroke" points="2900,577 2903,601 " />
<polyline fill="none" vector-effect="non-scaling-stroke" points="2903,601 2900,626 " />
<polyline fill="none" vector-effect="non-scaling-stroke" points="2900,626 2891,648 " />
<polyline fill="none" vector-effect="non-scaling-stroke" points="2857,521 2876,535 " />
<polyline fill="none" vector-effect="non-scaling-stroke" points="2810,508 2834,511 " />
<polyline fill="none" vector-effect="non-scaling-stroke" points="2876,535 2891,555 " />
<polyline fill="none" vector-effect="non-scaling-stroke" points="3631,601 3631,5 " />
<polyline fill="none" vector-effect="non-scaling-stroke" points="2744,535 2764,521 " />
<polyline fill="none" vector-effect="non-scaling-stroke" points="2878,1212 2859,1197 " />
<polyline fill="none" vector-effect="non-scaling-stroke" points="2602,1489 3104,1875 " />
<polyline fill="none" vector-effect="non-scaling-stroke" points="2859,1197 2837,1188 " />
<polyline fill="none" vector-effect="non-scaling-stroke" points="2893,1231 2878,1212 " />
<polyline fill="none" vector-effect="non-scaling-stroke" points="2837,1188 2812,1185 " />
<polyline fill="none" vector-effect="non-scaling-stroke" points="2812,1185 2788,1188 " />
<polyline fill="none" vector-effect="non-scaling-stroke" points="2788,1188 2766,1197 " />
<polyline fill="none" vector-effect="non-scaling-stroke" points="2747,1212 2732,1231 " />
<polyline fill="none" vector-effect="non-scaling-stroke" points="2732,1231 2722,1254 " />
<polyline fill="none" vector-effect="non-scaling-stroke" points="2766,1197 2747,1212 " />
<polyline fill="none" vector-effect="non-scaling-stroke" points="2722,1302 2732,1325 " />
<polyline fill="none" vector-effect="non-scaling-stroke" points="2719,1278 2722,1302 " />
<polyline fill="none" vector-effect="non-scaling-stroke" points="2766,1359 2788,1368 " />
<polyline fill="none" vector-effect="non-scaling-stroke" points="2788,1368 2812,1371 " />
<polyline fill="none" vector-effect="non-scaling-stroke" points="2722,1254 2719,1278 " />
<polyline fill="none" vector-effect="non-scaling-stroke" points="2732,1325 2747,1344 " />
<polyline fill="none" vector-effect="non-scaling-stroke" points="3101,1201 3111,1278 " />
<polyline fill="none" vector-effect="non-scaling-stroke" points="2524,1201 2554,1129 " />
<polyline fill="none" vector-effect="non-scaling-stroke" points="2602,1067 2663,1020 " />
<polyline fill="none" vector-effect="non-scaling-stroke" points="2554,1129 2602,1067 " />
<polyline fill="none" vector-effect="non-scaling-stroke" points="2602,1489 2554,1427 " />
<polyline fill="none" vector-effect="non-scaling-stroke" points="2554,1427 2524,1355 " />
<polyline fill="none" vector-effect="non-scaling-stroke" points="2514,1278 2524,1201 " />
<polyline fill="none" vector-effect="non-scaling-stroke" points="2663,1020 2735,990 " />
<polyline fill="none" vector-effect="non-scaling-stroke" points="2735,990 2812,980 " />
<polyline fill="none" vector-effect="non-scaling-stroke" points="2812,980 2890,990 " />
<polyline fill="none" vector-effect="non-scaling-stroke" points="2890,990 2962,1020 " />
<polyline fill="none" vector-effect="non-scaling-stroke" points="2524,1355 2514,1278 " />
<polyline fill="none" vector-effect="non-scaling-stroke" points="2962,1020 3023,1067 " />
<polyline fill="none" vector-effect="non-scaling-stroke" points="3023,1067 3071,1129 " />
<polyline fill="none" vector-effect="non-scaling-stroke" points="3071,1129 3101,1201 " />
<polyline fill="none" vector-effect="non-scaling-stroke" points="3111,1278 3633,1278 " />
<polyline fill="none" vector-effect="non-scaling-stroke" points="3633,1875 3104,1875 " />
<polyline fill="none" vector-effect="non-scaling-stroke" points="2837,1368 2859,1359 " />
<polyline fill="none" vector-effect="non-scaling-stroke" points="2893,1325 2903,1302 " />
<polyline fill="none" vector-effect="non-scaling-stroke" points="2903,1302 2906,1278 " />
<polyline fill="none" vector-effect="non-scaling-stroke" points="2906,1278 2903,1254 " />
<polyline fill="none" vector-effect="non-scaling-stroke" points="2903,1254 2893,1231 " />
<polyline fill="none" vector-effect="non-scaling-stroke" points="2859,1359 2878,1344 " />
<polyline fill="none" vector-effect="non-scaling-stroke" points="2812,1371 2837,1368 " />
<polyline fill="none" vector-effect="non-scaling-stroke" points="2878,1344 2893,1325 " />
<polyline fill="none" vector-effect="non-scaling-stroke" points="3633,1278 3633,1875 " />
<polyline fill="none" vector-effect="non-scaling-stroke" points="2747,1344 2766,1359 " />
<polyline fill="none" vector-effect="non-scaling-stroke" points="3311,1153 3610,1153 " />
<polyline fill="none" vector-effect="non-scaling-stroke" points="3311,1153 3311,706 " />
<polyline fill="none" vector-effect="non-scaling-stroke" points="3311,706 3610,706 " />
<polyline fill="none" vector-effect="non-scaling-stroke" points="3610,1153 3610,706 " />
<polyline fill="none" vector-effect="non-scaling-stroke" points="3501,890 3510,901 " />
<polyline fill="none" vector-effect="non-scaling-stroke" points="3510,901 3515,915 " />
<polyline fill="none" vector-effect="non-scaling-stroke" points="3515,915 3517,930 " />
<polyline fill="none" vector-effect="non-scaling-stroke" points="3517,930 3515,944 " />
<polyline fill="none" vector-effect="non-scaling-stroke" points="3515,944 3510,958 " />
<polyline fill="none" vector-effect="non-scaling-stroke" points="3510,958 3501,970 " />
<polyline fill="none" vector-effect="non-scaling-stroke" points="3501,970 3489,979 " />
<polyline fill="none" vector-effect="non-scaling-stroke" points="3489,979 3475,984 " />
<polyline fill="none" vector-effect="non-scaling-stroke" points="3475,984 3460,986 " />
<polyline fill="none" vector-effect="non-scaling-stroke" points="3460,986 3446,984 " />
<polyline fill="none" vector-effect="non-scaling-stroke" points="3446,984 3432,979 " />
<polyline fill="none" vector-effect="non-scaling-stroke" points="3432,979 3420,970 " />
<polyline fill="none" vector-effect="non-scaling-stroke" points="3420,970 3411,958 " />
<polyline fill="none" vector-effect="non-scaling-stroke" points="3411,958 3406,944 " />
<polyline fill="none" vector-effect="non-scaling-stroke" points="3406,944 3404,930 " />
<polyline fill="none" vector-effect="non-scaling-stroke" points="3404,930 3406,915 " />
<polyline fill="none" vector-effect="non-scaling-stroke" points="3406,915 3411,901 " />
<polyline fill="none" vector-effect="non-scaling-stroke" points="3411,901 3420,890 " />
<polyline fill="none" vector-effect="non-scaling-stroke" points="3420,890 3432,881 " />
<polyline fill="none" vector-effect="non-scaling-stroke" points="3432,881 3446,875 " />
<polyline fill="none" vector-effect="non-scaling-stroke" points="3446,875 3460,873 " />
<polyline fill="none" vector-effect="non-scaling-stroke" points="3460,873 3475,875 " />
<polyline fill="none" vector-effect="non-scaling-stroke" points="3475,875 3489,881 " />
<polyline fill="none" vector-effect="non-scaling-stroke" points="3489,881 3501,890 " />
<polyline fill="none" vector-effect="non-scaling-stroke" points="1901,576 2349,576 " />
<polyline fill="none" vector-effect="non-scaling-stroke" points="1901,203 1901,576 " />
<polyline fill="none" vector-effect="non-scaling-stroke" points="2349,203 2349,576 " />
<polyline fill="none" vector-effect="non-scaling-stroke" points="2349,203 1901,203 " />
<polyline fill="none" vector-effect="non-scaling-stroke" points="1604,421 1602,425 " />
<polyline fill="none" vector-effect="non-scaling-stroke" points="1611,414 1607,417 " />
<polyline fill="none" vector-effect="non-scaling-stroke" points="1638,425 1636,421 " />
<polyline fill="none" vector-effect="non-scaling-stroke" points="1639,430 1638,425 " />
<polyline fill="none" vector-effect="non-scaling-stroke" points="1602,425 1601,430 " />
<polyline fill="none" vector-effect="non-scaling-stroke" points="1607,417 1604,421 " />
<polyline fill="none" vector-effect="non-scaling-stroke" points="1615,412 1611,414 " />
<polyline fill="none" vector-effect="non-scaling-stroke" points="1629,414 1625,412 " />
<polyline fill="none" vector-effect="non-scaling-stroke" points="1633,417 1629,414 " />
<polyline fill="none" vector-effect="non-scaling-stroke" points="1625,412 1620,412 " />
<polyline fill="none" vector-effect="non-scaling-stroke" points="1636,421 1633,417 " />
<polyline fill="none" vector-effect="non-scaling-stroke" points="1620,412 1615,412 " />
<polyline fill="none" vector-effect="non-scaling-stroke" points="1638,435 1639,430 " />
<polyline fill="none" vector-effect="non-scaling-stroke" points="1633,443 1636,439 " />
<polyline fill="none" vector-effect="non-scaling-stroke" points="1636,439 1638,435 " />
<polyline fill="none" vector-effect="non-scaling-stroke" points="930,430 931,435 " />
<polyline fill="none" vector-effect="non-scaling-stroke" points="958,414 954,412 " />
<polyline fill="none" vector-effect="non-scaling-stroke" points="936,417 933,421 " />
<polyline fill="none" vector-effect="non-scaling-stroke" points="962,417 958,414 " />
<polyline fill="none" vector-effect="non-scaling-stroke" points="954,412 949,412 " />
<polyline fill="none" vector-effect="non-scaling-stroke" points="931,425 930,430 " />
<polyline fill="none" vector-effect="non-scaling-stroke" points="949,412 944,412 " />
<polyline fill="none" vector-effect="non-scaling-stroke" points="965,421 962,417 " />
<polyline fill="none" vector-effect="non-scaling-stroke" points="933,421 931,425 " />
<polyline fill="none" vector-effect="non-scaling-stroke" points="967,425 965,421 " />
<polyline fill="none" vector-effect="non-scaling-stroke" points="931,435 933,439 " />
<polyline fill="none" vector-effect="non-scaling-stroke" points="939,414 936,417 " />
<polyline fill="none" vector-effect="non-scaling-stroke" points="944,412 939,414 " />
<polyline fill="none" vector-effect="non-scaling-stroke" points="962,443 965,439 " />
<polyline fill="none" vector-effect="non-scaling-stroke" points="958,446 962,443 " />
<polyline fill="none" vector-effect="non-scaling-stroke" points="936,443 939,446 " />
<polyline fill="none" vector-effect="non-scaling-stroke" points="944,448 949,449 " />
<polyline fill="none" vector-effect="non-scaling-stroke" points="933,439 936,443 " />
<polyline fill="none" vector-effect="non-scaling-stroke" points="967,430 967,425 " />
<polyline fill="none" vector-effect="non-scaling-stroke" points="965,439 967,435 " />
<polyline fill="none" vector-effect="non-scaling-stroke" points="954,448 958,446 " />
<polyline fill="none" vector-effect="non-scaling-stroke" points="949,449 954,448 " />
<polyline fill="none" vector-effect="non-scaling-stroke" points="939,446 944,448 " />
<polyline fill="none" vector-effect="non-scaling-stroke" points="967,435 967,430 " />
<polyline fill="none" vector-effect="non-scaling-stroke" points="1732,579 1732,51 " />
<polyline fill="none" vector-effect="non-scaling-stroke" points="1732,579 837,579 " />
<polyline fill="none" vector-effect="non-scaling-stroke" points="1732,51 837,51 " />
<polyline fill="none" vector-effect="non-scaling-stroke" points="837,579 837,51 " />
<polyline fill="none" vector-effect="non-scaling-stroke" points="1228,430 1230,445 " />
<polyline fill="none" vector-effect="non-scaling-stroke" points="1230,445 1235,459 " />
<polyline fill="none" vector-effect="non-scaling-stroke" points="1299,375 1284,373 " />
<polyline fill="none" vector-effect="non-scaling-stroke" points="1339,415 1333,402 " />
<polyline fill="none" vector-effect="non-scaling-stroke" points="1313,479 1324,470 " />
<polyline fill="none" vector-effect="non-scaling-stroke" points="1341,430 1339,415 " />
<polyline fill="none" vector-effect="non-scaling-stroke" points="1333,459 1339,445 " />
<polyline fill="none" vector-effect="non-scaling-stroke" points="1333,402 1324,390 " />
<polyline fill="none" vector-effect="non-scaling-stroke" points="1324,390 1313,381 " />
<polyline fill="none" vector-effect="non-scaling-stroke" points="1256,479 1270,485 " />
<polyline fill="none" vector-effect="non-scaling-stroke" points="1284,487 1299,485 " />
<polyline fill="none" vector-effect="non-scaling-stroke" points="1235,459 1244,470 " />
<polyline fill="none" vector-effect="non-scaling-stroke" points="1324,470 1333,459 " />
<polyline fill="none" vector-effect="non-scaling-stroke" points="1244,470 1256,479 " />
<polyline fill="none" vector-effect="non-scaling-stroke" points="1339,445 1341,430 " />
<polyline fill="none" vector-effect="non-scaling-stroke" points="1299,485 1313,479 " />
<polyline fill="none" vector-effect="non-scaling-stroke" points="1270,485 1284,487 " />
<polyline fill="none" vector-effect="non-scaling-stroke" points="1313,381 1299,375 " />
<polyline fill="none" vector-effect="non-scaling-stroke" points="1230,415 1228,430 " />
<polyline fill="none" vector-effect="non-scaling-stroke" points="1256,381 1244,390 " />
<polyline fill="none" vector-effect="non-scaling-stroke" points="1270,375 1256,381 " />
<polyline fill="none" vector-effect="non-scaling-stroke" points="1235,402 1230,415 " />
<polyline fill="none" vector-effect="non-scaling-stroke" points="1284,373 1270,375 " />
<polyline fill="none" vector-effect="non-scaling-stroke" points="1244,390 1235,402 " />
<polyline fill="none" vector-effect="non-scaling-stroke" points="1611,446 1615,448 " />
<polyline fill="none" vector-effect="non-scaling-stroke" points="1629,446 1633,443 " />
<polyline fill="none" vector-effect="non-scaling-stroke" points="1620,449 1625,448 " />
<polyline fill="none" vector-effect="non-scaling-stroke" points="1625,448 1629,446 " />
<polyline fill="none" vector-effect="non-scaling-stroke" points="1615,448 1620,449 " />
<polyline fill="none" vector-effect="non-scaling-stroke" points="1604,439 1607,443 " />
<polyline fill="none" vector-effect="non-scaling-stroke" points="1602,435 1604,439 " />
<polyline fill="none" vector-effect="non-scaling-stroke" points="1607,443 1611,446 " />
<polyline fill="none" vector-effect="non-scaling-stroke" points="1601,430 1602,435 " />
<polyline fill="none" vector-effect="non-scaling-stroke" points="1741,1244 1750,1221 " />
<polyline fill="none" vector-effect="non-scaling-stroke" points="1750,1221 1765,1202 " />
<polyline fill="none" vector-effect="non-scaling-stroke" points="1806,1178 1831,1175 " />
<polyline fill="none" vector-effect="non-scaling-stroke" points="1855,1178 1877,1187 " />
<polyline fill="none" vector-effect="non-scaling-stroke" points="1765,1202 1784,1187 " />
<polyline fill="none" vector-effect="non-scaling-stroke" points="1737,1268 1741,1244 " />
<polyline fill="none" vector-effect="non-scaling-stroke" points="1784,1187 1806,1178 " />
<polyline fill="none" vector-effect="non-scaling-stroke" points="1877,1187 1897,1202 " />
<polyline fill="none" vector-effect="non-scaling-stroke" points="1831,1175 1855,1178 " />
<polyline fill="none" vector-effect="non-scaling-stroke" points="1897,1202 1911,1221 " />
<polyline fill="none" vector-effect="non-scaling-stroke" points="1911,1221 1921,1244 " />
<polyline fill="none" vector-effect="non-scaling-stroke" points="1921,1244 1924,1268 " />
<polyline fill="none" vector-effect="non-scaling-stroke" points="1855,1358 1831,1361 " />
<polyline fill="none" vector-effect="non-scaling-stroke" points="1750,1315 1741,1292 " />
<polyline fill="none" vector-effect="non-scaling-stroke" points="1271,1268 1290,1413 " />
<polyline fill="none" vector-effect="non-scaling-stroke" points="1290,1413 1346,1548 " />
<polyline fill="none" vector-effect="non-scaling-stroke" points="1831,1361 1806,1358 " />
<polyline fill="none" vector-effect="non-scaling-stroke" points="1897,1334 1877,1349 " />
<polyline fill="none" vector-effect="non-scaling-stroke" points="1921,1292 1911,1315 " />
<polyline fill="none" vector-effect="non-scaling-stroke" points="1765,1334 1750,1315 " />
<polyline fill="none" vector-effect="non-scaling-stroke" points="1784,1349 1765,1334 " />
<polyline fill="none" vector-effect="non-scaling-stroke" points="1911,1315 1897,1334 " />
<polyline fill="none" vector-effect="non-scaling-stroke" points="1877,1349 1855,1358 " />
<polyline fill="none" vector-effect="non-scaling-stroke" points="1806,1358 1784,1349 " />
<polyline fill="none" vector-effect="non-scaling-stroke" points="1741,1292 1737,1268 " />
<polyline fill="none" vector-effect="non-scaling-stroke" points="1924,1268 1921,1292 " />
<polyline fill="none" vector-effect="non-scaling-stroke" points="1686,1808 1831,1827 " />
<polyline fill="none" vector-effect="non-scaling-stroke" points="1831,1827 1975,1808 " />
<polyline fill="none" vector-effect="non-scaling-stroke" points="1975,728 1831,709 " />
<polyline fill="none" vector-effect="non-scaling-stroke" points="1346,1548 1435,1664 " />
<polyline fill="none" vector-effect="non-scaling-stroke" points="1551,1752 1686,1808 " />
<polyline fill="none" vector-effect="non-scaling-stroke" points="2390,1268 2371,1123 " />
<polyline fill="none" vector-effect="non-scaling-stroke" points="1435,1664 1551,1752 " />
<polyline fill="none" vector-effect="non-scaling-stroke" points="2226,1664 2315,1548 " />
<polyline fill="none" vector-effect="non-scaling-stroke" points="1975,1808 2110,1752 " />
<polyline fill="none" vector-effect="non-scaling-stroke" points="2315,1548 2371,1413 " />
<polyline fill="none" vector-effect="non-scaling-stroke" points="2110,1752 2226,1664 " />
<polyline fill="none" vector-effect="non-scaling-stroke" points="2371,1413 2390,1268 " />
<polyline fill="none" vector-effect="non-scaling-stroke" points="2371,1123 2315,988 " />
<polyline fill="none" vector-effect="non-scaling-stroke" points="2315,988 2226,872 " />
<polyline fill="none" vector-effect="non-scaling-stroke" points="2226,872 2110,784 " />
<polyline fill="none" vector-effect="non-scaling-stroke" points="2110,784 1975,728 " />
<polyline fill="none" vector-effect="non-scaling-stroke" points="1686,728 1551,784 " />
<polyline fill="none" vector-effect="non-scaling-stroke" points="1551,784 1435,872 " />
<polyline fill="none" vector-effect="non-scaling-stroke" points="1290,1123 1271,1268 " />
<polyline fill="none" vector-effect="non-scaling-stroke" points="1435,872 1346,988 " />
<polyline fill="none" vector-effect="non-scaling-stroke" points="1831,709 1686,728 " />
<polyline fill="none" vector-effect="non-scaling-stroke" points="1346,988 1290,1123 " />
<polyline fill="none" vector-effect="non-scaling-stroke" points="480,1247 489,1225 " />
<polyline fill="none" vector-effect="non-scaling-stroke" points="489,1225 504,1206 " />
<polyline fill="none" vector-effect="non-scaling-stroke" points="546,1181 570,1178 " />
<polyline fill="none" vector-effect="non-scaling-stroke" points="594,1181 616,1191 " />
<polyline fill="none" vector-effect="non-scaling-stroke" points="504,1206 523,1191 " />
<polyline fill="none" vector-effect="non-scaling-stroke" points="477,1271 480,1247 " />
<polyline fill="none" vector-effect="non-scaling-stroke" points="523,1191 546,1181 " />
<polyline fill="none" vector-effect="non-scaling-stroke" points="616,1191 636,1206 " />
<polyline fill="none" vector-effect="non-scaling-stroke" points="570,1178 594,1181 " />
<polyline fill="none" vector-effect="non-scaling-stroke" points="636,1206 651,1225 " />
<polyline fill="none" vector-effect="non-scaling-stroke" points="651,1225 660,1247 " />
<polyline fill="none" vector-effect="non-scaling-stroke" points="660,1247 663,1271 " />
<polyline fill="none" vector-effect="non-scaling-stroke" points="594,1362 570,1365 " />
<polyline fill="none" vector-effect="non-scaling-stroke" points="489,1318 480,1296 " />
<polyline fill="none" vector-effect="non-scaling-stroke" points="10,1271 30,1416 " />
<polyline fill="none" vector-effect="non-scaling-stroke" points="30,1416 85,1551 " />
<polyline fill="none" vector-effect="non-scaling-stroke" points="570,1365 546,1362 " />
<polyline fill="none" vector-effect="non-scaling-stroke" points="636,1337 616,1352 " />
<polyline fill="none" vector-effect="non-scaling-stroke" points="660,1296 651,1318 " />
<polyline fill="none" vector-effect="non-scaling-stroke" points="504,1337 489,1318 " />
<polyline fill="none" vector-effect="non-scaling-stroke" points="523,1352 504,1337 " />
<polyline fill="none" vector-effect="non-scaling-stroke" points="651,1318 636,1337 " />
<polyline fill="none" vector-effect="non-scaling-stroke" points="616,1352 594,1362 " />
<polyline fill="none" vector-effect="non-scaling-stroke" points="546,1362 523,1352 " />
<polyline fill="none" vector-effect="non-scaling-stroke" points="480,1296 477,1271 " />
<polyline fill="none" vector-effect="non-scaling-stroke" points="663,1271 660,1296 " />
<polyline fill="none" vector-effect="non-scaling-stroke" points="425,1812 570,1831 " />
<polyline fill="none" vector-effect="non-scaling-stroke" points="570,1831 715,1812 " />
<polyline fill="none" vector-effect="non-scaling-stroke" points="715,731 570,712 " />
<polyline fill="none" vector-effect="non-scaling-stroke" points="85,1551 174,1667 " />
<polyline fill="none" vector-effect="non-scaling-stroke" points="290,1756 425,1812 " />
<polyline fill="none" vector-effect="non-scaling-stroke" points="1129,1271 1110,1127 " />
<polyline fill="none" vector-effect="non-scaling-stroke" points="174,1667 290,1756 " />
<polyline fill="none" vector-effect="non-scaling-stroke" points="965,1667 1054,1551 " />
<polyline fill="none" vector-effect="non-scaling-stroke" points="715,1812 850,1756 " />
<polyline fill="none" vector-effect="non-scaling-stroke" points="1054,1551 1110,1416 " />
<polyline fill="none" vector-effect="non-scaling-stroke" points="850,1756 965,1667 " />
<polyline fill="none" vector-effect="non-scaling-stroke" points="1110,1416 1129,1271 " />
<polyline fill="none" vector-effect="non-scaling-stroke" points="1110,1127 1054,992 " />
<polyline fill="none" vector-effect="non-scaling-stroke" points="1054,992 965,876 " />
<polyline fill="none" vector-effect="non-scaling-stroke" points="965,876 850,787 " />
<polyline fill="none" vector-effect="non-scaling-stroke" points="850,787 715,731 " />
<polyline fill="none" vector-effect="non-scaling-stroke" points="425,731 290,787 " />
<polyline fill="none" vector-effect="non-scaling-stroke" points="290,787 174,876 " />
<polyline fill="none" vector-effect="non-scaling-stroke" points="30,1127 10,1271 " />
<polyline fill="none" vector-effect="non-scaling-stroke" points="174,876 85,992 " />
<polyline fill="none" vector-effect="non-scaling-stroke" points="570,712 425,731 " />
<polyline fill="none" vector-effect="non-scaling-stroke" points="85,992 30,1127 " />
</g>
</g>
</svg>
